<?xml version="1.0" encoding="utf-8"?>
<!-- Generator: Adobe Illustrator 22.0.0, SVG Export Plug-In . SVG Version: 6.00 Build 0)  -->
<svg version="1.1" id="Layer_1" xmlns="http://www.w3.org/2000/svg" xmlns:xlink="http://www.w3.org/1999/xlink" x="0px" y="0px"
	 viewBox="0 0 1133.9 1133.9" style="enable-background:new 0 0 1133.9 1133.9;" xml:space="preserve">
<style type="text/css">
	.st0{fill:#1C1A1A;}
	.st1{fill-rule:evenodd;clip-rule:evenodd;fill:#1C1D1D;}
	.st2{fill:#1C1D1D;}
	.st3{fill:#010101;}
	.st4{fill:#333333;}
</style>
<g>
	<path d="M446.7,759.7c0-50.5,9.1-100.4,27.9-145.6c17.9-43,43.6-82.7,68.4-121.1c18.7-28.9,38-58.8,53.9-89.9
		c21.2-41.4,64.8-146.8,12.8-231.5l2.7-1.6c52.8,86.1,8.7,192.7-12.7,234.5c-15.9,31.2-35.3,61.2-54.1,90.1
		c-24.8,38.3-50.4,77.9-68.2,120.6c-52.7,126.5-28.6,290.7,58.7,399.3l-2.4,2C477,945.9,446.7,851.8,446.7,759.7z"/>
	<path d="M489.4,582.4c15.8-25.4,43.3-40.8,69.8-55.8l1.2-0.7c52.3-29.5,96.2-45.5,138.1-50.5l0.4,3.1c-41.4,5-85,20.9-136.9,50.2
		l-1.2,0.7c-26.2,14.7-53.2,30-68.6,54.7L489.4,582.4z"/>
	<path d="M562.9,528.5l0-3.1l17.8,0.3c19.6-0.6,40.2-0.4,58.4,7.6l-1.3,2.9c-17.5-7.8-37-7.9-57.1-7.3L562.9,528.5z"/>
	<path d="M559,526.8l12.5-1l0.3,0.1c29.6,8.2,54.6,29.8,66.9,57.9l1,2.3l-2.6-0.2c-4-0.2-7.5-2-10.7-3.6
		c-13.7-6.9-27.8-14-39.6-24.4c-10.8-9.6-18-16.4-26.4-28.9L559,526.8z M571.2,529l-6.6,0.5c7.7,11,14.4,17.2,24.3,26.1
		c11.4,10.2,25.4,17.2,38.9,24c2.1,1.1,4.4,2.2,6.7,2.8C622.3,556.5,598.8,536.7,571.2,529z"/>
	<path d="M696.7,467.4c0-4.9,1.6-10.5,4.6-15.6l0,0c4.5-7.5,12.2-12.4,20.1-12.8l1.2-0.1l0.3,1.2c0.7,2.3-0.1,4.6-0.7,6.7
		c-0.6,1.8-1.1,3.5-0.6,4.9c0.3,0.8,0.9,1.5,1.5,2.3c0.6,0.8,1.3,1.6,1.8,2.6c1,2,0.8,4.2,0.7,6.2c-0.1,1.2-0.1,2.3,0,3.4
		c0.1,0.9,0.4,1.8,0.8,2.8c0.6,1.7,1.1,3.5,0.9,5.4c-0.5,4.9-5.5,7.6-9.6,8.4c-8.2,1.6-14.7-0.4-18.2-5.4
		C697.6,474.7,696.7,471.2,696.7,467.4z M704,453.4c-4.8,8.1-5.6,17-1.9,22.2c2.8,4,8,5.4,15.1,4.1c3.3-0.6,6.8-2.6,7.1-5.6
		c0.2-1.3-0.3-2.6-0.8-4.1c-0.4-1.1-0.7-2.2-0.9-3.4c-0.2-1.4-0.1-2.7,0-4c0.1-1.7,0.2-3.4-0.4-4.7c-0.3-0.7-0.8-1.3-1.4-2
		c-0.7-0.9-1.6-2-2-3.3c-0.8-2.4,0-4.8,0.6-6.9c0.4-1.3,0.8-2.5,0.8-3.6C713.7,443.1,707.7,447.3,704,453.4L704,453.4z"/>
	<path d="M697.6,473.5l3.1-0.3c0.9,9.3,5,18.6,10.4,23.8c2.9,2.8,5.5,4.3,8.2,4.6c0.3,0,0.8,0.1,1.1,0c0.3-0.1,0.7-0.5,1-0.9
		c2.7-2.9,5.1-5.8,5.1-9c0,0,0,0,0-0.1c0-2.6-1.1-4.1-2.6-5.9c-1.2-1.5-2.5-3.2-3.3-5.7l3-1c0.7,2,1.7,3.3,2.8,4.7
		c1.6,2,3.3,4.1,3.3,7.8c0,0,0,0.1,0,0.1c0,4.4-3,7.9-5.9,11.1c-0.5,0.5-1.2,1.3-2.2,1.7c-1,0.4-1.9,0.3-2.6,0.2
		c-3.3-0.4-6.6-2.2-10-5.4C701.8,492.3,698.4,481.4,697.6,473.5z"/>
	<path d="M699.7,453.4c0-13.8,9-27.4,21.1-31.5c3.8-1.3,5.8-0.3,6.9,0.8c1.1,1.1,1.4,2.5,1.6,3.5l2.8,11.8c0.4,1.6,0.9,3.6,0.3,5.6
		c-0.9,3.1-3.7,4.8-6.3,6.2c-0.6,0.3-1.5,1-2.4,1.7c-1.1,0.8-2.1,1.6-2.9,2l-1.5-2.8c0.6-0.3,1.5-1,2.4-1.7c1.1-0.8,2.1-1.6,2.9-2
		c2.1-1.1,4.3-2.4,4.8-4.3c0.4-1.2,0-2.7-0.3-4.1l-2.8-11.8c-0.2-0.7-0.4-1.6-0.8-2c-0.8-0.8-2.7-0.4-3.7,0
		c-11.1,3.7-19.8,17.3-19,30l-3.1,0.2C699.7,454.6,699.7,454,699.7,453.4z"/>
	<path d="M722,481.9l1.3-2.8l6.4,3.1c0.8,0.5,1.6,0.6,2.4,0.3c1.1-0.3,2.1-1,2.6-2c0.9-1.7,0.8-4.2-0.3-6.5
		c-0.2-0.4-0.4-0.8-0.6-1.2c-0.6-1-1.2-2.1-1.4-3.3c-0.5-1.9-0.1-3.7,0.2-5.4l0.2-1.1c0.8-5.4-0.4-11.2-3.5-15.8l2.6-1.7
		c3.5,5.2,4.9,11.8,4,18l-0.2,1.2c-0.3,1.5-0.5,2.9-0.2,4.2c0.2,0.8,0.7,1.7,1.1,2.5c0.2,0.4,0.5,0.9,0.7,1.3
		c1.6,3.3,1.7,6.8,0.2,9.4c-0.9,1.7-2.6,3-4.5,3.5c-1.7,0.4-3.3,0.2-4.7-0.6L722,481.9z"/>
	<path d="M707.5,497.6l2.7-1.6c1.5,2.5,3.9,4.3,6.4,6.2c0.9,0.7,1.8,1.4,2.6,2.1c2.9,2.4,5.4,3.6,7.8,3.8c2.5,0.1,5.3-1.4,5.8-3.8
		c0.1-0.4,0.1-0.9,0.1-1.3c0-1.1,0.1-2.4,0.9-3.6c0.4-0.7,1-1.1,1.5-1.5c0.2-0.1,0.4-0.3,0.5-0.4c1.7-1.6,1.7-4.2,1.2-6
		c-0.6-2.4-2.2-4.5-3.7-6.6l2.5-1.8c1.6,2.2,3.4,4.6,4.2,7.6c1,3.5,0.1,7.1-2.1,9.1c-0.2,0.2-0.5,0.4-0.7,0.6
		c-0.3,0.3-0.7,0.5-0.8,0.8c-0.3,0.5-0.3,1.2-0.4,2c0,0.6,0,1.1-0.1,1.7c-0.7,4.2-5.2,6.6-9,6.4c-3.1-0.2-6.2-1.6-9.6-4.5
		c-0.8-0.7-1.7-1.4-2.5-2C712,502.7,709.3,500.6,707.5,497.6z"/>
	<g>
		<path d="M452.4,341.8l0.9-0.7c1.7-1.4,3.7-1.1,5.4-0.9c1.5,0.2,2.5,0.2,3.1-0.3c0.4-0.3,0.7-1,1.1-1.8c0.4-0.8,0.8-1.6,1.4-2.3
			c1.3-1.5,3-1.9,4.5-2.2c0.8-0.2,1.6-0.3,2.2-0.7c0.5-0.3,1.1-0.8,1.6-1.3c1-0.9,2.2-2,3.8-2.2c3.8-0.6,7.2,3.4,9,7.3
			c5.6,11.9,2.4,18,0,20.5c-3.8,4-10.6,4.8-17.6,1.9l0,0c-6.6-2.7-12.2-8.9-14.8-16.3L452.4,341.8z M485.3,348.7
			c0-3-0.9-6.5-2.8-10.6c-1.6-3.4-4-5.8-5.7-5.6c-0.7,0.1-1.5,0.8-2.2,1.5c-0.7,0.6-1.4,1.2-2.2,1.7c-1,0.5-2,0.8-3,1
			c-1.4,0.3-2.2,0.5-2.8,1.2c-0.3,0.4-0.6,1-0.9,1.6c-0.4,0.9-0.9,2-1.8,2.8c-1.7,1.5-3.8,1.3-5.5,1.1c-0.8-0.1-1.5-0.2-2.1-0.1
			c2.5,6,7.2,10.9,12.5,13.1l0,0c5.8,2.4,11.3,1.9,14.2-1.2C484.5,353.5,485.3,351.3,485.3,348.7z"/>
		<path d="M480.2,332.2c1.1-1,1.7-2.2,2.3-3.6c0.9-2,2-4.2,4.9-5.1c3.6-1.1,7.5,1.6,10,3.3c0.6,0.4,1.3,0.9,1.8,1.7
			c0.5,0.8,0.7,1.6,0.9,2.3c0.7,3.2,0.4,6.7-0.9,10.6c-2.7,8.4-9.5,14.1-14.9,16.6l-1.3-2.8c6.1-2.8,11.3-8.6,13.3-14.8
			c1.1-3.4,1.3-6.3,0.8-8.9c-0.1-0.4-0.2-0.9-0.4-1.2c-0.2-0.3-0.5-0.5-0.9-0.8c-2.6-1.8-5.3-3.5-7.3-2.9c-1.5,0.4-2.1,1.5-3,3.4
			c-0.7,1.5-1.5,3.2-3.1,4.6L480.2,332.2z"/>
		<path d="M439.3,342c0-0.5,0.1-1.1,0.2-1.5c0.5-1.4,1.5-2.1,2.2-2.5l7.4-5.2c1-0.7,2.5-1.7,4.3-1.6c2.6,0.2,4.6,2.4,6.4,4.8
			c0.4,0.5,1.2,1.2,1.9,2c0.9,0.9,1.8,1.7,2.2,2.3l-2.5,1.9c-0.4-0.5-1.2-1.2-1.9-2c-0.9-0.9-1.8-1.7-2.2-2.3
			c-1-1.2-2.8-3.5-4.2-3.6c-0.7,0-1.4,0.4-2.3,1.1l-7.4,5.2c-0.6,0.4-0.9,0.7-1,1c-0.3,0.8,0.1,2.2,1.1,3.8
			c5.8,9.8,17.5,15,26.1,11.7l1.1,2.9c-10.1,3.9-23.2-1.8-29.9-13C439.9,345.1,439.3,343.5,439.3,342z"/>
		<path d="M454.2,331.7c2.7-4.6,7.1-7.5,11.9-8l0.9-0.1c1.1-0.1,2-0.1,2.6-0.6c0.4-0.3,0.9-0.9,1.3-1.5c0.2-0.3,0.5-0.7,0.7-1
			c2-2.4,4.7-3.4,7.2-2.4c2.9,1,5.1,4.7,4.7,7.9l-0.2,6.6l-3.1-0.1l0.3-6.8c0.3-2-1.2-4.2-2.6-4.7c-1.8-0.6-3.2,0.8-3.7,1.5
			c-0.2,0.3-0.4,0.5-0.6,0.8c-0.5,0.8-1.2,1.6-2.1,2.2c-1.4,0.9-2.9,1-4.2,1.1l-0.8,0.1c-3.8,0.3-7.3,2.7-9.5,6.4L454.2,331.7z"/>
		<path d="M479.4,319.9c1.1-2,2.3-4.3,4.2-5.8c2.4-1.8,5.4-1.9,7.7,0c0.2,0.2,0.4,0.4,0.6,0.5c0.3,0.3,0.6,0.5,0.8,0.6
			c0.2,0.1,0.5,0,1.1-0.1c0.4-0.1,0.9-0.2,1.4-0.3c3.4-0.2,6.4,3.4,7.4,7.1c0.8,2.9,0.7,6.1-0.3,10c-0.2,0.9-0.4,1.9-0.7,2.8
			c-0.6,2.9-1.3,6-2.9,8.4l-2.6-1.7c1.3-1.9,1.8-4.6,2.4-7.4c0.2-1,0.4-2,0.7-3c0.9-3.3,1-6,0.3-8.4c-0.7-2.6-2.7-4.9-4.1-4.8
			c-0.3,0-0.5,0.1-0.8,0.2c-0.8,0.2-2,0.5-3.2-0.1c-0.6-0.3-1.1-0.7-1.5-1.1l-0.5-0.4c-1.4-1.1-2.9-0.7-3.8,0.1
			c-1.4,1-2.4,2.9-3.3,4.8L479.4,319.9z"/>
	</g>
	<path d="M638,540.7c0-1.8,0.3-3.6,0.5-5.3l0.1-1c0.7-5.3,4-9.7,9.1-12.1c5.5-2.5,12.1-2.1,17.1,1.2c7.9,5.1,4.8,12.9,2.3,19.2
		c-1.5,3.8-2.9,7.3-2.3,10.1c0.6,2.6-0.1,5.8-2.8,6.8c-1.1,0.4-2.3,0.2-3.4,0c-7.8-1.8-14.9-6.8-19.3-13.5
		C638.3,544.6,638,542.7,638,540.7z M641.7,534.8l-0.2,1.1c-0.4,2.8-0.9,6.6,0.3,8.5c4,6.1,10.4,10.5,17.4,12.1
		c0.6,0.1,1.2,0.3,1.6,0.1c0.8-0.3,1.1-1.9,0.8-3.2c-0.8-3.7,0.8-7.9,2.5-11.9c2.9-7.3,4.3-11.9-1.1-15.4c-4.1-2.7-9.5-3.1-14.1-1
		C644.9,527.1,642.3,530.6,641.7,534.8L641.7,534.8z"/>
	<path d="M637.3,532.5c1.2-1.3,2.6-3.1,4.1-4.9c3.7-4.6,7.8-9.8,11.9-12.1c6.5-3.7,13.5-4.5,19.2-2.2c0.7,0.3,1.6,0.7,2.4,1.4
		c2.3,2.3,1.7,5.7,0.9,8.4c-1.1,3.6-2.5,8.6-6.3,11.6l-1.9-2.5c2.8-2.2,4-5.8,5.2-10c0.5-1.9,1-4.2-0.1-5.3
		c-0.3-0.3-0.9-0.6-1.3-0.8c-4.8-1.9-11-1.1-16.6,2c-3.5,2-7.5,6.9-11,11.3c-1.5,1.9-2.9,3.7-4.2,5.1L637.3,532.5z"/>
	<path d="M636.9,537.7c0-0.5,0-1,0-1.4c0.2-3.9,1.8-5.4,3.2-6l1.2,2.9c-1,0.4-1.2,2.4-1.3,3.2c-0.6,10.2,5,20.7,13.7,26
		c2.5,1.5,4.5,2.2,6.3,2c1.8-0.1,3.8-1.3,4.1-3.2c0.1-0.5,0.1-0.9,0-1.3c0-0.4,0-0.8,0-1.1c0.1-1.6,0.6-3,1-4.4
		c0.5-1.3,0.8-2.6,0.9-3.8c0-1.8-1-3.5-2.2-5.5l2.7-1.6c1.2,1.9,2.7,4.3,2.7,7.1c0,0,0,0.1,0,0.1c0,1.7-0.5,3.3-1,4.7
		c-0.4,1.2-0.8,2.4-0.9,3.5c0,0.3,0,0.6,0,0.9c0,0.6,0,1.3-0.1,1.9c-0.5,3.1-3.5,5.6-7,5.8c-2.5,0.2-5.2-0.6-8.2-2.5
		C642.9,559.4,636.9,548.6,636.9,537.7z"/>
	<path d="M568.6,452.8c7.5-34.1,14.1-70.1,6.8-102.4l3.1-0.7c7.5,32.9,0.8,69.3-6.8,103.7L568.6,452.8z"/>
	<path d="M597,403.1c6-10.9,19.2-19.4,31.2-26.4l27.5-16.2l1.6,2.7l-27.5,16.2c-11.6,6.8-24.4,15-30,25.2L597,403.1z"/>
	<path d="M655.6,360c0-0.4,0-0.7,0.1-1.1c1.3-10,11.5-21.7,19.8-29.8l0,0c0.5-0.5,1.5-1.5,2.9-1.5c1,0,2,0.5,2.6,1.4
		c0.8,1.2,1,3,0.4,4.5c-0.2,0.6-0.5,1.1-0.9,1.6c-0.5,0.8-0.8,1.5-0.9,2.1c0,1.1,1,2.1,2.2,3.1c0.3,0.3,0.6,0.6,0.9,0.9
		c2.4,2.4,3.8,5.8,3.9,9.2c0.1,1.8-0.2,3.4-0.9,4.8c-0.6,1.2-1.4,2.3-2.1,3.2c-0.8,1.1-1.7,2.1-2.7,3.1c-3.6,3.7-15.8,7.2-21.8,4.3
		C656.9,364.6,655.6,362.6,655.6,360z M678.4,330.7c0,0-0.2,0.1-0.7,0.6v0c-6.5,6.3-17.6,18.4-18.9,28c-0.2,1.8,0.3,2.9,1.8,3.6
		c4.6,2.3,15.3-0.7,18.2-3.7c0.9-0.9,1.6-1.9,2.4-2.8c0.6-0.8,1.3-1.7,1.7-2.6c0.4-1,0.7-2.1,0.6-3.4c-0.1-2.6-1.2-5.2-3-7.1
		c-0.3-0.3-0.5-0.5-0.8-0.8c-1.4-1.3-3.1-3-3.1-5.3c0,0,0-0.1,0-0.1c0-1.4,0.7-2.6,1.3-3.6c0.2-0.4,0.5-0.8,0.7-1.3
		C678.7,331.6,678.5,330.8,678.4,330.7C678.4,330.7,678.4,330.7,678.4,330.7z"/>
	<path d="M655.6,361.5l3.1-0.3c0.1,0.8,0.4,1.3,1.1,2.2c0.3,0.5,0.7,0.9,1,1.5c2.6,4.4,5.7,7.9,9.1,10.3c3.9,2.8,8.4,4.3,12.6,4.3
		c1.1,0,1.8-0.3,1.8-0.5c0-0.1,0-0.3,0-0.5c0-0.5,0-1.3,0.3-2c0.3-0.6,0.7-1,1-1.2c1.8-1.7,2.2-4.6,1-6.9c-1.1-2.2-3.3-4-6.2-4.9
		c-1-0.3-2-1.3-1.9-2.5l0.1-1.2l1.5-0.4l0.2,1.5l1.3,0.3c0-0.1,0-0.6-0.3-0.7c3.7,1.2,6.6,3.5,8.1,6.5c1.8,3.6,1.1,8-1.6,10.5
		c-0.3,0.3-0.4,0.4-0.5,0.4c0,0,0,0.3,0,0.5c0,0.4,0,0.9-0.1,1.4c-0.5,1.8-2.3,2.9-4.8,2.9c-4.9,0-10-1.7-14.5-4.9
		c-3.8-2.7-7.2-6.5-10-11.3c-0.3-0.5-0.6-0.8-0.8-1.2C656.6,364.3,655.8,363.2,655.6,361.5z"/>
	<path d="M653.9,342.3c0-0.6,0-1.1,0-1.7c0.2-8.3,2.2-15.4,5.7-21.1c0.9-1.4,2.2-3.2,4.2-3.9c1.6-0.6,3.3-0.2,4.7,0.8
		c1.2-0.6,2.3-0.5,3.1-0.3c2.4,0.6,4.1,3,4.7,4.8c1.9,5,0.2,9.2-1.8,13.3l-2.8-1.4c2.1-4.4,3-7.3,1.6-10.9c-0.5-1.4-1.6-2.6-2.6-2.9
		c-0.3-0.1-0.8-0.1-1.5,0.4l-1.3,1.1l-1-1.3c-0.4-0.6-1.2-1.1-2.1-0.8c-1.1,0.4-2,1.6-2.6,2.6c-3.3,5.2-5,11.8-5.2,19.5
		c-0.2,6.7,0.7,13.1,2,20.9c0.1,0.7,0.2,1.4,0.5,1.8c0.1,0.2,0.3,0.3,0.3,0.3l1.5,2.7c-1.5,0.9-3.2,0.4-4.3-1.1
		c-0.8-1-1-2.2-1.1-3.2C655,356.3,653.9,349.3,653.9,342.3z"/>
	<path d="M655.7,363.8l3-0.9c2,6.7,6.7,16.3,10.7,22c4,5.7,8.4,10.6,12.9,8.1c0.1-0.1,0.3-0.3,0.4-0.5c0.3-0.4,0.6-0.9,1.1-1.3
		c0.8-0.6,1.6-0.8,2.3-0.9c0.4-0.1,0.7-0.2,1-0.3c0.7-0.4,1.3-1.4,1.6-2.6c0.6-1.9,0.5-4-0.3-5.9l-3.1-3.7l2.4-2l3.5,4.3
		c1.1,2.6,1.2,5.5,0.5,8.1c-0.4,1.4-1.3,3.4-3,4.4c-0.7,0.4-1.4,0.6-1.9,0.7c-0.5,0.1-0.8,0.2-1.1,0.4c-0.1,0.1-0.3,0.3-0.4,0.5
		c-0.3,0.5-0.8,1.2-1.5,1.6c-7.6,4.1-14.2-5.1-17-9C662.7,380.8,657.8,370.8,655.7,363.8z"/>
	<g>
		<path d="M588.8,422.9c0-0.1,0-0.3,0-0.4c0.8-16.2,38.5-17.3,38.8-17.3l0,0c12.9-0.1,26.5,3,41.8,9.5l4.2,1.8l-4.4,1.2
			c-5.9,1.6-11.9,3.6-17.6,5.5c-7.2,2.4-14.7,5-22.3,6.7c-0.3,0.1-28.9,6.1-37.8-1.4C589.7,427,588.8,425.1,588.8,422.9z
			 M627.7,408.3c-9.4,0.1-35.2,3.6-35.7,14.3c-0.1,1.5,0.4,2.6,1.5,3.5c6.2,5.2,27.9,2.4,35.1,0.7c7.5-1.7,14.9-4.2,22-6.6
			c4.4-1.5,8.9-3,13.4-4.4C650.9,410.7,638.9,408.2,627.7,408.3L627.7,408.3z"/>
		<path d="M589.8,421.3c4.4-2.5,9.7-2.5,14-2.5l15.1,0v3.1l-15.1,0c-4.1,0-8.8,0-12.4,2.1L589.8,421.3z"/>
	</g>
	<g>
		<path d="M632.4,484.4c0-2.3,0.7-5.1,2-8.6c5.8-15.2,16-28.4,28.8-37.3l0,0c5.8-4,10.8-6.2,15.8-6.8l3.7-0.5l-2.3,3
			c-6.6,8.6-11.8,18.2-15.7,28.3c-0.4,1-0.7,2-1.1,3c-1.4,3.7-2.8,7.5-4.8,11c-4.8,8.1-17.4,16.5-23.3,13.6
			C633.4,489.2,632.4,487.3,632.4,484.4z M664.9,441.1c-12.3,8.5-22.1,21.3-27.7,35.8c-2.1,5.6-2.3,9.5-0.5,10.4
			c3.6,1.7,14.7-4.8,19.2-12.4c1.9-3.2,3.3-6.9,4.6-10.5c0.4-1,0.7-2,1.1-3c3.5-9.1,8.1-17.7,13.7-25.7
			C672.1,436.7,668.7,438.5,664.9,441.1L664.9,441.1z"/>
		<path d="M635.7,487.9c0.4-6.1,4.1-11.2,7.9-15.9c2.8-3.4,5.6-6.8,8.5-10.1l2.4,2.1c-2.9,3.3-5.7,6.6-8.4,10
			c-3.5,4.3-6.9,8.9-7.2,14.1L635.7,487.9z"/>
	</g>
	<path d="M564.1,528.2l1.7-2.6c10.3,6.7,20,14.3,28.9,22.7l-2.2,2.3C583.7,542.3,574.2,534.8,564.1,528.2z"/>
	<g>
		<path d="M558.1,324.5c0-0.4,0-0.8,0.1-1.3c0.4-2.4,2.4-4.2,4.6-4.3c0.9,0,1.6,0.2,2.3,0.4c0.4,0.1,0.8,0.3,1.2,0.3
			c0.8,0,1.8-0.5,2.8-1.1c1.6-0.9,3.7-2.1,5.8-0.8c0.3,0.2,0.7,0.4,1,0.7c0.2,0.2,0.4,0.3,0.5,0.4c0.2,0.1,0.6,0.1,0.9,0.1
			c0.2,0,0.5,0,0.7,0c2.7,0.2,5.3,2.3,6.5,5.2c1.1,2.6,1,5.5,0.8,7.6c-0.4,5.1-1.1,12.5-5.2,14.9c-1.8,1-3.9,1-6.3-0.1
			c-6.3-2.9-12.4-12.2-14.7-17.9l0,0C558.6,327.5,558.1,326.1,558.1,324.5z M582.3,329.4c0-1.4-0.2-2.8-0.7-4
			c-0.6-1.5-2-3.1-3.8-3.3l-0.5,0c-0.6,0-1.4,0-2.2-0.4c-0.5-0.2-0.9-0.6-1.2-0.8c-0.2-0.1-0.3-0.3-0.5-0.4c-0.6-0.3-1.3,0-2.8,0.8
			c-1.3,0.7-2.8,1.6-4.5,1.5c-0.7,0-1.4-0.2-1.9-0.4c-0.5-0.1-0.9-0.3-1.2-0.3c-0.7,0-1.4,0.8-1.6,1.8c-0.2,1.2,0.2,2.6,0.7,3.7
			c2.4,6,8.1,13.9,13.1,16.2c2.2,1,3.1,0.4,3.5,0.3c2.7-1.6,3.3-8.5,3.6-12.3C582.2,331,582.3,330.2,582.3,329.4z"/>
		<path d="M549.2,334c0-1.3,0.4-2.5,1.1-3.5c0.2-0.2,0.3-0.4,0.5-0.6c0.2-0.2,0.5-0.5,0.5-0.7c0-0.1-0.1-0.5-0.2-0.8
			c-0.1-0.5-0.3-1.1-0.3-1.8c0.1-2.3,2.4-3.7,4.4-3.6c1.3,0,2.9,0.7,5.3,2l-1.6,2.7c-2.6-1.5-3.5-1.6-3.8-1.6
			c-0.6,0-1.2,0.4-1.2,0.7c0,0.1,0.1,0.5,0.2,0.8c0.2,0.6,0.4,1.3,0.2,2.2c-0.2,0.9-0.7,1.6-1.2,2.1c-0.1,0.1-0.2,0.3-0.3,0.4
			c-0.7,1-0.5,2.6,0,3.7c0.7,1.4,2,2.6,3.1,3.6c4.5,3.7,9.9,6.4,15.5,7.8c1.8,0.4,4,0.9,6,0.3c1.5-0.4,3-1.8,3-3.4c0,0,0,0,0,0
			l3.1,0c0,0,0,0,0,0c0,3.2-2.6,5.6-5.3,6.4c-2.7,0.8-5.5,0.3-7.7-0.3c-6.1-1.5-11.9-4.4-16.7-8.4c-1.4-1.2-3-2.7-4-4.6
			C549.4,336.2,549.2,335,549.2,334z"/>
		<path d="M578,347.1c8-5.4,14.1-13.4,17.2-22.5c0.5-1.5,0.8-3.5-0.1-4.1c-0.1-0.1-0.3-0.2-0.4-0.2c-0.5-0.3-1.2-0.6-1.6-1.4
			c-0.2-0.4-0.3-0.8-0.4-1.1c-3.5,0-7,3.5-8.7,6.7l-2.8-1.4c2.1-4,6.5-8.4,11.1-8.5c1.6,0,2.4,0.6,2.8,1.2c0.3,0.5,0.5,1,0.6,1.3
			c0.1,0.3,0.3,0.4,0.5,0.5c0.2,0.1,0.5,0.3,0.7,0.4c2.1,1.4,2.6,4.2,1.3,7.7c-3.3,9.7-9.9,18.3-18.4,24.1L578,347.1z"/>
	</g>
	<g>
		<path d="M631.4,661c0-1,0.2-2,0.6-3.1c2.4-6.5,11.3-13.3,16.8-16h0c1.4-0.7,3.3-1.5,5.4-1.2c2.4,0.3,4.4,2.1,4.6,4.3
			c0.1,0.9-0.1,1.6-0.3,2.3c-0.1,0.4-0.2,0.8-0.2,1.2c0,0.8,0.6,1.7,1.3,2.7c1,1.6,2.3,3.5,1.3,5.8c-0.2,0.4-0.4,0.7-0.6,1
			c-0.2,0.2-0.3,0.4-0.3,0.5c-0.1,0.2,0,0.6,0,0.9c0,0.2,0,0.5,0,0.7c0,2.8-1.9,5.4-4.7,6.8c-2.5,1.2-5.4,1.4-7.6,1.3
			c-5.2-0.1-12.6-0.2-15.3-4.1C631.8,663.2,631.4,662.2,631.4,661z M650.2,644.7c-5.8,2.9-13.3,9.1-15.2,14.3
			c-0.8,2.2-0.2,3.2,0,3.5c1.8,2.6,8.7,2.7,12.5,2.7c2.2,0,4.5-0.1,6.4-1c1.5-0.7,3-2.3,3-4.1l0-0.5c0-0.6-0.1-1.4,0.2-2.2
			c0.2-0.5,0.5-0.9,0.7-1.3c0.1-0.2,0.2-0.3,0.3-0.5c0.3-0.6-0.1-1.3-1.1-2.7c-0.8-1.3-1.8-2.7-1.8-4.4c0.1-0.8,0.2-1.4,0.3-2
			c0.1-0.5,0.3-0.9,0.2-1.3c-0.1-0.7-0.9-1.4-1.9-1.5C652.6,643.6,651.2,644.2,650.2,644.7L650.2,644.7z"/>
		<path d="M627.8,658.7c0-1.3,0.2-2.6,0.4-3.7c1.1-6.2,3.6-12.1,7.2-17.3c1.1-1.5,2.4-3.2,4.3-4.3c2.3-1.3,4.9-1.4,6.8-0.2
			c0.2,0.1,0.4,0.3,0.7,0.4c0.3,0.2,0.6,0.4,0.7,0.4c0.1,0,0.5-0.1,0.7-0.2c0.5-0.2,1.1-0.4,1.8-0.4c2.3,0,3.8,2.1,3.9,4.1
			c0,1.2-0.5,3-1.6,5.4l-2.8-1.4c1.3-2.7,1.4-3.7,1.3-3.9c0-0.6-0.5-1.1-0.8-1.1c-0.2,0-0.5,0.1-0.8,0.2c-0.6,0.2-1.3,0.5-2.2,0.4
			c-1-0.1-1.6-0.6-2.2-1c-0.1-0.1-0.3-0.2-0.5-0.3c-1.1-0.7-2.6-0.4-3.6,0.2c-1.4,0.8-2.4,2.2-3.3,3.4c-3.3,4.8-5.6,10.3-6.6,16
			c-0.3,1.8-0.6,4.1,0.1,6c0.6,1.4,2,2.9,3.7,2.8l0.3,3.1c-3.2,0.3-5.8-2.2-6.8-4.8C627.9,661.3,627.8,660,627.8,658.7z"/>
		<path d="M629.4,664.1l2.5-1.9c6,7.6,14.4,13.1,23.7,15.5c1.6,0.4,3.5,0.5,4.1-0.4c0.1-0.1,0.1-0.3,0.2-0.4
			c0.2-0.5,0.5-1.2,1.3-1.7c0.4-0.3,0.8-0.4,1.1-0.5c-0.2-3.5-4-6.7-7.3-8.2l1.2-2.9c4.2,1.8,8.9,5.8,9.3,10.5
			c0.2,1.6-0.5,2.4-1,2.9c-0.4,0.4-0.9,0.5-1.3,0.7c-0.3,0.1-0.4,0.3-0.4,0.5c-0.1,0.3-0.2,0.5-0.4,0.7c-1.2,2.1-4,2.8-7.6,1.9
			C644.8,678.1,635.8,672.2,629.4,664.1z"/>
		<path d="M396.9,834c0-1.3,0.5-2.5,1.4-3.4c0.6-0.6,1.4-0.9,2-1.2c0.4-0.2,0.8-0.4,1-0.6c0.6-0.5,1-1.6,1.4-2.7
			c0.6-1.8,1.4-4,3.8-4.5c0.4-0.1,0.8-0.1,1.2-0.1c0.3,0,0.5,0,0.6-0.1c0.2-0.1,0.5-0.3,0.8-0.6c0.2-0.2,0.4-0.3,0.5-0.5
			c2.2-1.7,5.4-1.8,8.3-0.4c2.5,1.2,4.3,3.3,5.7,5.2c3.1,4.1,7.5,10.1,6.1,14.6c-0.6,2-2.3,3.4-4.8,4.1c-6.7,2.1-17.4-0.8-22.9-3.5
			l0,0c-1.4-0.7-3.2-1.7-4.3-3.5C397.2,836,396.9,834.9,396.9,834z M426.8,837.8c0-3.1-3.6-7.9-5.6-10.6c-1.3-1.8-2.8-3.5-4.7-4.4
			c-1.5-0.7-3.6-1-5,0.1l-0.4,0.3c-0.5,0.4-1.1,0.9-1.9,1.2c-0.5,0.2-1.1,0.2-1.5,0.2c-0.2,0-0.4,0-0.6,0c-0.6,0.1-1,0.9-1.5,2.5
			c-0.5,1.4-1,3-2.4,4.1c-0.6,0.5-1.2,0.7-1.7,1c-0.5,0.2-0.9,0.4-1.1,0.6c-0.5,0.5-0.5,1.6,0,2.4c0.6,1.1,1.9,1.8,3,2.3
			c5.8,2.9,15.4,5,20.6,3.3c2.3-0.7,2.6-1.8,2.7-2.1C426.8,838.5,426.8,838.1,426.8,837.8z"/>
		<path d="M393.6,842.1c0-1.3,0.6-2.6,1.6-3.4c0.9-0.8,2.6-1.5,5.3-2l0.6,3.1c-2.9,0.6-3.7,1.2-3.9,1.3c-0.4,0.4-0.6,1.1-0.4,1.3
			c0.1,0.1,0.4,0.3,0.6,0.5c0.5,0.3,1.2,0.8,1.6,1.5c0.5,0.8,0.5,1.7,0.5,2.3c0,0.2,0,0.4,0,0.6c0.1,1.3,1.3,2.3,2.4,2.8
			c1.4,0.6,3.2,0.6,4.7,0.6c5.8-0.3,11.6-1.8,16.8-4.5c1.7-0.9,3.6-2.1,4.7-3.8c0.8-1.3,1.1-3.4,0-4.6l2.3-2.1
			c2.2,2.4,1.8,6,0.4,8.3c-1.5,2.4-3.9,3.9-5.9,4.9c-5.5,2.9-11.8,4.6-18.1,4.9c-1.9,0.1-4.1,0.1-6.1-0.8c-2.4-1-4-3-4.3-5.3
			c0-0.3,0-0.5-0.1-0.8c0-0.3,0-0.7-0.1-0.8c-0.1-0.1-0.4-0.3-0.6-0.5c-0.4-0.3-1-0.6-1.4-1.2C393.8,843.6,393.6,842.8,393.6,842.1z
			"/>
		<path d="M414.1,816.6c0-3.4,0.9-6.9,3.2-9c1.2-1.1,2.2-1.1,2.9-1c0.6,0.1,1,0.4,1.3,0.6c0.2,0.1,0.5,0.1,0.7,0
			c0.3-0.1,0.5-0.1,0.8-0.2c2.4-0.3,4.7,1.4,6.1,4.9c4,9.5,4.8,20.2,2.3,30.2l-3-0.8c2.3-9.4,1.6-19.4-2.2-28.2
			c-0.7-1.5-1.7-3.1-2.8-3c-0.2,0-0.3,0.1-0.4,0.1c-0.6,0.1-1.3,0.3-2.2,0.1c-0.5-0.1-0.8-0.4-1.1-0.5c-2.6,2.3-2.9,7.2-2,10.8
			l-3,0.8C414.3,819.9,414.1,818.3,414.1,816.6z"/>
		<path d="M645.5,876.8c0-1,0.2-2.1,0.7-3.2c2.6-6.5,11.5-13,17.1-15.6l0,0c1.4-0.7,3.3-1.4,5.4-1.1c2.1,0.3,4.3,1.9,4.5,4.4
			c0.1,0.8-0.1,1.6-0.3,2.3c-0.1,0.4-0.2,0.8-0.2,1.2v0c0,0.8,0.6,1.8,1.2,2.7c1,1.6,2.2,3.6,1.2,5.8c-0.2,0.4-0.4,0.7-0.6,1
			c-0.2,0.2-0.3,0.4-0.3,0.5c-0.1,0.2-0.1,0.6,0,0.9c0,0.2,0,0.5,0,0.7c-0.1,2.7-2,5.4-4.8,6.7c-2.5,1.2-5.4,1.3-7.6,1.2
			c-5.2-0.2-12.6-0.4-15.2-4.4C645.8,879,645.5,877.9,645.5,876.8z M664.6,860.8c-5.9,2.7-13.5,8.9-15.5,14
			c-0.9,2.2-0.3,3.2-0.1,3.5c1.7,2.6,8.7,2.8,12.4,3c2.2,0.1,4.5,0,6.4-0.9c1.5-0.7,3-2.2,3-4l0-0.5c0-0.6,0-1.4,0.3-2.2
			c0.2-0.5,0.5-0.9,0.8-1.3c0.1-0.2,0.2-0.3,0.3-0.5c0.3-0.6-0.1-1.3-1-2.8c-0.8-1.3-1.7-2.7-1.7-4.4c0,0,0,0,0,0
			c0-0.7,0.2-1.4,0.3-1.9c0.1-0.5,0.2-0.9,0.2-1.3c-0.1-0.8-1-1.4-1.8-1.5C667,859.7,665.7,860.3,664.6,860.8L664.6,860.8z"/>
		<path d="M643.4,879.7l2.5-1.9c5.8,7.7,14.1,13.3,23.4,16c1.6,0.5,3.5,0.6,4.1-0.3c0.1-0.1,0.1-0.3,0.2-0.4
			c0.2-0.5,0.6-1.2,1.3-1.7c0.4-0.3,0.8-0.4,1.1-0.5c-0.1-3.5-3.8-6.8-7.2-8.3l1.3-2.9c4.1,1.9,8.8,6,9.1,10.7
			c0.2,1.6-0.5,2.4-1,2.9c-0.5,0.4-0.9,0.5-1.3,0.6c-0.3,0.1-0.4,0.3-0.4,0.5c-0.1,0.3-0.2,0.5-0.4,0.7c-1.3,2.1-4.1,2.8-7.6,1.8
			C658.5,894,649.6,887.9,643.4,879.7z"/>
	</g>
	<path d="M572.3,163.8c0-1.7,0.5-3.4,1.4-4.7c1.3-1.9,3.2-3.1,5.1-4.2c1.9-1.2,3.7-2.3,4.4-4c0.4-1.1,0.4-2.3,0.4-3.7
		c0-1,0-2,0.1-3.1c0.9-6.8,6.8-12.6,13.6-13.6c5.5-0.8,10.2,1.8,12.5,6.9c2.6,5.7,10.7,30.1,0.1,36.7l0,0c-2.2,1.4-4.8,1.7-7.2,1.9
		c-3.5,0.3-7,0.5-10.5,0.5c-5,0.1-10.3-0.3-14.5-3.1c-2.6-1.7-4.6-4.6-5.2-7.7C572.4,165.1,572.3,164.4,572.3,163.8z M586.7,148.1
		c0,1.3-0.1,2.5-0.6,3.8c-1.1,2.7-3.4,4.2-5.7,5.5c-1.6,1-3.2,2-4.1,3.3c-1,1.5-1,3.2-0.8,4.3c0.4,2.2,1.9,4.4,3.8,5.7
		c3.5,2.3,8.2,2.6,12.7,2.5c3.4,0,6.9-0.2,10.3-0.5c2.2-0.2,4.2-0.4,5.9-1.5c7.5-4.6,2.2-25-1.3-32.7c-1.7-3.8-5.1-5.7-9.2-5.1
		c-4.7,0.7-10.1,4.8-11,11c-0.1,0.8-0.1,1.7-0.1,2.6C586.7,147.5,586.7,147.8,586.7,148.1z"/>
	<path d="M568.6,172.8c0-3.6,1.4-7.1,4.2-9.8l2.2,2.2c-5.1,4.9-3.5,12,0.4,16.7c0.9,1.1,1.8,1.8,2.7,2.2c1.9,0.8,4.3,0.4,6.5-0.3
		c8.6-2.3,18.7-7.1,25.8-12.1l1.8,2.5c-7.4,5.3-17.9,10.2-26.8,12.6c-2.8,0.8-5.8,1.3-8.6,0.1c-1.4-0.6-2.7-1.6-3.9-3.1
		C570.1,180.4,568.6,176.5,568.6,172.8z"/>
	<path d="M589.6,132.3c0-2.5,0.2-5.2,1.2-7.8c1.2-3.1,4.2-6.3,8.1-6.3c0.8,0,1.5,0.1,2.3,0.2c1,0.1,1.8,0.3,2.5,0.1
		c0.3-0.1,0.6-0.3,0.9-0.4c0.5-0.3,1-0.5,1.5-0.6c2.2-0.6,4.7,0.3,7,2.6c4.3,4.3,6.9,10.5,7.3,17.6c0.4,5.5-0.4,11.4-2.6,18.6
		c-0.6,2.2-1.1,3.8-1.4,5.3c-0.9,3.7-1.5,6.2-4.4,11.1l-2.7-1.6c2.6-4.6,3.2-6.8,4.1-10.3c0.4-1.5,0.8-3.2,1.5-5.4
		c2-6.9,2.8-12.4,2.5-17.5c-0.4-6.3-2.7-11.8-6.5-15.6c-0.7-0.7-2.4-2.2-3.9-1.8c-0.3,0.1-0.6,0.3-0.9,0.4c-0.5,0.2-0.9,0.5-1.4,0.6
		c-1.4,0.4-2.7,0.2-3.8,0c-0.6-0.1-1.2-0.2-1.8-0.2c-2.5,0-4.5,2.3-5.3,4.4c-1,2.6-1,5.5-0.9,8.4l-3.1,0
		C589.6,133.5,589.6,132.9,589.6,132.3z"/>
	<g>
		<path d="M593.4,242.5l3.4,3.1c10.9,10,20.4,19.2,27.1,30.7l0,0c3,5.2,9.8,18.7,7.5,31.9c-0.7,3.9-2.2,6.3-4.6,6.9
			c-4,1-9.5-3-17.2-12.7c-2.3-2.9-4.1-5.6-5.4-8.4c-2.7-5.6-3.8-11.7-4.8-17.7L593.4,242.5z M628.7,302.7c0-10.5-5.1-20.6-7.5-24.8
			l0,0c-5.8-9.9-13.8-18.2-23.1-26.8l4.4,24.7c1,5.7,2.1,11.6,4.6,16.9c1.2,2.5,2.8,5.1,5,7.8c9.1,11.4,12.8,11.9,14,11.6
			c1.4-0.4,2-2.6,2.3-4.4C628.6,306,628.7,304.3,628.7,302.7z"/>
		<rect x="621.3" y="292.1" transform="matrix(0.8389 -0.5442 0.5442 0.8389 -64.4051 387.71)" width="3.1" height="21.2"/>
	</g>
	<g>
		<path d="M633.9,257.7c0-3.6,1.3-8.3,2.8-13.2c0.4-1.3,0.7-2.4,1-3.3c2-7.9,4.3-14.6,7-20.6l0,0c6.8-14.7,17.2-25.6,29.2-30.7
			l3.5-1.5l-1.4,3.5c-2.8,6.9-4.1,14.6-5.2,21.9c-0.4,2.5-0.8,5-1.2,7.5c-1.7,9-4.6,20.3-12.7,28.2c-3.2,3.1-7,5.5-10.6,7.8
			c-0.8,0.5-1.5,1-2.3,1.5c-2.2,1.4-4.4,2.9-6.8,3.9l-1.1,0.5l-0.8-1C634.3,261.2,633.9,259.6,633.9,257.7z M647.5,222
			c-2.6,5.8-4.9,12.3-6.8,20c-0.2,0.9-0.6,2.1-1,3.4c-1.2,3.9-3.2,10.6-2.5,13.9c1.7-0.9,3.4-2,5-3c0.8-0.5,1.6-1,2.3-1.5
			c3.5-2.2,7.2-4.5,10.1-7.3c7.5-7.3,10.3-18,11.8-26.6c0.5-2.5,0.8-4.9,1.2-7.4c1-6.3,2-12.8,4.1-19
			C661.8,199.8,653.3,209.4,647.5,222L647.5,222z"/>
		<path d="M634.8,261c0-5.9,2.6-9.9,5.8-14.1c3.4-4.5,7.7-8.2,11.9-11.8l2,2.4c-4.1,3.5-8.3,7.1-11.5,11.3c-3.5,4.7-5.4,8-5.2,12.7
			l-3.1,0.1C634.8,261.3,634.8,261.2,634.8,261z"/>
	</g>
	<g>
		<path d="M544.4,490.8c18.2-10.4,39.1-16,60.5-16.2l0,3.1c-20.8,0.3-41.2,5.7-59,15.8L544.4,490.8z"/>
		<path d="M566.1,481.3c10.2-1.1,21.8,1.8,30.3,7.6l-1.7,2.6c-7.8-5.3-18.9-8-28.2-7L566.1,481.3z"/>
		<path d="M575.6,478.7c5.5-6.3,10.6-15.1,13.4-22.9l0.6-1.7l2.5,1.3l-0.7,1.3l0.5,0.2c-2.9,8.2-8.2,17.4-14,24L575.6,478.7z"/>
		<path d="M577.4,484.1l2.4-2c2.7,3.3,9.4,11.8,12.3,19.9l-2.9,1.1C586.4,495.4,580,487.3,577.4,484.1z"/>
		<path d="M604.9,479.1c-1.6,0-2.9-1.3-2.9-2.9c0-1.6,1.3-2.9,2.9-2.9c1.6,0,2.9,1.3,2.9,2.9C607.8,477.8,606.5,479.1,604.9,479.1z"
			/>
		<path d="M590.6,505.5c-1.6,0-2.9-1.3-2.9-2.9c0-1.6,1.3-2.9,2.9-2.9c1.6,0,2.9,1.3,2.9,2.9C593.5,504.2,592.2,505.5,590.6,505.5z"
			/>
		<path d="M591.4,459.2c-2.4,0-4.4-2-4.4-4.4c0-2.4,1.9-4.4,4.4-4.4c2.4,0,4.4,1.9,4.4,4.4C595.7,457.2,593.8,459.2,591.4,459.2z"/>
		<path d="M596.7,495.1c-2.4,0-4.4-2-4.4-4.4c0-2.4,1.9-4.4,4.4-4.4c2.4,0,4.4,1.9,4.4,4.4C601,493.1,599.1,495.1,596.7,495.1z"/>
	</g>
	<g>
		<g>
			<path d="M697.3,253.9c-2.8,0.6-5.5-1.1-6.2-3.9c-0.6-2.8,1.1-5.5,3.9-6.2c2.8-0.6,5.5,1.1,6.2,3.9
				C701.8,250.5,700.1,253.3,697.3,253.9z"/>
		</g>
		<path d="M628.5,314.6c18.7-17,41.5-29.1,66.1-35l0.7,3c-24.1,5.8-46.4,17.6-64.7,34.3L628.5,314.6z"/>
		<path d="M651.5,297.4c11.4-3.9,25.5-3.6,36.8,0.8l-1.1,2.9c-10.6-4.1-23.9-4.4-34.7-0.8L651.5,297.4z"/>
		<path d="M662,291.9c4.7-8.8,8.4-20.3,9.5-30.1l0.2-1.8l2.9,0.8l-0.3,1.4l0.3,0c-1.2,10.2-4.9,22.2-9.8,31.3L662,291.9z"/>
		<path d="M667.2,297.9l1.9-2.5c6.7,5.2,13,11.9,17.5,19.1l-2.6,1.7C679.6,309.4,673.7,302.9,667.2,297.9z"/>
		<path d="M695.8,284.5c-1.8,0.4-3.7-0.7-4.1-2.6c-0.4-1.8,0.7-3.7,2.6-4.1c1.8-0.4,3.7,0.7,4.1,2.6
			C698.8,282.2,697.6,284.1,695.8,284.5z"/>
		<path d="M686.1,318.7c-1.8,0.4-3.7-0.7-4.1-2.6s0.7-3.7,2.6-4.1c1.8-0.4,3.7,0.7,4.1,2.6C689.1,316.5,688,318.3,686.1,318.7z"/>
		<path d="M674.9,265c-2.8,0.6-5.5-1.1-6.2-3.9c-0.6-2.8,1.1-5.5,3.9-6.2c2.8-0.6,5.5,1.1,6.2,3.9
			C679.4,261.6,677.6,264.4,674.9,265z"/>
		<path d="M690.4,305.1c-2.8,0.6-5.5-1.1-6.2-3.9s1.1-5.5,3.9-6.2c2.8-0.6,5.5,1.1,6.2,3.9C694.9,301.7,693.2,304.5,690.4,305.1z"/>
		<path d="M711.5,289.6c-2.8,0.6-5.5-1.1-6.2-3.9s1.1-5.5,3.9-6.2c2.8-0.6,5.5,1.1,6.2,3.9C716,286.2,714.3,289,711.5,289.6z"/>
		<path d="M715.2,271.9c-2.8,0.6-5.5-1.1-6.2-3.9c-0.6-2.8,1.1-5.5,3.9-6.2c2.8-0.6,5.5,1.1,6.2,3.9
			C719.8,268.5,718,271.2,715.2,271.9z"/>
		<path d="M673.3,287c1-7.6,4.3-15.9,8.9-22.9c4.5-6.7,10-12.6,15.2-18l2.3,2.2c-5.1,5.3-10.5,11.1-14.9,17.6
			c-4.4,6.6-7.5,14.4-8.4,21.5L673.3,287z"/>
		<path d="M678.3,271c2.2-2.6,7.3-4.1,11.2-4.9c8.2-1.6,16.5-2.1,24.8-1.2l-0.3,3.1c-8-0.8-16-0.4-23.9,1.2
			c-4.7,0.9-8.2,2.4-9.4,3.8L678.3,271z"/>
		<path d="M690,269l1-3c8.3,2.9,15.2,7.9,20.6,14.8l-2.5,1.9C704.1,276.3,697.7,271.7,690,269z"/>
	</g>
	<path d="M478,359.6l2.8-1.3c28.8,63.6,36.8,136.4,22.5,204.7l-3.1-0.6C514.5,494.7,506.6,422.6,478,359.6z"/>
	<path d="M465.2,885.2c2.2-45.3,18.7-85,53.4-128.8c28.1-35.5,66.7-66.8,114.4-93.1l1.5,2.7c-47.4,26.1-85.6,57.1-113.5,92.3
		c-34.3,43.3-50.6,82.4-52.7,127L465.2,885.2z"/>
	<path d="M520,754.4c2.8-9.1,6.2-20.6,9.4-31.8c3.2-11.1,6.6-22.7,9.4-31.8c5.6-18,11.4-36.7,20.6-53.6c10.3-19,24-33.4,39.4-41.6
		l1.5,2.8c-14.9,7.9-28.1,21.8-38.1,40.3c-9,16.7-14.8,35.1-20.4,53c-2.8,9.1-6.2,20.6-9.4,31.8c-3.2,11.1-6.6,22.7-9.4,31.8
		L520,754.4z"/>
	<path d="M530.6,987.4c0-38.8,13-81.1,38-122c1.4-2.4,2.9-4.7,4.4-7.1c7.8-12.4,15.8-25.3,19.2-39.5l3,0.7
		c-3.5,14.7-11.7,27.8-19.6,40.4c-1.5,2.3-2.9,4.7-4.4,7.1c-31,50.7-43.4,103.6-34.9,149l-3.1,0.6
		C531.5,1007.2,530.6,997.4,530.6,987.4z"/>
	<path d="M541.6,922.9c26.5-20.3,66.5-46.9,107.3-43.8l-0.2,3.1c-39.8-3-79.1,23.2-105.2,43.1L541.6,922.9z"/>
	<g>
		<path d="M589.2,811.5c0-1.4,0.2-2.9,0.5-4.4l0,0c1.4-6.6,6.3-13.3,13-17.4l0.9-0.6l0.9,0.6c1.7,1.2,1.8,3.2,2,4.8
			c0.1,1.4,0.2,2.2,0.7,2.6c0.4,0.3,1.1,0.4,1.9,0.5c0.8,0.1,1.7,0.3,2.5,0.7c1.8,0.8,2.5,2.4,3.1,3.7c0.3,0.7,0.6,1.3,1,1.7
			c0.4,0.4,0.9,0.8,1.5,1.1c1.1,0.7,2.4,1.6,2.9,3.1c1.3,3.4-1.9,7.4-5.4,10c-10.9,8.3-17.3,6.4-20.2,4.6
			C591,820.4,589.2,816.4,589.2,811.5z M592.7,807.6c-1.1,5.5,0.1,10.2,3.3,12.2c3.8,2.4,9.8,0.7,16.7-4.5c3-2.3,4.8-5,4.4-6.4
			c-0.2-0.6-1-1.1-1.8-1.6c-0.7-0.5-1.4-1-2.1-1.6c-0.7-0.8-1.1-1.7-1.5-2.5c-0.5-1.1-0.9-1.8-1.6-2.1c-0.4-0.2-1.1-0.3-1.7-0.4
			c-1-0.2-2.1-0.4-3-1c-1.8-1.2-2-3.3-2.1-4.9c-0.1-0.7-0.1-1.2-0.2-1.7C597.7,796.8,593.8,802.3,592.7,807.6L592.7,807.6z"/>
		<path d="M593.9,822.1l2.5-1.9c3.8,4.8,10.3,8.1,16.6,8.4c3.4,0.2,6.3-0.3,8.8-1.5c0.3-0.2,0.8-0.4,1.1-0.7
			c0.3-0.3,0.4-0.6,0.6-1.1c1.2-2.8,2.4-5.6,1.5-7.2c-0.7-1.2-1.8-1.4-3.8-1.8c-1.6-0.3-3.3-0.6-5-1.7l1.7-2.6
			c1.1,0.8,2.4,1,3.8,1.2c2.1,0.4,4.5,0.8,5.9,3.3c1.8,3.1-0.1,7.3-1.3,10c-0.3,0.7-0.6,1.4-1.3,2c-0.6,0.6-1.5,1.1-2,1.3
			c-2.9,1.4-6.3,2-10.3,1.8C604.1,831.3,597.3,826.5,593.9,822.1z"/>
		<path d="M586.7,800.5c0-7,3.5-14.8,9.8-20.6c2.2-2,4.1-2.9,5.9-2.8c1.4,0.1,2.4,0.9,2.9,1.4l6.4,5.5c0.9,0.8,2.2,1.9,2.4,3.6
			c0.3,2.4-1.5,4.8-3.4,7.1c-0.4,0.5-1,1.4-1.6,2.2c-0.7,1-1.3,2-1.8,2.6l-2.4-2c0.4-0.5,1-1.4,1.6-2.3c0.7-1,1.3-2,1.8-2.6
			c0.9-1.1,2.9-3.3,2.7-4.6c-0.1-0.5-0.6-1-1.4-1.7l-6.4-5.5c-0.5-0.4-0.8-0.6-1.1-0.6c-0.4,0-1.5,0.1-3.6,2
			c-8.3,7.7-11.2,19.5-6.5,26.4l-2.6,1.8C587.6,807.5,586.7,804.1,586.7,800.5z"/>
		<path d="M612.8,791.2l0.8-3c5,1.4,8.7,4.6,10,9l0.2,0.8c0.2,0.9,0.5,1.7,0.9,2.1c0.4,0.3,1,0.5,1.6,0.8c0.4,0.1,0.7,0.3,1.1,0.4
			c2.8,1.2,4.2,3.6,3.8,6.2c-0.5,2.9-3.6,5.8-6.7,6.1l-6.4,1.4l-0.7-3.1l6.6-1.4c2-0.3,3.9-2.2,4.1-3.6c0.3-1.6-1.3-2.5-2-2.8
			c-0.3-0.1-0.6-0.3-0.9-0.4c-0.8-0.3-1.8-0.7-2.6-1.4c-1.2-1-1.6-2.5-1.9-3.7l-0.2-0.7C619.6,794.8,616.7,792.3,612.8,791.2z"/>
		<path d="M610.9,831.5l1-3c2.1,0.7,4.7,0.6,7.5,0.4c1,0,2-0.1,3-0.1c3.4,0,6-0.6,8.2-1.8c2.6-1.4,4.2-3.7,3.9-4.9
			c-0.1-0.2-0.2-0.4-0.3-0.6c-0.3-0.7-0.9-1.7-0.5-3c0.2-0.7,0.5-1.2,0.8-1.7l0.3-0.5c1-1.8-0.3-2.9-0.7-3.3c-1.2-1-3.3-1.4-5.2-1.8
			l0.7-3.1c2.2,0.5,4.6,1,6.4,2.4c2.3,1.8,2.9,4.7,1.5,7.2c-0.1,0.2-0.3,0.5-0.4,0.7c-0.2,0.3-0.4,0.6-0.5,0.8
			c0,0.1,0.1,0.3,0.3,0.8c0.2,0.4,0.4,0.8,0.5,1.2c0.9,3.2-2.1,6.7-5.4,8.5c-2.7,1.4-5.7,2.1-9.7,2.1c-0.9,0-1.9,0-2.9,0.1
			C616.5,832.2,613.5,832.4,610.9,831.5z"/>
	</g>
	<path d="M568.7,710.5c0-1.1,0.3-1.9,0.7-2.5c2.3-3.5,9.3-3.4,13.1-3.4h0.6c14.8,0,29.2,4,43.2,7.8l3.1,0.8l-2.2,2
		c-4.2,3.2-8.5,6.5-13.7,8.4c-7.5,2.8-16.8,2.6-26.1-0.7l-1-0.4c-7.9-2.8-15.5-5.9-17.1-9.6C568.8,712,568.7,711.2,568.7,710.5z
		 M622.7,714.7c-12.9-3.5-26.2-7-39.6-7h-0.6c-2.3,0-9.1,0-10.5,2c-0.1,0.2-0.5,0.7,0.1,2c1.3,3,11.8,6.7,15.2,7.9l1.1,0.4
		c8.6,3.1,17.1,3.3,24,0.8C616.1,719.3,619.5,717.1,622.7,714.7z"/>
	<path d="M569.5,710.6l1.5-2.7c5.7,3.1,11.8,5.4,18.2,6.8l-0.7,3.1C581.9,716.3,575.5,713.9,569.5,710.6z"/>
	<path d="M556.4,707.1c0-2.7,0.3-6.3,1-10.8l1.6-0.1l-1.5-0.2c2.9-19.1,18.8-33,31.6-41.4l9.9-6.4l-7.9,8.8
		c-5.7,6.4-8.2,14.6-10.7,23.4c-2.1,7.1-4.2,14.5-8.4,20.9l-0.3,0.5c-7.8,11.9-10.5,13.7-12.7,12.7
		C557.3,713.8,556.4,711.4,556.4,707.1z M583.7,662.3c-10.5,8.1-20.9,19.6-23.2,34.2l0,0.3c-1.7,11.2-0.8,14-0.4,14.7
		c0.8-0.5,3.1-2.5,8.9-11.4l0.3-0.5c3.9-5.9,6-13.1,8-20C579.1,673.7,580.9,667.7,583.7,662.3z"/>
	<path d="M558.9,710.9c0-1.4,0.5-2.8,0.7-3.5l8.5-21.3l2.9,1.2l-8.5,21.3c-0.5,1.2-0.6,2.5-0.4,3.1l-0.9,3.1c-0.9-0.3-1.6-1-2-1.9
		C559,712.3,558.9,711.6,558.9,710.9z"/>
	<g>
		<ellipse cx="558" cy="789.3" rx="3.5" ry="3.4"/>
		<g>
			<path d="M526.3,750.6c20.6-4.9,40.8,2.4,54.3,9.4l-1.4,2.8c-12.9-6.7-32.5-13.8-52.1-9.1L526.3,750.6z"/>
			<path d="M552,752.9l2.4-2c7.8,9.1,12.6,18.4,16.6,27l0.3,0.6l-2.8,1.3l-0.3-0.5C563.6,769.4,559.1,761.2,552,752.9z"/>
			<path d="M556.2,782.8c0-7.5,0.9-14.9,2.8-22.1l3,0.8c-2.4,9.2-3.2,18.7-2.4,28.2l-3.1,0.2C556.3,787.5,556.2,785.1,556.2,782.8z"
				/>
			<path d="M565.4,754.1c5.8-6.3,14.2-10.9,21.9-12.2l0.5,3.1c-7.1,1.1-14.8,5.4-20.1,11.2L565.4,754.1z"/>
			<path d="M569.4,783.1c-2.3,0-4.1-1.8-4.1-4c0-2.2,1.8-4,4.1-4s4.1,1.8,4.1,4C573.5,781.3,571.7,783.1,569.4,783.1z"/>
			<path d="M580.2,764.5c-1.8,0-3.2-1.4-3.2-3.1c0-1.7,1.4-3.1,3.2-3.1c1.8,0,3.2,1.4,3.2,3.1C583.4,763.1,582,764.5,580.2,764.5z"
				/>
			<path d="M587.6,747.1c-2.3,0-4.2-1.8-4.2-4c0-2.2,1.9-4,4.2-4s4.2,1.8,4.2,4C591.7,745.3,589.9,747.1,587.6,747.1z"/>
		</g>
	</g>
	<path d="M587.7,603c0-0.5,0-1,0.1-1.6c0.6-5.4,4.2-10.6,9.8-13.8c5.6-3.2,11.9-3.8,16.9-1.6c0.8,0.3,1.9,0.9,2.5,2.1
		c0.9,1.9-0.2,3.6-1,4.8c-0.4,0.7-0.9,1.4-0.9,1.9c0,0,0,0,0,0c0,0.7,1,1.4,1.9,1.8l0.8,0.3c1.3,0.5,2.7,1.1,3.7,2.5
		c1.5,2,1.4,4.9-0.3,7.1c-1.4,1.9-3.5,3-5.2,3.7c-6.2,2.7-18.3,5.3-24.4,0.8C589.6,609.7,587.7,607.3,587.7,603z M614,589.6
		c0,0,0-0.1,0-0.1c0-0.1-0.2-0.3-0.9-0.6h0c-4.1-1.8-9.3-1.2-14,1.5c-4.7,2.7-7.8,7-8.2,11.4c-0.3,3.1,0.4,5.3,2.3,6.7
		c4.8,3.5,15.5,1.4,21.3-1.1c1.4-0.6,3-1.4,3.9-2.7c0.7-0.9,1-2.5,0.3-3.4c-0.5-0.6-1.4-1-2.4-1.5l-0.8-0.4
		c-2.4-1.1-3.7-2.8-3.7-4.7c0,0,0,0,0,0c0-1.4,0.8-2.6,1.4-3.6C613.6,590.6,614,589.9,614,589.6z"/>
	<path d="M587.3,606.8l2.8-1.3c3.8,8,13.7,11.1,20.9,11.3c2,0.1,4.7,0,6.7-1.2c1.5-0.9,2.8-3,2.2-4.7c-0.2-0.7-1.4-1.8-2.1-2.1
		l1.2-2.9c1.4,0.6,3.2,2.3,3.8,3.9c1.2,3.4-0.9,6.9-3.5,8.5c-2.7,1.7-5.9,1.8-8.4,1.7C602.4,619.7,591.7,616.1,587.3,606.8z"/>
	<path d="M586.7,600.8c0-5.1,1.7-9.8,3.4-13.3c3.5-7.1,8.9-11.4,14.4-11.3c2.3,0,5.3,0.9,6.6,3.5c1.4,2.9,0.1,6-1.1,8.1l-2.7-1.5
		c1.3-2.4,1.6-4.1,1-5.3c-0.7-1.3-2.5-1.8-3.8-1.8c-6.4,0-10.5,7.3-11.6,9.6c-3,6.2-3.8,12.3-2.3,17.3l-3,0.9
		C586.9,604.9,586.7,602.8,586.7,600.8z"/>
	<path d="M542.7,603.6c0-1.5,0-2.9,0.1-4.4c0.2-5.4,0.9-10.7,2-15.9c0.2-0.9,0.8-2.5,1.5-4.5c0.9-2.4,2.8-7.6,2.6-8.6l2.9-1.1
		c0,0,0,0,0,0c5,11.3,8.2,23.3,9.4,35.9c1.1,11,0.7,22-1.3,32.8c-0.1,0.7-0.2,1.4-0.3,2.1c-0.5,3.3-0.9,6.5-3.2,7.4
		c-1.9,0.7-3.7-0.8-4.3-1.3c-2.6-2.3-4-7.9-5.1-12.4c-0.2-1-0.5-1.9-0.7-2.6C544,622,542.7,612.9,542.7,603.6z M550.9,575.1
		c-0.4,1.3-1,2.9-1.7,4.8c-0.6,1.8-1.3,3.4-1.4,4.1c-1,5-1.7,10.2-1.9,15.4c-0.4,10.4,0.7,20.7,3.5,30.7c0.2,0.7,0.4,1.7,0.7,2.7
		c0.8,3.4,2.2,9.1,4.1,10.7c0.9,0.7,1.2,0.8,1.2,0.8c0.5-0.4,0.9-3.4,1.1-4.8c0.1-0.8,0.2-1.5,0.3-2.2c1.9-10.5,2.3-21.3,1.2-32
		C557.1,594.8,554.7,584.7,550.9,575.1z"/>
	<path d="M551.9,618.3l3.1-0.2c0.3,4.3,0.6,9.2,1,14.1c0.4,4.9,0.7,9.9,1,14.2l-3.1,0.2c-0.3-4.3-0.6-9.2-1-14.1
		C552.6,627.6,552.2,622.6,551.9,618.3z"/>
	<path d="M576.8,891.5c0-3.3,0.5-6.8,1.6-9.9v0c1.9-5.3,5.7-9.7,9.6-13.7c4.9-5,10.3-9.8,15.8-14.3l3.8-3l-4,14.4
		c-1,3.6-2.1,7.3-3.5,10.9c-3.5,8.6-11,19.8-20.4,23.1l-1.6,0.6l-0.5-1.6C577,896.1,576.8,893.8,576.8,891.5z M581.3,882.6
		c-1.4,4-1.8,8.9-1.1,12.8c7.2-3.5,13.6-12.6,16.9-20.6c1.4-3.4,2.4-7.1,3.4-10.6l1.4-5c-4.1,3.4-8,7.1-11.7,10.9
		C586,874.4,582.9,878.1,581.3,882.6L581.3,882.6z"/>
	<path d="M578.8,896.3c4.4-5,6.5-11.8,8.3-18.3l3,0.8c-1.9,6.8-4.1,14-9,19.5L578.8,896.3z"/>
	<path d="M589.7,893.9l1.5-1c4.4-2.9,7.7-4.9,13-5.8c5.4-0.9,10.4,0.1,14.9,1.3l0.1,0c7,2.3,13.1,6.5,17.5,9.9
		c5.2,3.9,10.1,8.3,14.7,13l1.4,1.4l-1.7,1c-6.8,4-15,5.8-22.9,5c-7-0.7-14.3-3.6-21-8.2c-5.4-3.7-10.6-8.5-16.4-15.2L589.7,893.9z
		 M618.3,891.4c-4.2-1.1-8.7-2-13.6-1.2c-4.2,0.7-6.9,2.1-10.3,4.4c5.2,5.8,9.8,10.1,14.6,13.3c6.3,4.3,13.1,7,19.6,7.7
		c6.6,0.7,13.3-0.6,19.2-3.6c-4.1-4-8.4-7.8-12.9-11.2C630.6,897.5,624.9,893.5,618.3,891.4z"/>
	<path d="M592.3,894.3l0.1-3.1c9.5,0.3,18.8,3,26.9,7.9l-1.6,2.7C610,897.2,601.2,894.6,592.3,894.3z"/>
	<path d="M534.1,827.4l2.9,2.5c10.2,8.9,22.9,19.9,27,35l0.2,0.8c0.9,3.1,2.1,7.3-1.8,9.7c-3.4,2.1-9.8-0.6-11.7-2
		c-1.8-1.3-3-3.1-4-4.7c-7.1-11.2-11.4-24.2-12.4-37.5L534.1,827.4z M561.1,865.7c-3.5-12.8-13.8-22.7-23.1-30.9
		c1.4,11.4,5.4,22.4,11.6,32.1c0.9,1.4,1.9,2.9,3.2,3.9c1.8,1.4,6.6,2.8,8.1,1.9c1.6-1,1.4-2.8,0.4-6.2L561.1,865.7z"/>
	<path d="M551.7,861.8l2.8-1.4c2.3,4.5,5.3,8.7,8.9,12.3l-2.2,2.2C557.3,871,554.1,866.6,551.7,861.8z"/>
	<path d="M451.2,414.1l4.1-1.2c8.7-2.5,16.8-3.3,24.1-2.4l0,0c3.6,0.5,15.5,2.4,19.3,8.2c0.9,1.3,1.7,2.9,1,4.2
		c-0.7,1.5-2.5,1.6-4.7,1.7l-1,0.1c-4.5,0.3-8.4,0.3-12-0.1c-9.6-1.1-18.4-5-26.9-8.8L451.2,414.1z M496.7,421.4
		c-0.1-0.2-0.3-0.5-0.6-1c-2.5-3.7-10.8-6-17.1-6.8l0,0c-5.7-0.7-11.9-0.3-18.5,1.2c7,3.1,14.3,5.9,21.9,6.8
		c3.4,0.4,7.2,0.4,11.4,0.1l1-0.1C495.5,421.5,496.2,421.5,496.7,421.4z"/>
	<path d="M483.3,420.1l0.2-3.1c5.6,0.4,11,1.8,16.1,4l-1.2,2.9C493.6,421.8,488.5,420.5,483.3,420.1z"/>
	<path d="M502.3,430.8c0-1.8,0.2-3.8,0.4-5.9c1.5-12.8,8.7-24.3,19.1-31l3.2-2l-0.8,3.7c-0.8,3.4-1.2,7-1.7,10.5
		c-0.6,4.6-1.3,9.4-2.6,14c-1.5,5.5-4.5,12.9-9.7,16.6c-2.2,1.5-4,1.9-5.5,1C502.8,436.6,502.3,434,502.3,430.8z M520.4,398.8
		c-7.9,6.3-13.3,16-14.5,26.5c-1,8.2,0.1,9.5,0.5,9.7c0.2,0.1,0.8,0,2.1-0.9c4.7-3.3,7.3-10.7,8.5-14.8c1.2-4.4,1.9-9.1,2.5-13.6
		C519.6,403.4,520,401.1,520.4,398.8z"/>
	<path d="M503.3,436.9c2.1-4.9,4.1-9.8,6-14.7l2.9,1.1c-1.9,4.9-3.9,9.9-6,14.8L503.3,436.9z"/>
	<path d="M460.4,459.8l4.3,0c9.2-0.1,18,1.7,25.6,5.1c4.4,2,15.1,7.5,18.1,14.4c0.3,0.7,1.2,2.8,0.1,4.4c-1.2,1.7-3.7,1.4-6.4,1.2
		l-1.5-0.1c-5-0.4-9-1.4-12.5-3.1c-3.5-1.7-6.5-4.2-9.4-6.6L460.4,459.8z M505.9,481.8c-0.1-0.1-0.1-0.4-0.4-1.2
		c-2.7-6.1-13.3-11.4-16.6-12.9l0,0c-5.9-2.7-12.7-4.3-19.8-4.7l11.5,9.6c2.7,2.3,5.6,4.7,8.7,6.2c3.1,1.5,6.8,2.4,11.3,2.8
		c0.5,0,1.1,0.1,1.6,0.1C503.5,481.9,505.4,482,505.9,481.8z"/>
	<path d="M493,476.3l1.4-2.8c4.7,2.4,9.3,5.1,13.7,8l-1.7,2.6C502.1,481.4,497.6,478.7,493,476.3z"/>
	<path d="M465.3,640.2c0-2.1,1.6-4.7,4.8-8.1c4-4.2,9.4-7.5,15.7-9.7l0,0c9.1-3.2,18.8-3.7,28.2-4.2l0.4,3.1
		c-3.5,0.8-6.1,3.7-8.9,6.8c-0.6,0.7-1.2,1.4-1.8,2c-8.3,8.7-20.7,14.1-32.2,14.1c-1.2,0-4.8,0-5.9-2.6
		C465.4,641.2,465.3,640.7,465.3,640.2z M486.8,625.4c-5.8,2-10.8,5.1-14.4,8.9c-4.5,4.7-3.9,6.1-3.9,6.1c0.1,0.2,0.9,0.7,3.1,0.7
		c10.7,0.1,22.2-5,29.9-13.1c0.6-0.6,1.2-1.3,1.8-1.9c1.3-1.5,2.7-3,4.2-4.3C500.5,622.3,493.4,623.1,486.8,625.4L486.8,625.4z"/>
	<rect x="465.9" y="636.3" transform="matrix(0.9032 -0.4292 0.4292 0.9032 -228.0397 264.5054)" width="13.1" height="3.1"/>
	<path d="M457,582.4c0-0.9,0.1-2.2,0.3-4.2c0.2-2.3,0.7-6.7,0.3-7.6l2.5-1.8c0,0,0,0,0,0l0,0c0,0,0,0,0,0c5.7,7,10.1,15.3,12.7,24.2
		c0.1,0.2,5.3,19,2,24.4c-0.7,1.2-1.7,1.6-2.4,1.7c-6.8,1.3-13.1-22.3-13.4-23.3c-1.1-4.3-1.8-8.6-2.1-13
		C457,582.7,457,582.6,457,582.4z M460.8,574.7c-0.1,1.1-0.2,2.3-0.3,3.8c-0.2,1.7-0.3,3.5-0.3,4.1c0.3,4.2,1,8.4,2,12.4
		c2.5,9.3,7.7,21.4,9.8,21c2.2-3.4-0.6-17-2.1-22.1C467.9,587.1,464.8,580.5,460.8,574.7z"/>
	<path d="M467.7,607.1l3.1-0.5c0.6,3.5,1.6,7,3.1,10.2l-2.9,1.3C469.5,614.6,468.4,610.9,467.7,607.1z"/>
	<path d="M450.5,717.4c0-4.3,4-10.1,4.8-11.2l0,0c1.8-2.2,4.1-3.9,5.9-5.1c9.3-6.3,20.2-10,31.4-10.7l7.2-0.5l-6.4,3.4
		c-2.1,1.1-4,2.7-5.7,4.1c-2.3,2-4.5,4-6.7,6c-3.3,3-6.8,6.2-10.4,9.1l-0.8,0.7c-6.7,5.4-13.3,10.1-16.9,8.5c-1.2-0.6-2-1.6-2.3-2.9
		C450.5,718.3,450.5,717.8,450.5,717.4z M457.7,708.1c-1.5,1.8-4.6,7.3-4.1,9.8c0.1,0.4,0.3,0.6,0.6,0.8c0.7,0.3,3.4,0.2,13.6-8.1
		l0.9-0.7c3.5-2.8,6.9-5.9,10.2-8.9c2.2-2.1,4.5-4.1,6.8-6.1c0.3-0.3,0.7-0.6,1.1-0.9c-8.5,1.4-16.7,4.7-23.8,9.5
		C461.3,704.7,459.3,706.2,457.7,708.1L457.7,708.1z"/>
	<path d="M451,719.1c4.2-4.3,8.7-8.5,13.3-12.5l2,2.4c-4.5,3.9-8.9,8-13.1,12.3L451,719.1z"/>
	<path d="M416.7,667.2l2.7,1c3.5,1.4,6.8,3.2,10.3,5.3c5.8,3.4,11.3,6.8,15.8,11.5c1.9,1.9,9,10.9,7.7,16.6
		c-0.4,1.8-1.7,3.1-3.6,3.8c-7.7,2.7-20.6-11.6-20.7-11.7c-5.5-6.2-9.4-14.4-11.5-23.6L416.7,667.2z M450.2,700.1
		c0-3.7-4.3-10.1-7-12.9l0,0c-4.2-4.4-9.3-7.5-15.1-11c-2.4-1.4-4.7-2.7-7-3.8c2.1,7.5,5.5,14.1,10,19.2
		c3.9,4.4,13.2,12.3,17.4,10.9c1.2-0.4,1.5-1.1,1.6-1.6C450.2,700.6,450.2,700.4,450.2,700.1z"/>
	<path d="M435.8,689.1l2.1-2.3c4.8,4.4,9.4,9.2,13.7,14.2l-2.4,2C445.1,698.1,440.6,693.4,435.8,689.1z"/>
	<path d="M447.7,788c0-7.6,11.6-21.1,13.4-22.7l0,0c4.6-4.1,9.9-7.3,15-10.5l10.5-6.5l-8.6,8.9c-2.5,2.6-3.6,6.2-4.8,10.1
		c-0.4,1.3-0.8,2.6-1.3,3.9c-1.7,4.6-4.2,8.8-7.5,12.6c-8.9,10.2-12,9.4-13,9.2c-2.4-0.6-3.3-2.3-3.6-3.5
		C447.8,788.9,447.7,788.5,447.7,788z M472.1,761.1c-3.1,2-6.1,4.2-8.9,6.6l0,0c-2.9,2.5-13.5,16.2-12.2,21c0.1,0.5,0.4,0.9,1.3,1.2
		c0.6,0.2,3.5-1,9.8-8.2c3.1-3.5,5.4-7.4,6.9-11.6c0.4-1.2,0.8-2.5,1.2-3.7C470.8,764.6,471.3,762.8,472.1,761.1z"/>
	<path d="M448.7,789.2c2.9-2.8,5.7-5.9,8.4-9.1l2.4,2c-2.7,3.3-5.6,6.4-8.6,9.3L448.7,789.2z"/>
	<path d="M412.2,761.4l2.4-1.9c0.9,0.7,6.2,1.5,9.1,1.9c2.3,0.3,4.1,0.6,5.1,0.9c5.8,1.8,10.6,4,14.5,6.5c2,1.3,5.2,4,4.9,6.8
		c-0.2,1.6-1.5,2.9-3.8,3.6c-5.8,2-14.7-2.4-16.4-3.3C422.3,772.9,417,768,412.2,761.4z M445.2,775.1c0-0.6-0.9-2-3.5-3.8
		c-3.7-2.4-8.2-4.4-13.7-6.2c-0.7-0.2-2.7-0.5-4.6-0.8c-2.2-0.3-4-0.6-5.5-0.9c3.6,4.2,7.5,7.5,11.7,9.6c4.5,2.4,10.6,4.2,14,3.1
		C444.7,775.9,445.1,775.4,445.2,775.1C445.2,775.1,445.2,775.1,445.2,775.1z"/>
	<path d="M429.8,770.5l0.9-3c5.3,1.6,11.7,4.4,16.1,6.9l-1.6,2.7C441.1,774.7,434.9,772.1,429.8,770.5z"/>
	<path d="M480.8,820.6c0-0.7,0.2-1.6,0.8-2.6c3.2-5.7,16-7.7,18.5-8.1c7.7-1.1,16.2,0.1,24.4,3.3l5.3,2.1l-5.6,0.9
		c-2,0.3-3.8,1.8-5.6,3.4c-0.6,0.5-1.1,1-1.7,1.5c-5.1,4-12,6.1-19.4,6c-9.4-0.2-14.5-1.6-16.1-4.4
		C481,822.1,480.8,821.4,480.8,820.6z M519.5,814.7c-6.5-2-13-2.6-19.1-1.8l0,0c-5.5,0.8-14.3,3.1-16.2,6.5c-0.6,1-0.3,1.4-0.2,1.5
		c0.3,0.6,2.3,2.6,13.4,2.9c6.7,0.1,12.9-1.7,17.4-5.3c0.5-0.4,1.1-0.9,1.6-1.4C517.5,816.3,518.5,815.5,519.5,814.7z"/>
	<path d="M481.1,820.6c5.8-1.5,11.7-2.3,17.7-2.2l0,3.1c-5.7,0-11.4,0.7-16.9,2.1L481.1,820.6z"/>
	<path d="M470.4,858.6c0-0.3,0-0.5,0.1-0.8c1-5.4,12.5-10.7,15.9-11.6v0c6.8-1.8,13.8-1.5,21.6-0.9l5.6,0.4l-5,2.6
		c-2.2,1.1-4.1,2.8-6.1,4.6c-1,0.9-1.9,1.7-3,2.5c-3.7,2.9-19.8,12.1-27,7C470.8,861.2,470.4,859.7,470.4,858.6z M487.2,849.3
		c-3.4,0.9-13,5.9-13.6,9.1c0,0.2-0.1,0.7,0.8,1.4c4.7,3.3,18.5-3.2,23.2-6.9c1-0.8,1.9-1.6,2.8-2.4c0.9-0.8,1.8-1.6,2.7-2.3
		C497.5,847.9,492.2,848,487.2,849.3L487.2,849.3z"/>
	<path d="M472.8,858.1l1.6-0.5c4.9-1.8,9.9-3.5,12.2-3.5l0,3.1c-2,0-8.4,2.3-11.2,3.3l-1.6,0.6L472.8,858.1z"/>
	<path d="M428.6,841.3l2.5-1.9c0.2,0.2,15.7,20,33,32.5l-1.8,2.5C444.6,861.7,428.8,841.5,428.6,841.3z"/>
	<g>
		<path d="M436.8,960.9c2.3,0.2,4.3-1.5,4.4-3.8c0.2-2.3-1.5-4.3-3.8-4.4c-2.3-0.2-4.3,1.5-4.4,3.8
			C432.9,958.7,434.6,960.7,436.8,960.9z"/>
		<path d="M443,934.7c2.3,0.2,4.3-1.5,4.4-3.8c0.2-2.3-1.5-4.3-3.8-4.4c-2.3-0.2-4.3,1.5-4.4,3.8C439.1,932.6,440.8,934.5,443,934.7
			z"/>
		<path d="M446.8,920.4c2.3,0.2,4.3-1.5,4.4-3.8c0.2-2.3-1.5-4.3-3.8-4.4c-2.3-0.2-4.3,1.5-4.4,3.8
			C442.8,918.2,444.5,920.2,446.8,920.4z"/>
		<path d="M441,949.8c2.3,0.2,4.3-1.5,4.4-3.8c0.2-2.3-1.5-4.3-3.8-4.4c-2.3-0.2-4.3,1.5-4.4,3.8C437,947.7,438.7,949.7,441,949.8z"
			/>
		<path d="M441.1,946.1c17.9-1.6,37-1.4,52.5,0.6l-0.4,3.1c-15.3-2-34.2-2.2-51.8-0.6L441.1,946.1z"/>
		<path d="M443.7,933.3l1.2-2.9c9.1,4,16.4,8.7,23.1,15l-2.1,2.3C459.5,941.7,452.4,937.1,443.7,933.3z"/>
		<path d="M436.3,955.5c5.8-2.2,12.6-6.1,19.1-10l1.6,2.7c-6.6,4-13.6,7.9-19.6,10.2L436.3,955.5z"/>
		<path d="M446.5,919.6l2.6-1.7c3.8,5.7,6.4,12.3,7.5,19.2l-3.1,0.5C452.5,931.2,450,925,446.5,919.6z"/>
	</g>
	<g>
		<path d="M489.4,945.3c0-2.2,0.8-5,1.7-7.8c0.2-0.5,0.3-0.9,0.4-1.2c1.3-4.7,3-8.6,5.1-12l0,0c4.3-6.9,11.2-12.6,20.4-16.9l3.9-1.8
			l-1.8,3.9c-1.6,3.3-2.9,6.7-4.1,10.1c-0.5,1.5-1,3-1.4,4.5c-1,3.4-2.1,6.9-3.6,10.2c-1.9,4.3-4.3,7.7-7.1,10.1
			c-0.8,0.7-8,6.9-11.8,4.5C489.9,948.3,489.4,947,489.4,945.3z M514.4,912.3c-6.7,3.7-11.8,8.4-15.2,13.7l0,0
			c-2,3.1-3.5,6.8-4.7,11.2c-0.1,0.3-0.2,0.7-0.4,1.3c-1.9,6.1-1.7,7.6-1.3,7.9c1,0.6,5.1-1.5,8.1-4.2c2.5-2.2,4.6-5.2,6.3-9
			c1.4-3.1,2.4-6.5,3.4-9.8c0.5-1.5,0.9-3.1,1.4-4.6C512.7,916.6,513.5,914.5,514.4,912.3z"/>
		<path d="M490,947.7c1.1-1.4,1.8-3,2.5-4.8l0.6-1.5c1.7-3.9,4-7.5,6.8-10.7l2.3,2.1c-2.6,3-4.7,6.3-6.3,9.9l-0.6,1.4
			c-0.8,1.9-1.6,3.8-2.9,5.5L490,947.7z"/>
	</g>
	<g>
		<path d="M503.9,682.2c-1.8,1.4-2.1,4-0.7,5.8s4,2.1,5.8,0.7c1.8-1.4,2.1-4,0.7-5.8S505.7,680.8,503.9,682.2z"/>
		<g>
			<path d="M503.9,663.5c-1.5,1.2-1.7,3.3-0.5,4.7c1.2,1.5,3.3,1.7,4.7,0.5c1.5-1.2,1.7-3.3,0.5-4.7
				C507.4,662.6,505.3,662.4,503.9,663.5z"/>
			<path d="M483.8,645.4c-1.5,1.2-1.7,3.3-0.5,4.7c1.2,1.5,3.3,1.7,4.7,0.5c1.5-1.2,1.7-3.3,0.5-4.7
				C487.4,644.5,485.3,644.3,483.8,645.4z"/>
			<path d="M492.9,652.2c-1.5,1.2-1.7,3.3-0.5,4.7c1.2,1.5,3.3,1.7,4.7,0.5c1.5-1.2,1.7-3.3,0.5-4.7
				C496.5,651.2,494.3,651,492.9,652.2z"/>
			<path d="M456.4,674.7l0.7-3.1c15.9,3.5,34.9,0.6,47.4-7l1.6,2.7C493,675.3,473,678.3,456.4,674.7z"/>
			<path d="M476.8,673.1c3.2-1.6,5-3.7,7.4-6.4l1-1.1c3.2-3.6,6.1-7.6,8.5-11.8l2.7,1.6c-2.5,4.4-5.5,8.5-8.9,12.3l-1,1.1
				c-2.5,2.8-4.7,5.3-8.4,7.1L476.8,673.1z"/>
			<path d="M486.2,674.4l0.8-3c4.4,1.2,8.8,4.3,13,7.4c2.6,1.9,5.1,3.6,7.4,4.8l-1.5,2.8c-2.5-1.3-5-3.1-7.7-5.1
				C494.2,678.5,490.1,675.5,486.2,674.4z"/>
			<path d="M483.6,663.3c0-5.2,0.5-10.4,1.4-15.5l3.1,0.5c-1.1,6.5-1.5,13.1-1.2,19.7l-3.1,0.2C483.6,666.5,483.6,664.9,483.6,663.3
				z"/>
		</g>
	</g>
</g>
</svg>
