<svg width="400" height="400" viewBox="0 0 400 400" fill="none" xmlns="http://www.w3.org/2000/svg">
<rect width="400" height="400" fill="#F5F5F5"/>
<g id="Branch 1">
<rect width="400" height="400" fill="white"/>
<g id="Sixth">
<path id="Vector" d="M255 169.645L255.471 168.672L257.789 169.749C258.079 169.923 258.368 169.958 258.658 169.854C259.057 169.749 259.419 169.506 259.6 169.159C259.926 168.568 259.89 167.7 259.491 166.901C259.419 166.762 259.346 166.623 259.274 166.484C259.057 166.136 258.839 165.754 258.767 165.337C258.586 164.677 258.731 164.052 258.839 163.462L258.912 163.079C259.202 161.203 258.767 159.189 257.644 157.591L258.586 157C259.854 158.806 260.361 161.099 260.035 163.253L259.962 163.67C259.854 164.191 259.781 164.677 259.89 165.129C259.962 165.407 260.143 165.72 260.288 165.998C260.361 166.136 260.469 166.31 260.542 166.449C261.121 167.596 261.157 168.811 260.614 169.715C260.288 170.305 259.672 170.757 258.984 170.931C258.369 171.069 257.789 171 257.282 170.722L255 169.645Z" fill="black"/>
<path id="Vector_2" d="M249.733 175.15L250.685 174.585C251.214 175.467 252.061 176.102 252.943 176.772C253.261 177.019 253.578 177.266 253.86 177.513C254.883 178.36 255.765 178.783 256.612 178.854C257.494 178.889 258.481 178.36 258.658 177.513C258.693 177.372 258.693 177.196 258.693 177.055C258.693 176.667 258.728 176.208 259.011 175.785C259.152 175.538 259.363 175.397 259.54 175.256C259.61 175.22 259.681 175.15 259.716 175.114C260.316 174.55 260.316 173.633 260.139 172.998C259.928 172.151 259.363 171.41 258.834 170.67L259.716 170.035C260.281 170.811 260.916 171.657 261.198 172.716C261.551 173.95 261.233 175.22 260.457 175.926C260.386 175.996 260.281 176.067 260.21 176.137C260.104 176.243 259.963 176.314 259.928 176.42C259.822 176.596 259.822 176.843 259.787 177.125C259.787 177.337 259.787 177.513 259.751 177.725C259.504 179.206 257.917 180.053 256.577 179.983C255.483 179.912 254.389 179.418 253.19 178.395C252.908 178.148 252.59 177.901 252.308 177.69C251.32 176.949 250.368 176.208 249.733 175.15Z" fill="black"/>
<path id="Vector_3" d="M208.014 46.2847C208.014 45.4028 208.085 44.4503 208.437 43.5331C208.861 42.4396 209.919 41.3107 211.295 41.3107C211.577 41.3107 211.824 41.346 212.106 41.3813C212.459 41.4165 212.741 41.4871 212.988 41.4165C213.094 41.3813 213.2 41.3107 213.306 41.2754C213.482 41.1696 213.658 41.0991 213.835 41.0638C214.611 40.8521 215.493 41.1696 216.304 41.981C217.821 43.4979 218.738 45.685 218.879 48.1896C219.02 50.1298 218.738 52.2112 217.962 54.7511C217.75 55.5271 217.574 56.0916 217.468 56.6207C217.151 57.9259 216.939 58.8079 215.916 60.5364L214.964 59.972C215.881 58.3493 216.093 57.5732 216.41 56.3385C216.551 55.8094 216.692 55.2096 216.939 54.4336C217.645 51.9995 217.927 50.0593 217.821 48.2602C217.68 46.0378 216.869 44.0976 215.528 42.7571C215.281 42.5101 214.681 41.981 214.152 42.1221C214.046 42.1574 213.941 42.2279 213.835 42.2632C213.658 42.3337 213.517 42.4396 213.341 42.4748C212.847 42.6159 212.388 42.5454 212 42.4748C211.789 42.4396 211.577 42.4043 211.365 42.4043C210.484 42.4043 209.778 43.2156 209.496 43.9565C209.143 44.8736 209.143 45.8967 209.178 46.9197H208.085C208.014 46.708 208.014 46.4964 208.014 46.2847Z" fill="black"/>
<path id="Vector_4" d="M245.923 164.496C245.923 162.768 246.487 160.792 247.546 158.993C249.133 156.347 251.849 154.619 254.636 154.478L255.06 154.442L255.165 154.866C255.412 155.677 255.13 156.488 254.919 157.229C254.707 157.864 254.53 158.464 254.707 158.958C254.813 159.24 255.024 159.487 255.236 159.769C255.448 160.051 255.695 160.334 255.871 160.686C256.224 161.392 256.153 162.168 256.118 162.873C256.083 163.297 256.083 163.685 256.118 164.073C256.153 164.39 256.259 164.708 256.4 165.061C256.612 165.66 256.788 166.295 256.718 166.966C256.541 168.694 254.777 169.647 253.331 169.929C250.438 170.493 248.145 169.788 246.911 168.024C246.24 167.071 245.923 165.837 245.923 164.496ZM248.498 159.557C246.805 162.415 246.523 165.554 247.828 167.389C248.816 168.8 250.65 169.294 253.155 168.835C254.319 168.624 255.553 167.918 255.659 166.86C255.73 166.401 255.553 165.943 255.377 165.413C255.236 165.025 255.13 164.637 255.06 164.214C254.989 163.72 255.024 163.262 255.06 162.803C255.095 162.203 255.13 161.604 254.919 161.145C254.813 160.898 254.636 160.686 254.425 160.439C254.178 160.122 253.86 159.734 253.719 159.275C253.437 158.429 253.719 157.582 253.931 156.841C254.072 156.383 254.213 155.959 254.213 155.571C251.92 155.924 249.803 157.406 248.498 159.557Z" fill="black"/>
<path id="Vector_5" d="M246.24 166.648L247.334 166.542C247.652 169.823 249.098 173.104 251.003 174.938C252.026 175.926 252.943 176.455 253.895 176.561C254.001 176.561 254.178 176.596 254.284 176.561C254.389 176.525 254.53 176.384 254.636 176.243C255.589 175.22 256.435 174.197 256.435 173.068C256.435 173.068 256.435 173.068 256.435 173.033C256.435 172.116 256.047 171.587 255.518 170.952C255.095 170.423 254.636 169.823 254.354 168.941L255.412 168.588C255.659 169.294 256.012 169.752 256.4 170.246C256.965 170.952 257.564 171.693 257.564 172.998V173.033C257.564 174.585 256.506 175.82 255.483 176.949C255.307 177.125 255.06 177.407 254.707 177.548C254.354 177.69 254.037 177.654 253.79 177.619C252.626 177.478 251.461 176.843 250.262 175.714C247.722 173.28 246.523 169.435 246.24 166.648Z" fill="black"/>
<path id="Vector_6" d="M249 158.431C249 153.519 252.275 148.678 256.678 147.219C258.061 146.756 258.788 147.112 259.189 147.504C259.589 147.895 259.698 148.393 259.771 148.749L260.79 152.949C260.935 153.519 261.117 154.231 260.899 154.942C260.571 156.046 259.553 156.651 258.606 157.149C258.388 157.256 258.061 157.505 257.733 157.754C257.333 158.039 256.969 158.324 256.678 158.466L256.132 157.47C256.35 157.363 256.678 157.114 257.005 156.864C257.406 156.58 257.77 156.295 258.061 156.153C258.825 155.761 259.625 155.298 259.807 154.622C259.953 154.195 259.807 153.661 259.698 153.163L258.679 148.963C258.606 148.714 258.534 148.393 258.388 148.251C258.097 147.966 257.406 148.109 257.042 148.251C253.003 149.568 249.837 154.409 250.128 158.929L249 159C249 158.858 249 158.644 249 158.431Z" fill="black"/>
<path id="Vector_7" d="M159.741 118.341L160.067 118.087C160.682 117.581 161.406 117.689 162.021 117.762C162.564 117.834 162.926 117.834 163.143 117.653C163.288 117.545 163.397 117.291 163.542 117.002C163.686 116.712 163.831 116.423 164.048 116.169C164.519 115.626 165.134 115.482 165.677 115.373C165.966 115.301 166.256 115.264 166.473 115.12C166.654 115.011 166.871 114.83 167.052 114.649C167.414 114.323 167.848 113.925 168.428 113.853C169.803 113.636 171.033 115.083 171.685 116.495C173.712 120.802 172.554 123.01 171.685 123.915C170.31 125.362 167.848 125.652 165.315 124.602C162.926 123.625 160.899 121.381 159.958 118.703L159.741 118.341ZM171.649 120.838C171.649 119.752 171.323 118.486 170.635 117.002C170.056 115.771 169.188 114.903 168.572 114.975C168.319 115.011 168.029 115.264 167.776 115.518C167.523 115.735 167.269 115.952 166.98 116.133C166.618 116.314 166.256 116.423 165.894 116.495C165.387 116.604 165.098 116.676 164.881 116.929C164.772 117.074 164.663 117.291 164.555 117.508C164.41 117.834 164.229 118.232 163.903 118.522C163.288 119.065 162.528 118.992 161.913 118.92C161.623 118.884 161.37 118.848 161.153 118.884C162.058 121.055 163.759 122.829 165.677 123.625C167.776 124.494 169.767 124.313 170.816 123.191C171.359 122.575 171.649 121.779 171.649 120.838Z" fill="black"/>
<path id="Vector_8" d="M169.803 114.866C170.201 114.504 170.418 114.07 170.635 113.563C170.961 112.84 171.359 112.043 172.409 111.718C173.712 111.319 175.123 112.297 176.028 112.912C176.245 113.057 176.499 113.238 176.68 113.527C176.86 113.817 176.933 114.106 177.005 114.36C177.259 115.518 177.15 116.785 176.68 118.196C175.702 121.236 173.241 123.299 171.287 124.204L170.816 123.191C173.024 122.177 174.906 120.078 175.63 117.834C176.028 116.604 176.1 115.554 175.919 114.613C175.883 114.468 175.847 114.287 175.775 114.179C175.702 114.07 175.594 113.998 175.449 113.889C174.508 113.238 173.531 112.622 172.807 112.84C172.264 112.984 172.047 113.382 171.721 114.07C171.468 114.613 171.178 115.228 170.599 115.735L169.803 114.866Z" fill="black"/>
<path id="Vector_9" d="M155 118.413C155 118.232 155.036 118.015 155.072 117.87C155.253 117.364 155.615 117.11 155.869 116.966L158.547 115.083C158.909 114.83 159.452 114.468 160.103 114.504C161.044 114.577 161.768 115.373 162.42 116.242C162.564 116.423 162.854 116.676 163.107 116.966C163.433 117.291 163.759 117.581 163.903 117.798L162.999 118.486C162.854 118.305 162.564 118.051 162.311 117.762C161.985 117.436 161.659 117.146 161.515 116.929C161.153 116.495 160.501 115.663 159.995 115.626C159.741 115.626 159.488 115.771 159.162 116.024L156.484 117.907C156.267 118.051 156.158 118.16 156.122 118.268C156.013 118.558 156.158 119.065 156.52 119.644C158.619 123.191 162.854 125.073 165.966 123.878L166.365 124.928C162.709 126.339 157.968 124.276 155.543 120.223C155.217 119.535 155 118.956 155 118.413Z" fill="black"/>
<path id="Vector_10" d="M160.393 114.685C161.37 113.02 162.962 111.971 164.7 111.79L165.025 111.754C165.424 111.718 165.749 111.718 165.966 111.537C166.111 111.428 166.292 111.211 166.437 110.994C166.509 110.885 166.618 110.74 166.69 110.632C167.414 109.763 168.391 109.401 169.296 109.763C170.346 110.125 171.142 111.464 170.997 112.622L170.925 115.011L169.803 114.975L169.911 112.514C170.02 111.79 169.477 110.994 168.97 110.813C168.319 110.596 167.812 111.102 167.631 111.356C167.559 111.464 167.487 111.537 167.414 111.645C167.233 111.935 166.98 112.224 166.654 112.441C166.147 112.767 165.604 112.803 165.134 112.84L164.844 112.876C163.469 112.984 162.202 113.853 161.406 115.192L160.393 114.685Z" fill="black"/>
<path id="Vector_11" d="M169.513 110.415C169.911 109.691 170.346 108.858 171.033 108.315C171.902 107.664 172.988 107.628 173.82 108.315C173.893 108.388 173.965 108.46 174.037 108.496C174.146 108.605 174.255 108.677 174.327 108.714C174.399 108.75 174.508 108.714 174.725 108.677C174.87 108.641 175.051 108.605 175.232 108.569C176.462 108.496 177.548 109.799 177.91 111.138C178.2 112.188 178.163 113.346 177.801 114.758C177.729 115.083 177.657 115.445 177.548 115.771C177.331 116.821 177.078 117.943 176.499 118.811L175.558 118.196C176.028 117.508 176.209 116.531 176.426 115.518C176.499 115.156 176.571 114.794 176.68 114.432C177.005 113.238 177.041 112.26 176.788 111.392C176.535 110.451 175.811 109.618 175.304 109.655C175.196 109.655 175.123 109.691 175.015 109.727C174.725 109.799 174.291 109.908 173.856 109.691C173.639 109.582 173.458 109.437 173.314 109.293L173.133 109.148C172.626 108.75 172.083 108.895 171.757 109.184C171.251 109.546 170.889 110.234 170.563 110.921L169.513 110.415Z" fill="black"/>
<path id="Vector_12" d="M225.088 190.354C225.088 189.719 225.194 189.084 225.264 188.484L225.3 188.131C225.547 186.262 226.711 184.71 228.51 183.863C230.45 182.981 232.778 183.122 234.542 184.286C237.329 186.085 236.235 188.837 235.353 191.059C234.824 192.4 234.33 193.635 234.542 194.622C234.754 195.539 234.507 196.668 233.554 197.021C233.166 197.162 232.743 197.092 232.355 197.021C229.603 196.386 227.099 194.622 225.547 192.259C225.194 191.73 225.088 191.059 225.088 190.354ZM226.393 188.273L226.323 188.661C226.182 189.648 226.005 190.989 226.428 191.659C227.84 193.811 230.097 195.363 232.567 195.928C232.778 195.963 232.99 196.033 233.131 195.963C233.413 195.857 233.519 195.293 233.413 194.834C233.131 193.529 233.695 192.047 234.295 190.636C235.318 188.061 235.812 186.438 233.907 185.203C232.461 184.251 230.556 184.11 228.933 184.851C227.522 185.556 226.605 186.791 226.393 188.273Z" fill="black"/>
<path id="Vector_13" d="M224.969 187.461C225.392 187.003 225.886 186.368 226.415 185.733C227.72 184.11 229.167 182.276 230.613 181.464C232.906 180.159 235.375 179.877 237.386 180.688C237.633 180.794 237.951 180.935 238.233 181.182C239.044 181.993 238.832 183.193 238.55 184.145C238.162 185.415 237.668 187.179 236.328 188.237L235.658 187.355C236.645 186.579 237.069 185.309 237.492 183.828C237.668 183.157 237.845 182.346 237.457 181.958C237.351 181.852 237.139 181.746 236.998 181.676C235.305 181.006 233.118 181.288 231.142 182.381C229.907 183.087 228.496 184.815 227.262 186.368C226.733 187.038 226.239 187.673 225.78 188.167L224.969 187.461Z" fill="black"/>
<path id="Vector_14" d="M224.828 189.296C224.828 189.119 224.828 188.943 224.828 188.802C224.898 187.426 225.463 186.897 225.957 186.685L226.38 187.708C226.027 187.849 225.957 188.555 225.921 188.837C225.71 192.435 227.685 196.139 230.754 198.009C231.636 198.538 232.342 198.785 232.977 198.714C233.612 198.679 234.317 198.256 234.423 197.586C234.458 197.409 234.458 197.268 234.423 197.127C234.423 196.986 234.423 196.845 234.423 196.739C234.458 196.174 234.635 195.681 234.776 195.187C234.952 194.728 235.058 194.27 235.093 193.846C235.093 193.211 234.74 192.612 234.317 191.906L235.27 191.342C235.693 192.012 236.222 192.858 236.222 193.846V193.881C236.222 194.481 236.046 195.046 235.869 195.539C235.728 195.963 235.587 196.386 235.552 196.774C235.552 196.88 235.552 196.986 235.552 197.092C235.552 197.303 235.552 197.55 235.516 197.762C235.34 198.855 234.282 199.737 233.047 199.808C232.165 199.878 231.213 199.596 230.154 198.926C226.944 196.951 224.828 193.141 224.828 189.296Z" fill="black"/>
<path id="Vector_15" d="M231.297 126.609C231.297 126.468 231.297 126.362 231.332 126.221C231.791 122.694 235.389 118.566 238.317 115.709C238.493 115.532 238.846 115.18 239.34 115.18C239.692 115.18 240.045 115.356 240.257 115.674C240.539 116.097 240.61 116.732 240.398 117.261C240.327 117.473 240.222 117.649 240.08 117.825C239.904 118.108 239.798 118.355 239.763 118.566C239.763 118.954 240.116 119.307 240.539 119.66C240.645 119.766 240.751 119.871 240.857 119.977C241.703 120.824 242.197 122.023 242.232 123.223C242.268 123.858 242.162 124.422 241.915 124.916C241.703 125.339 241.421 125.727 241.174 126.045C240.892 126.433 240.574 126.786 240.222 127.138C238.952 128.444 234.648 129.678 232.531 128.655C231.755 128.232 231.297 127.526 231.297 126.609ZM239.34 116.273C239.34 116.273 239.269 116.309 239.093 116.485C236.8 118.707 232.884 122.976 232.425 126.362C232.355 126.997 232.531 127.385 233.06 127.632C234.683 128.444 238.458 127.385 239.481 126.327C239.798 126.01 240.045 125.657 240.327 125.339C240.539 125.057 240.786 124.74 240.927 124.422C241.068 124.069 241.174 123.681 241.139 123.223C241.104 122.306 240.715 121.388 240.08 120.718C239.975 120.612 239.904 120.542 239.798 120.436C239.304 119.977 238.705 119.378 238.705 118.566V118.531C238.705 118.037 238.952 117.614 239.163 117.261C239.234 117.12 239.34 116.979 239.41 116.802C239.446 116.591 239.375 116.309 239.34 116.273Z" fill="black"/>
<path id="Vector_16" d="M231.297 127.138L232.39 127.033C232.426 127.315 232.531 127.491 232.778 127.809C232.884 127.985 233.025 128.126 233.131 128.338C234.048 129.89 235.142 131.125 236.341 131.971C237.717 132.959 239.304 133.488 240.786 133.488C241.174 133.488 241.421 133.382 241.421 133.312C241.421 133.276 241.421 133.206 241.421 133.135C241.421 132.959 241.421 132.677 241.527 132.43C241.633 132.218 241.774 132.077 241.88 132.007C242.515 131.407 242.656 130.384 242.232 129.572C241.844 128.796 241.068 128.161 240.045 127.844C239.692 127.738 239.34 127.385 239.375 126.962L239.41 126.539L239.939 126.398L240.01 126.927L240.469 127.033C240.469 126.997 240.469 126.821 240.363 126.786C241.668 127.209 242.691 128.02 243.22 129.079C243.855 130.349 243.608 131.901 242.656 132.783C242.55 132.888 242.515 132.924 242.479 132.924C242.479 132.924 242.479 133.03 242.479 133.1C242.479 133.241 242.479 133.418 242.444 133.594C242.268 134.229 241.633 134.617 240.751 134.617C239.022 134.617 237.223 134.017 235.636 132.888C234.295 131.936 233.096 130.595 232.108 128.902C232.002 128.726 231.896 128.62 231.826 128.479C231.649 128.126 231.367 127.738 231.297 127.138Z" fill="black"/>
<path id="Vector_17" d="M230.697 120.365C230.697 120.154 230.697 119.977 230.697 119.766C230.768 116.838 231.473 114.333 232.708 112.322C233.025 111.828 233.484 111.193 234.189 110.946C234.754 110.735 235.353 110.876 235.847 111.229C236.271 111.017 236.659 111.052 236.941 111.123C237.788 111.335 238.387 112.181 238.599 112.816C239.269 114.58 238.669 116.062 237.964 117.508L236.976 117.014C237.717 115.462 238.034 114.439 237.541 113.169C237.364 112.675 236.976 112.252 236.623 112.146C236.518 112.111 236.341 112.111 236.094 112.287L235.636 112.675L235.283 112.216C235.142 112.005 234.86 111.828 234.542 111.934C234.154 112.075 233.837 112.499 233.625 112.851C232.461 114.686 231.861 117.014 231.791 119.73C231.72 122.094 232.037 124.352 232.496 127.103C232.531 127.35 232.567 127.597 232.672 127.738C232.708 127.809 232.778 127.844 232.778 127.844L233.307 128.796C232.778 129.114 232.179 128.937 231.791 128.408C231.508 128.056 231.438 127.632 231.402 127.279C231.085 125.304 230.697 122.835 230.697 120.365Z" fill="black"/>
<path id="Vector_18" d="M231.332 127.95L232.39 127.632C233.096 129.996 234.754 133.382 236.165 135.393C237.576 137.404 239.128 139.132 240.715 138.25C240.751 138.215 240.821 138.145 240.857 138.074C240.962 137.933 241.068 137.757 241.245 137.616C241.527 137.404 241.809 137.333 242.056 137.298C242.197 137.263 242.303 137.227 242.409 137.192C242.656 137.051 242.867 136.698 242.973 136.275C243.185 135.605 243.15 134.864 242.867 134.194L241.774 132.888L242.62 132.183L243.855 133.7C244.243 134.617 244.278 135.64 244.031 136.557C243.89 137.051 243.573 137.757 242.973 138.109C242.726 138.25 242.479 138.321 242.303 138.356C242.127 138.392 242.021 138.427 241.915 138.497C241.88 138.533 241.809 138.603 241.774 138.674C241.668 138.85 241.492 139.097 241.245 139.238C238.564 140.685 236.235 137.439 235.248 136.063C233.801 133.947 232.073 130.419 231.332 127.95Z" fill="black"/>
<path id="Vector_19" d="M197.997 112.079C197.997 111.935 197.997 111.79 198.033 111.609C198.178 110.74 198.902 110.089 199.698 110.053C200.024 110.053 200.277 110.125 200.531 110.197C200.675 110.234 200.82 110.306 200.965 110.306C201.254 110.306 201.616 110.125 201.978 109.908C202.557 109.582 203.317 109.148 204.077 109.618C204.186 109.691 204.331 109.763 204.439 109.872C204.512 109.944 204.584 109.98 204.62 110.016C204.693 110.053 204.838 110.053 204.946 110.053C205.018 110.053 205.127 110.053 205.199 110.053C206.177 110.125 207.118 110.885 207.552 111.935C207.95 112.876 207.914 113.925 207.842 114.685C207.697 116.531 207.443 119.209 205.959 120.078C205.308 120.44 204.548 120.44 203.679 120.042C201.399 118.992 199.191 115.626 198.359 113.563C198.178 113.165 197.997 112.659 197.997 112.079ZM206.756 113.853C206.756 113.346 206.683 112.84 206.502 112.405C206.285 111.862 205.779 111.283 205.127 111.211H204.946C204.729 111.211 204.439 111.211 204.15 111.066C203.969 110.994 203.824 110.849 203.716 110.777C203.643 110.74 203.607 110.668 203.535 110.632C203.317 110.523 203.064 110.632 202.521 110.921C202.051 111.175 201.508 111.5 200.892 111.464C200.639 111.464 200.386 111.392 200.205 111.319C200.024 111.283 199.879 111.211 199.771 111.211C199.517 111.211 199.264 111.5 199.191 111.862C199.119 112.297 199.264 112.803 199.445 113.201C200.313 115.373 202.376 118.232 204.186 119.065C204.982 119.427 205.308 119.209 205.453 119.173C206.43 118.594 206.647 116.097 206.756 114.722C206.72 114.432 206.756 114.142 206.756 113.853Z" fill="black"/>
<path id="Vector_20" d="M194.776 115.518C194.776 115.047 194.921 114.613 195.174 114.251C195.246 114.179 195.283 114.106 195.355 114.034C195.427 113.962 195.536 113.853 195.536 113.781C195.536 113.744 195.5 113.6 195.464 113.491C195.427 113.31 195.355 113.093 195.355 112.84C195.391 112.007 196.224 111.5 196.947 111.537C197.418 111.537 197.997 111.79 198.866 112.26L198.287 113.238C197.346 112.695 197.02 112.659 196.911 112.659C196.694 112.659 196.477 112.803 196.477 112.912C196.477 112.948 196.513 113.093 196.549 113.201C196.622 113.419 196.694 113.672 196.622 113.998C196.549 114.323 196.368 114.577 196.187 114.758C196.151 114.794 196.115 114.866 196.079 114.903C195.825 115.264 195.898 115.844 196.079 116.242C196.332 116.748 196.803 117.183 197.201 117.545C198.83 118.884 200.784 119.861 202.811 120.368C203.462 120.512 204.258 120.693 204.982 120.476C205.525 120.331 206.068 119.825 206.068 119.246H207.19C207.19 120.404 206.249 121.272 205.272 121.562C204.295 121.852 203.281 121.671 202.485 121.453C200.277 120.911 198.178 119.861 196.441 118.413C195.934 117.979 195.355 117.436 194.993 116.748C194.848 116.314 194.776 115.88 194.776 115.518Z" fill="black"/>
<path id="Vector_21" d="M205.199 120.259C208.095 118.305 210.303 115.409 211.425 112.116C211.606 111.573 211.714 110.849 211.388 110.632C211.352 110.596 211.28 110.559 211.244 110.559C211.063 110.451 210.809 110.342 210.665 110.053C210.592 109.908 210.556 109.763 210.52 109.655C209.253 109.655 207.986 110.921 207.371 112.079L206.358 111.573C207.118 110.125 208.71 108.533 210.375 108.496C210.954 108.496 211.244 108.714 211.388 108.931C211.497 109.112 211.569 109.293 211.606 109.401C211.642 109.51 211.714 109.546 211.787 109.582C211.859 109.618 211.968 109.691 212.04 109.727C212.8 110.234 212.981 111.247 212.51 112.514C211.316 116.025 208.927 119.137 205.851 121.236L205.199 120.259Z" fill="black"/>
<path id="Vector_22" d="M222.887 232.791C222.887 232.439 222.958 232.086 223.099 231.698C223.946 229.405 227.085 227.006 229.026 226.054C229.519 225.807 230.19 225.524 230.931 225.63C231.777 225.736 232.483 226.371 232.553 227.147C232.589 227.465 232.518 227.712 232.447 227.959C232.412 228.1 232.377 228.241 232.377 228.382C232.377 228.664 232.588 228.982 232.835 229.334C233.188 229.899 233.647 230.569 233.294 231.38C233.223 231.521 233.153 231.627 233.082 231.733C233.012 231.804 232.977 231.874 232.977 231.91C232.941 231.98 232.977 232.121 232.977 232.227C232.977 232.298 232.977 232.403 232.977 232.474C232.977 233.462 232.306 234.379 231.319 234.873C230.437 235.296 229.414 235.367 228.638 235.331C226.803 235.296 224.193 235.261 223.24 233.885C223.029 233.568 222.887 233.215 222.887 232.791ZM229.519 227.041C227.473 228.064 224.828 230.252 224.157 232.086C223.875 232.862 224.087 233.215 224.157 233.321C224.792 234.238 227.226 234.273 228.567 234.273C229.343 234.273 230.154 234.238 230.825 233.92C231.354 233.673 231.883 233.109 231.883 232.474V232.298C231.883 232.086 231.848 231.804 231.954 231.521C232.024 231.345 232.13 231.204 232.2 231.063C232.236 230.992 232.271 230.957 232.306 230.886C232.412 230.675 232.271 230.428 231.918 229.934C231.636 229.475 231.283 228.982 231.283 228.382C231.319 228.1 231.354 227.888 231.389 227.676C231.424 227.5 231.495 227.359 231.46 227.218C231.424 226.971 231.142 226.724 230.789 226.689C230.366 226.653 229.872 226.865 229.519 227.041Z" fill="black"/>
<path id="Vector_23" d="M221.618 231.98C221.618 231.521 221.688 231.063 221.759 230.675C222.147 228.488 223.029 226.406 224.299 224.572C224.687 224.043 225.145 223.443 225.815 223.055C226.627 222.597 227.544 222.561 228.214 222.985C228.285 223.02 228.355 223.09 228.461 223.126C228.567 223.196 228.673 223.267 228.708 223.267C228.743 223.267 228.884 223.231 228.955 223.196C229.131 223.126 229.343 223.055 229.59 223.055C230.401 223.055 230.93 223.796 230.966 224.501C230.966 224.925 230.789 225.56 230.401 226.406L229.414 225.913C229.872 224.96 229.907 224.607 229.872 224.537C229.872 224.325 229.696 224.149 229.59 224.149C229.519 224.149 229.414 224.184 229.308 224.219C229.096 224.29 228.849 224.396 228.532 224.36C228.179 224.325 227.967 224.149 227.756 224.008C227.72 223.972 227.65 223.937 227.579 223.902C227.191 223.655 226.662 223.761 226.309 223.972C225.815 224.255 225.463 224.748 225.145 225.172C223.981 226.865 223.17 228.805 222.817 230.816C222.711 231.451 222.605 232.262 222.852 232.933C223.064 233.426 223.558 233.956 224.157 233.92L224.263 235.014C223.134 235.12 222.217 234.238 221.864 233.321C221.653 232.897 221.618 232.439 221.618 231.98Z" fill="black"/>
<path id="Vector_24" d="M222.182 233.885L223.064 233.215C225.18 235.896 228.144 237.836 231.424 238.683C231.989 238.824 232.659 238.859 232.871 238.541C232.906 238.506 232.906 238.436 232.941 238.4C233.012 238.224 233.118 237.977 233.4 237.801C233.541 237.695 233.682 237.66 233.788 237.624C233.717 236.39 232.377 235.261 231.213 234.732L231.636 233.709C233.118 234.344 234.776 235.755 234.917 237.413C234.987 237.977 234.74 238.259 234.564 238.436C234.423 238.577 234.246 238.612 234.105 238.683C234 238.718 233.964 238.788 233.964 238.859C233.929 238.965 233.894 239.035 233.823 239.106C233.4 239.847 232.412 240.094 231.142 239.776C227.615 238.824 224.44 236.742 222.182 233.885Z" fill="black"/>
<path id="Vector_25" d="M139 296.677C139 296.219 139.212 295.76 139.564 295.478C139.882 295.196 140.482 294.949 141.434 294.772L141.646 295.866C140.623 296.077 140.341 296.289 140.27 296.324C140.129 296.465 140.058 296.712 140.129 296.783C140.164 296.818 140.27 296.889 140.341 296.959C140.517 297.065 140.764 297.242 140.905 297.488C141.081 297.771 141.081 298.088 141.081 298.3C141.081 298.37 141.081 298.441 141.081 298.511C141.117 298.97 141.54 299.323 141.928 299.499C142.422 299.711 143.057 299.711 143.586 299.711C145.632 299.605 147.678 299.076 149.512 298.123C150.112 297.806 150.782 297.383 151.17 296.783C151.453 296.324 151.558 295.584 151.17 295.16L151.982 294.419C152.758 295.266 152.617 296.536 152.123 297.347C151.594 298.194 150.747 298.723 150.042 299.076C148.101 300.099 145.879 300.699 143.656 300.804C142.986 300.84 142.21 300.84 141.505 300.522C140.658 300.169 140.094 299.464 139.988 298.653C139.988 298.547 139.988 298.476 139.952 298.37C139.952 298.265 139.952 298.123 139.917 298.088C139.882 298.053 139.776 297.982 139.706 297.912C139.564 297.806 139.353 297.7 139.212 297.488C139.071 297.206 139 296.924 139 296.677Z" fill="black"/>
<path id="Vector_26" d="M146.232 287.682C146.232 286.482 146.549 285.248 147.361 284.507C147.784 284.119 148.137 284.119 148.384 284.154C148.595 284.189 148.736 284.295 148.842 284.366C148.913 284.401 149.019 284.401 149.089 284.366C149.195 284.33 149.265 284.33 149.371 284.295C150.218 284.189 151.029 284.789 151.523 286.024C152.934 289.375 153.216 293.149 152.335 296.677L151.276 296.395C152.088 293.079 151.841 289.551 150.5 286.447C150.253 285.918 149.9 285.353 149.512 285.389C149.442 285.389 149.407 285.424 149.371 285.424C149.16 285.459 148.913 285.53 148.595 285.459C148.419 285.424 148.313 285.318 148.207 285.283C147.29 286.094 147.184 287.823 147.502 289.093L146.443 289.375C146.302 288.846 146.232 288.281 146.232 287.682Z" fill="black"/>
<path id="Vector_27" d="M227.861 308.918C227.861 308.565 227.932 308.177 228.108 307.789C229.026 305.496 232.165 303.203 234.141 302.286C234.635 302.039 235.305 301.792 236.046 301.898C236.786 302.004 237.562 302.568 237.633 303.45C237.668 303.732 237.598 304.015 237.527 304.262C237.492 304.403 237.457 304.544 237.457 304.685C237.457 304.967 237.668 305.32 237.88 305.637C238.233 306.202 238.656 306.907 238.303 307.683C238.233 307.824 238.162 307.93 238.092 308.036C238.021 308.107 237.986 308.177 237.986 308.213C237.951 308.283 237.951 308.424 237.986 308.53C237.986 308.601 237.986 308.706 237.986 308.777C237.951 309.729 237.28 310.682 236.293 311.14C235.411 311.564 234.388 311.599 233.612 311.564C231.777 311.493 229.167 311.423 228.249 310.012C227.967 309.694 227.861 309.306 227.861 308.918ZM234.599 303.274C232.518 304.226 229.837 306.413 229.131 308.213C228.814 308.989 229.026 309.341 229.096 309.447C229.696 310.364 232.165 310.435 233.47 310.506C234.247 310.541 235.058 310.506 235.728 310.188C236.257 309.941 236.786 309.412 236.786 308.777V308.601C236.786 308.389 236.786 308.107 236.892 307.824C236.963 307.648 237.069 307.507 237.174 307.366C237.21 307.295 237.245 307.26 237.28 307.19C237.386 306.978 237.245 306.731 236.928 306.202C236.645 305.743 236.328 305.249 236.328 304.65C236.328 304.403 236.398 304.156 236.434 303.979C236.469 303.803 236.504 303.662 236.504 303.521C236.469 303.239 236.151 303.027 235.869 302.992C235.446 302.886 234.987 303.097 234.599 303.274Z" fill="black"/>
<path id="Vector_28" d="M227.121 309.941L228.003 309.271C230.049 311.987 232.977 313.963 236.257 314.915C236.822 315.091 237.492 315.127 237.704 314.809C237.739 314.774 237.739 314.703 237.774 314.668C237.845 314.492 237.986 314.245 238.233 314.068C238.374 313.963 238.515 313.927 238.621 313.892C238.585 312.657 237.28 311.493 236.081 310.964L236.539 309.941C237.986 310.611 239.644 312.058 239.75 313.716C239.82 314.28 239.573 314.562 239.397 314.739C239.22 314.88 239.079 314.915 238.938 314.95C238.832 314.986 238.797 315.056 238.797 315.127C238.762 315.233 238.727 315.303 238.656 315.374C238.197 316.114 237.21 316.361 235.975 316.009C232.447 314.986 229.308 312.834 227.121 309.941Z" fill="black"/>
<path id="Vector_29" d="M202.872 53.5929C202.872 53.0036 203.047 52.4143 203.362 51.9636C203.816 51.305 204.48 50.889 205.144 50.5077C205.809 50.0917 206.438 49.7104 206.682 49.1211C206.822 48.7398 206.822 48.3238 206.822 47.8385C206.822 47.4919 206.822 47.1452 206.857 46.7639C207.172 44.4067 209.234 42.3961 211.611 42.0495C213.534 41.7721 215.176 42.6734 215.98 44.4413C216.889 46.4172 219.721 54.8755 216.015 57.1634C215.246 57.6487 214.338 57.7527 213.499 57.822C212.275 57.926 211.052 57.9953 209.828 57.9953C208.081 58.03 206.228 57.8913 204.76 56.9207C203.851 56.3314 203.152 55.3261 202.942 54.2515C202.907 54.0435 202.872 53.8009 202.872 53.5929ZM207.906 48.1505C207.906 48.6011 207.871 49.0171 207.696 49.4677C207.312 50.4037 206.508 50.9237 205.704 51.3743C205.144 51.721 204.585 52.0676 204.27 52.5183C203.921 53.0382 203.921 53.6275 203.991 54.0089C204.131 54.7715 204.655 55.5341 205.319 55.9848C206.543 56.782 208.185 56.886 209.758 56.8514C210.947 56.8514 212.17 56.782 213.359 56.6781C214.128 56.6087 214.827 56.5394 215.421 56.1581C218.043 54.5635 216.19 47.4919 214.967 44.8227C214.373 43.5054 213.184 42.8468 211.751 43.0547C210.108 43.2974 208.22 44.7187 207.906 46.8679C207.871 47.1452 207.871 47.4572 207.871 47.7692C207.906 47.9425 207.906 48.0465 207.906 48.1505Z" fill="black"/>
<path id="Vector_30" d="M200.606 60.5717C200.606 59.3017 201.1 58.067 202.088 57.1146L202.864 57.8907C201.065 59.6192 201.629 62.1238 203.005 63.7818C203.322 64.1699 203.64 64.4168 203.957 64.5579C204.628 64.8401 205.474 64.699 206.25 64.4521C209.284 63.6407 212.847 61.9475 215.352 60.1836L215.987 61.0655C213.376 62.9352 209.672 64.6637 206.533 65.5104C205.545 65.7926 204.487 65.969 203.499 65.5457C203.005 65.334 202.546 64.9812 202.123 64.4521C201.135 63.2527 200.606 61.8769 200.606 60.5717Z" fill="black"/>
<path id="Vector_31" d="M209.381 288.339C209.381 287.832 209.453 287.289 209.562 286.746C210.068 284.357 211.842 281.932 214.267 280.449L214.593 280.231L214.918 280.449C215.534 280.883 215.57 281.607 215.642 282.186C215.678 282.693 215.715 282.982 215.895 283.127C216.04 283.235 216.294 283.272 216.583 283.308C216.873 283.344 217.198 283.416 217.488 283.561C218.139 283.851 218.393 284.43 218.61 284.9C218.719 285.154 218.827 285.371 218.972 285.516C219.117 285.66 219.298 285.805 219.515 285.914C219.913 286.167 220.383 286.493 220.564 287.036C221.035 288.266 219.877 289.714 218.61 290.655C214.665 293.659 212.349 292.971 211.299 292.32C210.032 291.56 209.381 290.112 209.381 288.339ZM210.648 286.927C210.249 288.918 210.684 290.619 211.842 291.343C213.217 292.211 215.389 291.596 217.886 289.714C218.972 288.881 219.623 287.904 219.479 287.398C219.406 287.18 219.117 286.999 218.827 286.818C218.574 286.638 218.32 286.457 218.067 286.239C217.814 285.95 217.669 285.624 217.524 285.335C217.343 284.936 217.198 284.683 216.945 284.575C216.8 284.502 216.547 284.466 216.33 284.43C215.968 284.357 215.57 284.285 215.244 284.068C214.593 283.634 214.52 282.873 214.484 282.294C214.448 282.041 214.448 281.86 214.412 281.679C212.457 283.018 211.046 285.009 210.648 286.927Z" fill="black"/>
<path id="Vector_32" d="M211.082 292.175L211.987 291.487C213.362 293.225 215.715 294.419 217.995 294.528C219.225 294.6 220.275 294.419 221.18 293.985C221.288 293.912 221.469 293.84 221.578 293.731C221.686 293.623 221.723 293.514 221.795 293.333C222.229 292.32 222.664 291.306 222.338 290.727C222.084 290.293 221.686 290.221 220.962 290.076C220.383 289.967 219.768 289.859 219.153 289.461L219.768 288.52C220.166 288.809 220.637 288.881 221.143 288.954C221.904 289.099 222.772 289.243 223.279 290.148C223.93 291.27 223.243 292.79 222.808 293.767C222.7 294.021 222.591 294.274 222.338 294.491C222.121 294.709 221.795 294.889 221.614 294.962C220.564 295.469 219.334 295.686 217.886 295.613C214.774 295.505 212.312 293.767 211.082 292.175Z" fill="black"/>
<path id="Vector_33" d="M208.476 284.357C208.476 281.824 209.743 279.001 212.023 276.902C212.819 276.178 213.507 275.852 214.158 275.888C214.665 275.924 215.027 276.214 215.208 276.395L217.524 278.386C217.85 278.675 218.32 279.073 218.393 279.688C218.501 280.557 217.85 281.426 217.162 282.258C217.017 282.439 216.8 282.765 216.583 283.054C216.33 283.416 216.113 283.778 215.932 283.995L215.063 283.272C215.208 283.091 215.425 282.765 215.642 282.439C215.895 282.077 216.113 281.715 216.294 281.498C216.619 281.1 217.343 280.304 217.271 279.833C217.235 279.652 217.054 279.471 216.764 279.218L214.448 277.227C214.267 277.083 214.158 277.01 214.05 277.01C213.905 277.01 213.507 277.046 212.747 277.734C209.743 280.521 208.693 284.792 210.394 287.289L209.453 287.94C208.802 286.891 208.476 285.66 208.476 284.357Z" fill="black"/>
<path id="Vector_34" d="M217.922 280.991L218.212 279.906C220.021 280.412 221.361 281.571 221.831 283.163L221.903 283.453C221.976 283.778 222.084 284.068 222.229 284.213C222.374 284.321 222.591 284.394 222.808 284.502C222.953 284.538 223.062 284.611 223.206 284.647C224.22 285.081 224.727 285.95 224.582 286.891C224.401 287.94 223.279 288.99 222.157 289.099L219.84 289.605L219.587 288.483L221.976 287.977C222.7 287.868 223.387 287.18 223.46 286.674C223.568 286.095 222.989 285.769 222.736 285.66C222.627 285.624 222.519 285.552 222.41 285.516C222.121 285.407 221.759 285.262 221.469 285.009C221.035 284.647 220.89 284.104 220.782 283.67L220.709 283.416C220.383 282.294 219.334 281.39 217.922 280.991Z" fill="black"/>
<path id="Vector_35" d="M217.235 295.577L217.597 294.491C218.357 294.745 219.298 294.709 220.311 294.636C220.673 294.636 221.035 294.6 221.397 294.6C222.627 294.6 223.568 294.383 224.365 293.948C225.306 293.442 225.885 292.609 225.776 292.175C225.74 292.103 225.704 292.03 225.668 291.958C225.559 291.705 225.342 291.343 225.487 290.872C225.559 290.619 225.668 290.438 225.776 290.257L225.885 290.076C226.247 289.424 225.776 289.026 225.631 288.881C225.197 288.52 224.437 288.375 223.749 288.23L224.003 287.108C224.799 287.289 225.668 287.47 226.319 287.977C227.151 288.628 227.369 289.678 226.862 290.583C226.826 290.655 226.753 290.763 226.717 290.836C226.645 290.944 226.572 291.053 226.536 291.125C226.536 291.162 226.572 291.234 226.645 291.415C226.717 291.56 226.79 291.705 226.826 291.849C227.151 293.007 226.066 294.274 224.871 294.926C223.894 295.432 222.808 295.686 221.361 295.686C221.035 295.686 220.673 295.686 220.311 295.722C219.261 295.83 218.176 295.903 217.235 295.577Z" fill="black"/>
<path id="Vector_36" d="M207.472 212.331C207.472 212.155 207.472 211.978 207.507 211.767C207.719 209.862 208.989 208.027 210.964 206.898C212.939 205.77 215.162 205.558 216.926 206.334C217.208 206.44 217.596 206.652 217.808 207.075C218.125 207.745 217.737 208.345 217.455 208.768C217.314 209.015 217.137 209.262 217.137 209.438C217.137 209.685 217.49 209.932 217.808 210.073L218.09 210.179C218.548 210.356 219.042 210.567 219.395 211.061C219.924 211.767 219.889 212.79 219.289 213.566C218.795 214.236 218.055 214.624 217.455 214.871C215.268 215.823 210.999 216.741 208.847 215.153C208.142 214.695 207.472 213.848 207.472 212.331ZM216.749 207.604V207.569C216.749 207.533 216.679 207.463 216.432 207.357C214.986 206.722 213.151 206.934 211.493 207.886C209.835 208.839 208.742 210.356 208.601 211.908C208.495 213.001 208.742 213.777 209.412 214.271C211.105 215.506 214.88 214.765 216.926 213.883C217.42 213.672 217.984 213.389 218.302 212.931C218.548 212.613 218.654 212.049 218.407 211.731C218.231 211.52 217.913 211.379 217.561 211.202L217.279 211.061C216.432 210.673 215.973 210.073 215.973 209.403C215.973 208.909 216.255 208.486 216.467 208.133C216.608 207.957 216.749 207.71 216.749 207.604Z" fill="black"/>
<path id="Vector_37" d="M207.331 213.672L208.318 213.213C209.659 216.035 213.151 217.129 215.691 217.199C216.397 217.235 217.349 217.199 218.055 216.776C218.584 216.458 219.042 215.718 218.831 215.118C218.76 214.871 218.337 214.483 218.09 214.377L218.513 213.354C219.007 213.566 219.642 214.165 219.854 214.73C220.277 215.929 219.536 217.164 218.619 217.728C217.667 218.328 216.538 218.363 215.656 218.328C212.657 218.222 208.883 216.952 207.331 213.672Z" fill="black"/>
<path id="Vector_38" d="M207.119 211.555C207.119 209.756 207.719 208.098 208.318 206.863C209.553 204.359 211.458 202.842 213.398 202.877C214.209 202.877 215.268 203.194 215.726 204.112C216.22 205.135 215.762 206.228 215.338 206.969L214.386 206.44C214.844 205.593 214.95 204.994 214.739 204.57C214.492 204.112 213.857 203.935 213.398 203.935C211.14 203.935 209.694 206.51 209.306 207.322C208.248 209.509 207.966 211.661 208.495 213.425L207.436 213.742C207.189 213.001 207.119 212.261 207.119 211.555Z" fill="black"/>
<path id="Vector_39" d="M140.164 293.82C140.164 293.361 140.341 292.938 140.658 292.62C140.87 292.409 141.152 292.303 141.364 292.197C141.505 292.126 141.646 292.056 141.716 291.985C141.928 291.809 142.069 291.421 142.21 291.033C142.422 290.398 142.704 289.622 143.551 289.445C143.692 289.41 143.833 289.41 143.974 289.41C144.08 289.41 144.15 289.41 144.186 289.375C144.256 289.34 144.362 289.269 144.468 289.163C144.538 289.093 144.609 289.057 144.644 288.987C145.42 288.387 146.549 288.352 147.572 288.846C148.454 289.269 149.089 290.01 149.583 290.68C150.677 292.126 152.229 294.243 151.735 295.83C151.523 296.536 150.923 297.03 150.042 297.277C147.678 298.018 143.903 296.995 141.963 296.042C141.469 295.795 140.834 295.442 140.446 294.807C140.27 294.525 140.164 294.137 140.164 293.82ZM150.712 295.16C150.712 294.067 149.442 292.373 148.736 291.421C148.278 290.786 147.749 290.186 147.078 289.869C146.549 289.622 145.808 289.516 145.314 289.904L145.173 290.01C144.997 290.151 144.785 290.327 144.503 290.433C144.327 290.504 144.115 290.504 143.974 290.504C143.903 290.504 143.833 290.504 143.762 290.504C143.551 290.539 143.41 290.821 143.233 291.386C143.057 291.88 142.88 292.444 142.387 292.832C142.175 293.008 141.963 293.079 141.787 293.185C141.61 293.255 141.469 293.326 141.399 293.396C141.222 293.573 141.222 293.961 141.399 294.243C141.61 294.631 142.069 294.878 142.457 295.054C144.503 296.077 147.89 296.818 149.724 296.219C150.535 295.972 150.641 295.584 150.677 295.478C150.712 295.407 150.712 295.266 150.712 295.16Z" fill="black"/>
</g>
<g id="Fifth">
<path id="Vector_40" d="M199.146 185.944L199.746 185.027C203.38 187.391 206.801 190.072 209.941 193.035L209.165 193.846C206.061 190.918 202.709 188.273 199.146 185.944Z" fill="black"/>
<path id="Vector_41" d="M168.537 223.134L164.363 225.118L164.833 226.106L169.007 224.122L168.537 223.134Z" fill="black"/>
<path id="Vector_42" d="M165.012 213.777L166.106 213.601C166.317 214.836 166.67 216.07 167.199 217.199L166.176 217.658C165.647 216.423 165.259 215.118 165.012 213.777Z" fill="black"/>
<path id="Vector_43" d="M159.249 253.287C160.73 251.77 162.318 250.289 163.94 248.878L164.646 249.724C163.059 251.1 161.506 252.546 160.025 254.063L159.249 253.287Z" fill="black"/>
<path id="Vector_44" d="M153.887 242.704L154.627 241.893C156.321 243.445 157.943 245.138 159.46 246.902L158.614 247.608C157.167 245.879 155.58 244.221 153.887 242.704Z" fill="black"/>
<path id="Vector_45" d="M169.867 289.093C171.913 288.564 173.994 288.281 176.111 288.317V289.41C174.1 289.41 172.089 289.657 170.149 290.151L169.867 289.093Z" fill="black"/>
<path id="Vector_46" d="M197.347 185.45L201.757 185.098L201.863 185.133C212.305 188.026 221.124 195.645 225.463 205.558L225.815 206.369L224.898 206.299C223.487 206.228 222.252 205.593 221.124 205.029C216.291 202.595 211.317 200.09 207.154 196.421C203.344 193.035 200.804 190.636 197.841 186.226L197.347 185.45ZM201.651 186.226L199.323 186.403C202.039 190.283 204.403 192.47 207.895 195.61C211.916 199.208 216.855 201.678 221.618 204.076C222.358 204.464 223.17 204.852 223.981 205.064C219.677 195.928 211.387 188.943 201.651 186.226Z" fill="black"/>
<path id="Vector_47" d="M207.732 148.798C207.732 148.763 207.732 148.692 207.732 148.657C208.014 142.942 221.313 142.554 221.419 142.554C225.97 142.519 230.768 143.612 236.165 145.905L237.646 146.54L236.094 146.964C234.013 147.528 231.896 148.234 229.886 148.904C227.346 149.751 224.7 150.668 222.019 151.267C221.913 151.303 211.824 153.419 208.684 150.774C208.049 150.244 207.732 149.574 207.732 148.798ZM221.455 143.648C218.139 143.683 209.037 144.918 208.861 148.692C208.826 149.221 209.002 149.609 209.39 149.927C211.577 151.761 219.232 150.774 221.772 150.174C224.418 149.574 227.028 148.692 229.533 147.846C231.085 147.317 232.672 146.787 234.26 146.293C229.639 144.494 225.405 143.612 221.455 143.648Z" fill="black"/>
<path id="Vector_48" d="M208.085 148.234C209.637 147.352 211.507 147.352 213.023 147.352H218.35V148.445H213.023C211.577 148.445 209.919 148.445 208.649 149.186L208.085 148.234Z" fill="black"/>
<path id="Vector_49" d="M223.24 170.493C223.24 169.682 223.487 168.694 223.946 167.459C225.992 162.097 229.59 157.441 234.105 154.301C236.151 152.89 237.915 152.114 239.679 151.902L240.984 151.726L240.173 152.784C237.845 155.818 236.01 159.205 234.635 162.768C234.493 163.12 234.388 163.473 234.246 163.826C233.753 165.131 233.259 166.472 232.553 167.706C230.86 170.564 226.415 173.527 224.334 172.504C223.593 172.186 223.24 171.516 223.24 170.493ZM234.705 155.218C230.366 158.217 226.909 162.732 224.934 167.847C224.193 169.823 224.122 171.199 224.757 171.516C226.027 172.116 229.943 169.823 231.53 167.142C232.2 166.013 232.694 164.708 233.153 163.438C233.294 163.085 233.4 162.732 233.541 162.38C234.776 159.169 236.398 156.136 238.374 153.314C237.245 153.666 236.046 154.301 234.705 155.218Z" fill="black"/>
<path id="Vector_50" d="M224.404 171.728C224.545 169.576 225.851 167.777 227.191 166.119C228.179 164.92 229.167 163.72 230.19 162.556L231.036 163.297C230.013 164.461 229.026 165.625 228.073 166.824C226.838 168.341 225.639 169.964 225.533 171.798L224.404 171.728Z" fill="black"/>
<path id="Vector_51" d="M210.773 82.4014L212.004 83.5233C215.949 87.1426 219.387 90.4724 221.812 94.6345C222.898 96.5166 225.359 101.403 224.526 106.18C224.273 107.592 223.73 108.46 222.862 108.677C221.414 109.039 219.423 107.592 216.636 104.081C215.804 103.031 215.153 102.054 214.682 101.041C213.705 99.0139 213.307 96.8061 212.945 94.6345L210.773 82.4014ZM223.549 104.189C223.549 100.389 221.703 96.7337 220.835 95.2136C218.736 91.6305 215.84 88.6265 212.474 85.5139L214.067 94.4536C214.429 96.5166 214.827 98.6519 215.732 100.57C216.166 101.475 216.745 102.416 217.541 103.393C220.835 107.519 222.174 107.7 222.608 107.592C223.115 107.447 223.332 106.651 223.441 105.999C223.513 105.384 223.549 104.769 223.549 104.189Z" fill="black"/>
<path id="Vector_52" d="M219.809 100.662L218.867 101.273L223.043 107.71L223.984 107.099L219.809 100.662Z" fill="black"/>
<path id="Vector_53" d="M225.431 87.9027C225.431 86.5997 225.902 84.8987 226.445 83.1252C226.589 82.6547 226.698 82.2566 226.807 81.9308C227.53 79.0716 228.363 76.6467 229.34 74.4751C231.801 69.1548 235.565 65.2098 239.908 63.3639L241.175 62.821L240.668 64.0878C239.655 66.5851 239.185 69.3719 238.786 72.014C238.642 72.9188 238.497 73.8237 238.352 74.7285C237.737 77.9858 236.687 82.0756 233.756 84.9349C232.597 86.0568 231.222 86.9255 229.919 87.7579C229.63 87.9389 229.376 88.1198 229.087 88.3008C228.29 88.8075 227.494 89.3504 226.626 89.7123L226.227 89.8933L225.938 89.5314C225.576 89.1694 225.431 88.5903 225.431 87.9027ZM230.353 74.9818C229.412 77.081 228.58 79.4335 227.892 82.2204C227.82 82.5461 227.675 82.9804 227.53 83.4509C227.096 84.8625 226.372 87.2874 226.626 88.4817C227.241 88.156 227.856 87.7579 228.435 87.396C228.725 87.215 229.014 87.034 229.268 86.8531C230.534 86.0568 231.874 85.2244 232.923 84.211C235.638 81.5689 236.651 77.6963 237.194 74.5837C237.375 73.6789 237.483 72.8103 237.628 71.9054C237.99 69.6253 238.352 67.2728 239.112 65.0288C235.529 66.947 232.453 70.4215 230.353 74.9818Z" fill="black"/>
<path id="Vector_54" d="M225.757 89.097C225.757 86.9616 226.698 85.5139 227.856 83.9938C229.087 82.3652 230.643 81.026 232.163 79.7231L232.887 80.5917C231.403 81.8585 229.883 83.1614 228.725 84.6815C227.458 86.3826 226.77 87.5769 226.843 89.278L225.721 89.3142C225.757 89.2056 225.757 89.1694 225.757 89.097Z" fill="black"/>
<path id="Vector_55" d="M200.769 250.253C200.769 249.865 200.875 249.583 201.016 249.371C201.827 248.137 204.297 248.172 205.637 248.172H205.849C211.07 248.172 216.15 249.583 221.088 250.924L222.182 251.206L221.406 251.911C219.924 253.04 218.407 254.204 216.573 254.874C213.927 255.862 210.647 255.792 207.366 254.628L207.013 254.486C204.226 253.499 201.545 252.405 200.981 251.1C200.804 250.782 200.769 250.5 200.769 250.253ZM219.818 251.735C215.268 250.5 210.576 249.266 205.849 249.266H205.637C204.826 249.266 202.427 249.266 201.933 249.971C201.898 250.042 201.757 250.218 201.969 250.677C202.427 251.735 206.131 253.04 207.331 253.463L207.719 253.605C210.752 254.698 213.751 254.769 216.185 253.887C217.49 253.358 218.69 252.582 219.818 251.735Z" fill="black"/>
<path id="Vector_56" d="M201.051 250.289L201.58 249.336C203.591 250.43 205.743 251.241 208.001 251.735L207.754 252.828C205.426 252.299 203.168 251.453 201.051 250.289Z" fill="black"/>
<path id="Vector_57" d="M196.43 249.054C196.43 248.101 196.536 246.831 196.783 245.244L197.347 245.209L196.818 245.138C197.841 238.4 203.45 233.497 207.966 230.534L211.458 228.276L208.671 231.38C206.66 233.638 205.778 236.531 204.896 239.635C204.156 242.14 203.415 244.75 201.933 247.008L201.827 247.184C199.076 251.382 198.123 252.017 197.347 251.664C196.748 251.417 196.43 250.571 196.43 249.054ZM206.061 233.25C202.357 236.107 198.688 240.164 197.876 245.315V245.42C197.277 249.371 197.594 250.359 197.735 250.606C198.018 250.43 198.829 249.724 200.875 246.585L200.981 246.408C202.357 244.327 203.097 241.787 203.803 239.353C204.438 237.272 205.073 235.155 206.061 233.25Z" fill="black"/>
<path id="Vector_58" d="M197.312 250.394C197.312 249.901 197.488 249.407 197.559 249.16L200.557 241.646L201.58 242.069L198.582 249.583C198.406 250.006 198.37 250.465 198.441 250.677L198.123 251.77C197.806 251.664 197.559 251.417 197.418 251.1C197.347 250.888 197.312 250.641 197.312 250.394Z" fill="black"/>
<path id="Vector_59" d="M191.597 212.543C191.597 212.014 191.597 211.52 191.632 210.991C191.703 209.086 191.95 207.216 192.338 205.382C192.409 205.064 192.62 204.5 192.867 203.794C193.185 202.948 193.855 201.113 193.784 200.76L194.807 200.372C196.571 204.359 197.7 208.592 198.123 213.037C198.511 216.917 198.37 220.797 197.665 224.607C197.63 224.854 197.594 225.101 197.559 225.348C197.383 226.512 197.241 227.641 196.43 227.959C195.76 228.206 195.125 227.676 194.913 227.5C193.996 226.689 193.502 224.713 193.114 223.126C193.044 222.773 192.938 222.455 192.867 222.209C192.056 219.034 191.597 215.823 191.597 212.543ZM194.49 202.489C194.349 202.948 194.137 203.512 193.89 204.182C193.679 204.817 193.432 205.382 193.396 205.629C193.044 207.392 192.797 209.227 192.726 211.061C192.585 214.73 192.973 218.363 193.961 221.891C194.031 222.138 194.102 222.491 194.208 222.843C194.49 224.043 194.984 226.054 195.654 226.618C195.972 226.865 196.077 226.9 196.077 226.9C196.254 226.759 196.395 225.701 196.465 225.207C196.501 224.925 196.536 224.678 196.571 224.431C197.241 220.727 197.383 216.917 196.995 213.142C196.677 209.438 195.83 205.875 194.49 202.489Z" fill="black"/>
<path id="Vector_60" d="M194.843 217.728L195.936 217.658C196.042 219.175 196.148 220.903 196.289 222.632C196.43 224.36 196.536 226.124 196.642 227.641L195.548 227.712C195.442 226.195 195.337 224.466 195.195 222.738C195.09 221.009 194.949 219.245 194.843 217.728Z" fill="black"/>
<path id="Vector_61" d="M205 317.19C205 316.045 205.179 314.831 205.571 313.755C206.25 311.916 207.607 310.39 209 309.002C210.75 307.267 212.679 305.602 214.643 304.041L216 303L214.571 307.996C214.214 309.245 213.821 310.529 213.321 311.778C212.071 314.761 209.393 318.647 206.036 319.792L205.464 320L205.286 319.445C205.071 318.786 205 317.988 205 317.19ZM206.607 314.102C206.107 315.49 205.964 317.19 206.214 318.543C208.786 317.329 211.071 314.171 212.25 311.396C212.75 310.216 213.107 308.933 213.464 307.718L213.964 305.984C212.5 307.163 211.107 308.447 209.786 309.765C208.286 311.257 207.179 312.541 206.607 314.102Z" fill="black"/>
<path id="Vector_62" d="M205 319.31C206.558 317.586 207.301 315.241 207.938 313L209 313.276C208.327 315.621 207.549 318.103 205.814 320L205 319.31Z" fill="black"/>
<path id="Vector_63" d="M209 318.447L209.571 318.104C211.244 317.112 212.499 316.427 214.515 316.119C216.569 315.811 218.471 316.153 220.182 316.564H220.22C222.883 317.351 225.203 318.789 226.876 319.953C228.854 321.288 230.718 322.794 232.468 324.403L233 324.882L232.353 325.225C229.767 326.594 226.648 327.21 223.643 326.936C220.981 326.697 218.204 325.704 215.656 324.129C213.602 322.863 211.624 321.219 209.418 318.926L209 318.447ZM219.878 317.591C218.281 317.214 216.569 316.906 214.705 317.18C213.108 317.42 212.081 317.899 210.788 318.686C212.765 320.672 214.515 322.144 216.341 323.239C218.737 324.711 221.323 325.635 223.796 325.875C226.306 326.115 228.854 325.67 231.098 324.643C229.539 323.273 227.903 321.973 226.192 320.809C224.556 319.679 222.388 318.31 219.878 317.591Z" fill="black"/>
<path id="Vector_64" d="M210 318.17L210.037 317C213.556 317.113 217 318.132 220 319.981L219.407 321C216.556 319.264 213.296 318.283 210 318.17Z" fill="black"/>
<path id="Vector_65" d="M190 294L191.029 294.923C194.647 298.207 199.153 302.267 200.607 307.84L200.678 308.135C200.997 309.279 201.423 310.829 200.04 311.715C198.833 312.49 196.563 311.494 195.889 310.977C195.25 310.497 194.825 309.833 194.47 309.242C191.951 305.109 190.426 300.311 190.071 295.402L190 294ZM199.578 308.135C198.337 303.411 194.683 299.757 191.384 296.731C191.88 300.938 193.299 304.998 195.499 308.578C195.818 309.095 196.173 309.648 196.634 310.017C197.272 310.534 198.975 311.051 199.507 310.719C200.075 310.35 200.004 309.685 199.649 308.43L199.578 308.135Z" fill="black"/>
<path id="Vector_66" d="M196 306.579L196.957 306C197.744 307.862 198.769 309.6 200 311.09L199.248 312C197.915 310.386 196.821 308.566 196 306.579Z" fill="black"/>
<path id="Vector_67" d="M158.872 144.34L160.47 143.933C163.859 143.087 167.015 142.816 169.859 143.121C171.262 143.29 175.898 143.933 177.379 145.897C177.729 146.337 178.041 146.878 177.768 147.318C177.496 147.826 176.794 147.86 175.937 147.894L175.548 147.928C173.794 148.029 172.275 148.029 170.872 147.894C167.132 147.521 163.703 146.201 160.392 144.915L158.872 144.34ZM176.6 146.811C176.561 146.743 176.483 146.641 176.366 146.472C175.392 145.22 172.158 144.441 169.703 144.17C167.483 143.933 165.067 144.069 162.496 144.576C165.223 145.626 168.067 146.574 171.028 146.878C172.353 147.014 173.833 147.014 175.47 146.912L175.859 146.878C176.132 146.844 176.405 146.844 176.6 146.811Z" fill="black"/>
<path id="Vector_68" d="M177.218 151.585C177.218 150.95 177.288 150.244 177.359 149.504C177.888 144.988 180.428 140.931 184.097 138.568L185.226 137.862L184.943 139.168C184.661 140.367 184.52 141.637 184.344 142.872C184.132 144.494 183.885 146.188 183.426 147.81C182.897 149.751 181.839 152.361 180.005 153.666C179.229 154.195 178.594 154.337 178.064 154.019C177.394 153.631 177.218 152.714 177.218 151.585ZM183.603 140.297C180.816 142.519 178.911 145.941 178.488 149.645C178.135 152.537 178.523 152.996 178.664 153.067C178.735 153.102 178.946 153.067 179.405 152.749C181.063 151.585 181.98 148.975 182.403 147.528C182.827 145.976 183.074 144.318 183.285 142.731C183.321 141.919 183.462 141.108 183.603 140.297Z" fill="black"/>
<path id="Vector_69" d="M177.571 153.737C178.311 152.008 179.017 150.28 179.687 148.551L180.71 148.939C180.04 150.668 179.334 152.432 178.594 154.16L177.571 153.737Z" fill="black"/>
<path id="Vector_70" d="M162.872 161.002H164.464C167.869 160.962 171.126 161.675 173.939 163.021C175.568 163.812 179.528 165.99 180.638 168.721C180.75 168.998 181.083 169.829 180.675 170.463C180.231 171.136 179.306 171.017 178.307 170.938L177.751 170.898C175.901 170.74 174.42 170.344 173.125 169.671C171.829 168.998 170.719 168.008 169.646 167.058L162.872 161.002ZM179.713 169.711C179.676 169.671 179.676 169.552 179.565 169.236C178.566 166.821 174.642 164.723 173.421 164.129C171.237 163.06 168.72 162.427 166.092 162.268L170.349 166.069C171.348 166.979 172.422 167.929 173.569 168.523C174.716 169.117 176.086 169.473 177.751 169.632C177.937 169.632 178.159 169.671 178.344 169.671C178.825 169.75 179.528 169.79 179.713 169.711Z" fill="black"/>
<path id="Vector_71" d="M173.937 167.636L174.431 166.648C176.089 167.495 177.712 168.447 179.264 169.47L178.664 170.387C177.147 169.435 175.56 168.482 173.937 167.636Z" fill="black"/>
<path id="Vector_72" d="M163.872 226.615C163.872 225.888 164.491 224.988 165.73 223.812C167.278 222.358 169.367 221.215 171.805 220.454C175.326 219.346 179.08 219.173 182.717 219L182.872 220.073C181.518 220.35 180.512 221.354 179.428 222.427C179.196 222.669 178.964 222.912 178.732 223.119C175.52 226.131 170.722 228 166.271 228C165.807 228 164.414 228 163.988 227.1C163.911 226.962 163.872 226.788 163.872 226.615ZM172.192 221.492C169.948 222.185 168.013 223.258 166.62 224.573C164.878 226.2 165.111 226.685 165.111 226.685C165.149 226.754 165.459 226.927 166.31 226.927C170.451 226.962 174.901 225.196 177.88 222.392C178.113 222.185 178.345 221.942 178.577 221.735C179.08 221.215 179.622 220.696 180.202 220.246C177.493 220.419 174.746 220.696 172.192 221.492Z" fill="black"/>
<path id="Vector_73" d="M160.909 205.132C160.909 204.792 160.946 204.302 161.02 203.547C161.093 202.679 161.278 201.019 161.13 200.679L162.052 200C164.152 202.641 165.774 205.773 166.732 209.132C166.769 209.207 168.685 216.301 167.469 218.339C167.211 218.792 166.842 218.943 166.584 218.98C164.078 219.471 161.757 210.566 161.646 210.188C161.241 208.566 160.983 206.943 160.872 205.283C160.909 205.245 160.909 205.207 160.909 205.132ZM162.309 202.226C162.273 202.641 162.236 203.094 162.199 203.66C162.125 204.302 162.088 204.981 162.088 205.207C162.199 206.792 162.457 208.377 162.825 209.886C163.747 213.396 165.663 217.962 166.437 217.811C167.248 216.528 166.216 211.396 165.663 209.471C164.926 206.905 163.784 204.415 162.309 202.226Z" fill="black"/>
<path id="Vector_74" d="M159.072 252.687C159.072 251.17 160.483 249.124 160.766 248.736C161.401 247.96 162.212 247.361 162.847 246.937C166.128 244.715 169.973 243.41 173.924 243.163L176.464 242.986L174.206 244.186C173.465 244.574 172.795 245.138 172.195 245.632C171.384 246.338 170.608 247.043 169.832 247.749C168.668 248.807 167.433 249.936 166.163 250.959L165.881 251.206C163.517 253.111 161.189 254.769 159.919 254.204C159.496 253.993 159.213 253.64 159.108 253.181C159.072 253.005 159.072 252.828 159.072 252.687ZM161.612 249.407C161.083 250.042 159.99 251.982 160.166 252.864C160.201 253.005 160.272 253.075 160.378 253.146C160.624 253.252 161.577 253.217 165.175 250.289L165.493 250.042C166.727 249.054 167.927 247.96 169.091 246.902C169.867 246.161 170.678 245.456 171.49 244.75C171.595 244.644 171.737 244.538 171.878 244.433C168.879 244.927 165.987 246.091 163.482 247.784C162.882 248.207 162.177 248.736 161.612 249.407Z" fill="black"/>
<path id="Vector_75" d="M147.149 234.979L148.101 235.331C149.336 235.825 150.5 236.46 151.735 237.201C153.781 238.4 155.721 239.6 157.308 241.258C157.979 241.928 160.483 245.103 160.025 247.114C159.884 247.749 159.425 248.207 158.755 248.454C156.039 249.407 151.488 244.362 151.453 244.327C149.512 242.14 148.137 239.247 147.396 236.002L147.149 234.979ZM158.966 246.585C158.966 245.279 157.45 243.022 156.497 242.034C155.016 240.482 153.216 239.388 151.17 238.153C150.324 237.66 149.512 237.201 148.701 236.813C149.442 239.459 150.641 241.787 152.229 243.586C153.604 245.138 156.885 247.925 158.367 247.431C158.79 247.29 158.896 247.043 158.931 246.867C158.966 246.761 158.966 246.69 158.966 246.585Z" fill="black"/>
<path id="Vector_76" d="M158.085 277.593C158.085 274.912 162.177 270.149 162.812 269.585C164.434 268.138 166.304 267.01 168.103 265.881L171.807 263.588L168.773 266.727C167.891 267.645 167.503 268.915 167.08 270.29C166.939 270.749 166.798 271.208 166.621 271.666C166.022 273.289 165.14 274.77 163.976 276.111C160.836 279.709 159.743 279.427 159.39 279.356C158.543 279.145 158.226 278.545 158.12 278.122C158.12 277.91 158.085 277.769 158.085 277.593ZM166.692 268.103C165.598 268.809 164.54 269.585 163.552 270.431C162.529 271.313 158.79 276.146 159.249 277.84C159.284 278.016 159.39 278.157 159.707 278.263C159.919 278.333 160.942 277.91 163.164 275.37C164.258 274.135 165.069 272.76 165.598 271.278C165.74 270.855 165.881 270.396 166.022 269.973C166.233 269.338 166.41 268.703 166.692 268.103Z" fill="black"/>
<path id="Vector_77" d="M158.437 278.016C159.46 277.028 160.448 275.935 161.401 274.806L162.247 275.511C161.295 276.675 160.272 277.769 159.213 278.792L158.437 278.016Z" fill="black"/>
<path id="Vector_78" d="M145.561 268.209L146.408 267.539C146.726 267.786 148.595 268.068 149.618 268.209C150.43 268.315 151.065 268.421 151.417 268.526C153.463 269.161 155.157 269.938 156.532 270.819C157.238 271.278 158.367 272.231 158.261 273.218C158.19 273.783 157.732 274.241 156.92 274.488C154.874 275.194 151.735 273.642 151.135 273.324C149.124 272.266 147.255 270.537 145.561 268.209ZM157.203 273.042C157.203 272.83 156.885 272.336 155.968 271.701C154.663 270.855 153.075 270.149 151.135 269.514C150.888 269.444 150.183 269.338 149.512 269.232C148.736 269.126 148.101 269.02 147.572 268.915C148.842 270.396 150.218 271.56 151.7 272.301C153.287 273.148 155.439 273.783 156.638 273.395C157.026 273.324 157.167 273.148 157.203 273.042Z" fill="black"/>
<path id="Vector_79" d="M151.77 271.419L152.088 270.361C153.957 270.925 156.215 271.913 157.767 272.795L157.203 273.747C155.756 272.901 153.569 271.984 151.77 271.419Z" fill="black"/>
<path id="Vector_80" d="M169.761 289.093C169.761 288.846 169.832 288.528 170.043 288.176C171.172 286.165 175.688 285.459 176.569 285.318C179.286 284.93 182.284 285.353 185.177 286.482L187.047 287.223L185.071 287.541C184.366 287.646 183.731 288.176 183.096 288.74C182.884 288.916 182.708 289.093 182.496 289.269C180.697 290.68 178.263 291.421 175.652 291.386C172.336 291.315 170.537 290.821 169.973 289.834C169.832 289.622 169.761 289.375 169.761 289.093ZM183.413 287.011C181.12 286.306 178.827 286.094 176.675 286.376C174.735 286.659 171.631 287.47 170.96 288.669C170.749 289.022 170.855 289.163 170.89 289.199C170.996 289.41 171.701 290.116 175.617 290.222C177.98 290.257 180.168 289.622 181.755 288.352C181.931 288.211 182.143 288.034 182.32 287.858C182.708 287.576 183.06 287.294 183.413 287.011Z" fill="black"/>
<path id="Vector_81" d="M166.092 302.498C166.092 302.392 166.092 302.321 166.128 302.216C166.48 300.311 170.537 298.441 171.737 298.123C174.135 297.488 176.605 297.594 179.356 297.806L181.332 297.947L179.568 298.864C178.792 299.252 178.122 299.852 177.416 300.487C177.063 300.804 176.746 301.087 176.358 301.369C175.053 302.392 169.373 305.637 166.833 303.838C166.233 303.415 166.092 302.886 166.092 302.498ZM172.019 299.217C170.819 299.535 167.433 301.298 167.221 302.427C167.221 302.498 167.186 302.674 167.503 302.921C169.161 304.085 174.03 301.792 175.688 300.487C176.04 300.205 176.358 299.923 176.675 299.64C176.993 299.358 177.31 299.076 177.628 298.829C175.652 298.723 173.783 298.758 172.019 299.217Z" fill="black"/>
<path id="Vector_82" d="M166.939 302.321L167.503 302.145C169.232 301.51 170.996 300.91 171.807 300.91V302.004C171.102 302.004 168.844 302.815 167.856 303.168L167.292 303.38L166.939 302.321Z" fill="black"/>
<path id="Vector_83" d="M173.26 336.765C173.26 335.968 173.55 334.955 173.876 333.942C173.948 333.761 173.984 333.616 174.02 333.507C174.491 331.806 175.106 330.395 175.866 329.164C177.422 326.667 179.92 324.604 183.25 323.047L184.661 322.396L184.01 323.808C183.43 325.002 182.96 326.232 182.526 327.463C182.345 328.006 182.164 328.549 182.019 329.092C181.657 330.322 181.259 331.589 180.716 332.783C180.028 334.34 179.16 335.57 178.146 336.439C177.857 336.692 175.251 338.936 173.876 338.067C173.441 337.85 173.26 337.38 173.26 336.765ZM182.309 324.821C179.884 326.16 178.038 327.861 176.807 329.779C176.083 330.901 175.54 332.24 175.106 333.833C175.07 333.942 175.034 334.086 174.961 334.303C174.274 336.511 174.346 337.054 174.491 337.163C174.853 337.38 176.337 336.62 177.422 335.643C178.327 334.846 179.087 333.761 179.703 332.385C180.209 331.263 180.571 330.033 180.933 328.838C181.114 328.295 181.259 327.716 181.44 327.173C181.693 326.377 181.983 325.617 182.309 324.821Z" fill="black"/>
<path id="Vector_84" d="M173.477 337.633C173.876 337.127 174.129 336.547 174.382 335.896L174.599 335.353C175.215 333.942 176.047 332.639 177.061 331.48L177.893 332.24C176.952 333.326 176.192 334.521 175.613 335.824L175.396 336.33C175.106 337.018 174.817 337.706 174.346 338.321L173.477 337.633Z" fill="black"/>
<path id="Vector_85" d="M170.515 147.81L170.586 146.717C172.561 146.858 174.466 147.352 176.265 148.128L175.842 149.151C174.149 148.41 172.35 147.952 170.515 147.81Z" fill="black"/>
</g>
<g id="First">
<path id="Vector_86" d="M157.746 267.797C157.746 249.932 160.965 232.278 167.616 216.288C173.948 201.075 183.04 187.031 191.814 173.446C198.43 163.222 205.257 152.644 210.883 141.641C218.383 126.995 233.807 89.7074 215.411 59.7427L216.366 59.1767C235.045 89.6366 219.444 127.349 211.873 142.137C206.248 153.174 199.385 163.788 192.734 174.012C183.96 187.561 174.904 201.571 168.606 216.677C149.963 261.429 158.489 319.519 189.373 357.939L188.524 358.646C168.465 333.67 157.746 300.38 157.746 267.797Z" fill="black"/>
<path id="Vector_87" d="M187.427 348.352C187.427 334.625 192.026 319.661 200.871 305.191C201.366 304.342 201.897 303.528 202.427 302.679C205.187 298.293 208.017 293.729 209.22 288.705L210.281 288.953C209.043 294.153 206.142 298.788 203.347 303.245C202.816 304.059 202.321 304.908 201.791 305.757C190.824 323.694 186.437 342.408 189.444 358.47L188.347 358.682C187.746 355.356 187.427 351.889 187.427 348.352Z" fill="black"/>
</g>
<g id="Seond">
<path id="Vector_88" d="M151.347 296.395L152.229 295.725C152.299 295.795 157.767 302.78 163.87 307.19L163.235 308.071C156.991 303.591 151.417 296.465 151.347 296.395Z" fill="black"/>
<path id="Vector_89" d="M172.852 205.073C178.441 196.087 188.17 190.639 197.545 185.333L197.97 185.085C216.472 174.649 232.003 168.988 246.826 167.219L246.967 168.316C232.321 170.085 216.897 175.71 198.536 186.075L198.111 186.323C188.842 191.524 179.29 196.936 173.842 205.675L172.852 205.073Z" fill="black"/>
<path id="Vector_90" d="M200.871 159.224C203.524 147.16 205.859 134.424 203.276 122.998L204.373 122.75C207.026 134.389 204.656 147.266 201.967 159.436L200.871 159.224Z" fill="black"/>
<path id="Vector_91" d="M210.918 141.641C213.041 137.785 217.71 134.778 221.956 132.302L231.684 126.571L232.25 127.526L222.522 133.257C218.418 135.663 213.89 138.564 211.908 142.172L210.918 141.641Z" fill="black"/>
<path id="Vector_92" d="M168.819 126.252L169.809 125.792C179.998 148.292 182.828 174.047 177.769 198.21L176.673 197.998C181.732 174.047 178.937 148.54 168.819 126.252Z" fill="black"/>
<path id="Vector_93" d="M164.29 312.196C165.069 296.17 170.906 282.125 183.182 266.63C193.123 254.071 206.779 242.998 223.654 233.693L224.184 234.649C207.416 243.882 193.901 254.849 184.031 267.302C171.897 282.62 166.13 296.453 165.387 312.231L164.29 312.196Z" fill="black"/>
<path id="Vector_94" d="M191.319 325.533C200.694 318.352 214.845 308.941 229.279 310.038L229.208 311.135C215.128 310.073 201.224 319.342 191.991 326.382L191.319 325.533Z" fill="black"/>
</g>
<g id="Third">
<path id="Vector_95" d="M198.723 186.05V184.957L205.002 185.062C211.916 184.851 219.183 184.921 225.604 187.743L225.145 188.766C218.972 186.015 212.093 185.98 205.002 186.191L198.723 186.05Z" fill="black"/>
<path id="Vector_96" d="M183.589 265.74C184.577 262.53 185.777 258.473 186.905 254.522C188.034 250.606 189.234 246.514 190.221 243.304C192.197 236.954 194.243 230.357 197.488 224.396C201.122 217.693 205.955 212.613 211.387 209.721L211.916 210.708C206.66 213.495 202.004 218.399 198.476 224.925C195.301 230.816 193.255 237.307 191.28 243.621C190.292 246.831 189.093 250.888 187.964 254.839C186.835 258.755 185.635 262.847 184.648 266.057L183.589 265.74Z" fill="black"/>
<path id="Vector_97" d="M192.309 172.667C198.748 168.988 206.142 167.007 213.713 166.936V168.033C206.354 168.139 199.137 170.049 192.84 173.623L192.309 172.667Z" fill="black"/>
<path id="Vector_98" d="M222.062 110.332C228.677 104.318 236.743 100.038 245.446 97.9503L245.694 99.0117C237.168 101.064 229.279 105.238 222.805 111.146L222.062 110.332Z" fill="black"/>
<path id="Vector_99" d="M185.906 264.578C193.194 262.844 200.34 265.427 205.116 267.903L204.621 268.894C200.057 266.524 193.123 264.012 186.189 265.675L185.906 264.578Z" fill="black"/>
<path id="Vector_100" d="M155.764 333.741C162.097 333.175 168.854 333.245 174.338 333.953L174.196 335.05C168.783 334.342 162.097 334.271 155.871 334.837L155.764 333.741Z" fill="black"/>
<path id="Vector_101" d="M161.177 237.726L161.425 236.63C167.05 237.868 173.772 236.842 178.194 234.153L178.76 235.109C174.125 237.939 167.05 239 161.177 237.726Z" fill="black"/>
</g>
<g id="Fourth">
<path id="Vector_102" d="M203.347 168.387C205.293 166.158 207.097 163.045 208.088 160.285L208.3 159.684L209.184 160.144L208.937 160.604L209.114 160.674C208.088 163.575 206.213 166.83 204.161 169.165L203.347 168.387Z" fill="black"/>
<path id="Vector_103" d="M203.984 170.297L204.833 169.59C205.788 170.757 208.158 173.764 209.184 176.63L208.158 177.019C207.168 174.295 204.904 171.429 203.984 170.297Z" fill="black"/>
<path id="Vector_104" d="M213.713 168.528C213.147 168.528 212.687 168.068 212.687 167.502C212.687 166.936 213.147 166.476 213.713 166.476C214.279 166.476 214.739 166.936 214.739 167.502C214.739 168.068 214.279 168.528 213.713 168.528Z" fill="black"/>
<path id="Vector_105" d="M208.654 177.868C208.088 177.868 207.628 177.408 207.628 176.842C207.628 176.276 208.088 175.816 208.654 175.816C209.22 175.816 209.68 176.276 209.68 176.842C209.68 177.408 209.22 177.868 208.654 177.868Z" fill="black"/>
<path id="Vector_106" d="M210.812 174.189C209.963 174.189 209.255 173.481 209.255 172.632C209.255 171.783 209.927 171.075 210.812 171.075C211.661 171.075 212.368 171.748 212.368 172.632C212.333 173.481 211.661 174.189 210.812 174.189Z" fill="black"/>
<path id="Vector_107" d="M246.274 88.8583C245.283 89.0706 244.328 88.4692 244.08 87.4786C243.868 86.4881 244.469 85.5329 245.46 85.2852C246.451 85.073 247.406 85.6744 247.653 86.6649C247.866 87.6555 247.264 88.6461 246.274 88.8583Z" fill="black"/>
<path id="Vector_108" d="M230.071 104.248C234.104 102.868 239.092 102.974 243.09 104.531L242.701 105.556C238.951 104.106 234.245 104 230.425 105.273L230.071 104.248Z" fill="black"/>
<path id="Vector_109" d="M233.785 102.302C235.448 99.1886 236.757 95.1201 237.146 91.6532L237.217 91.0164L238.243 91.2994L238.137 91.7947H238.243C237.818 95.4032 236.51 99.6485 234.776 102.868L233.785 102.302Z" fill="black"/>
<path id="Vector_110" d="M235.625 104.424L236.297 103.54C238.668 105.38 240.896 107.75 242.488 110.297L241.569 110.898C240.012 108.493 237.925 106.193 235.625 104.424Z" fill="black"/>
<path id="Vector_111" d="M245.871 99.6838C245.234 99.8253 244.562 99.4362 244.42 98.764C244.279 98.1272 244.668 97.455 245.34 97.3135C245.977 97.172 246.649 97.5612 246.791 98.2334C246.932 98.8701 246.508 99.5423 245.871 99.6838Z" fill="black"/>
<path id="Vector_112" d="M242.311 111.783C241.675 111.924 241.002 111.535 240.861 110.863C240.719 110.191 241.109 109.554 241.781 109.413C242.418 109.271 243.09 109.66 243.231 110.332C243.373 111.005 242.984 111.641 242.311 111.783Z" fill="black"/>
<path id="Vector_113" d="M238.349 92.7852C237.359 92.9975 236.403 92.3961 236.156 91.4055C235.944 90.415 236.545 89.4598 237.535 89.2121C238.526 88.9999 239.481 89.6013 239.729 90.5918C239.941 91.5824 239.304 92.573 238.349 92.7852Z" fill="black"/>
<path id="Vector_114" d="M243.833 106.972C242.842 107.184 241.887 106.582 241.639 105.592C241.392 104.601 242.028 103.646 243.019 103.398C244.01 103.186 244.965 103.788 245.212 104.778C245.425 105.769 244.823 106.759 243.833 106.972Z" fill="black"/>
<path id="Vector_115" d="M251.297 101.488C250.307 101.7 249.352 101.099 249.104 100.108C248.856 99.1178 249.493 98.1626 250.484 97.915C251.474 97.7027 252.429 98.3041 252.677 99.2947C252.889 100.285 252.288 101.276 251.297 101.488Z" fill="black"/>
<path id="Vector_116" d="M252.606 95.2263C251.616 95.4385 250.66 94.8371 250.413 93.8466C250.201 92.856 250.802 91.9008 251.793 91.6532C252.783 91.4409 253.738 92.0423 253.986 93.0329C254.234 94.0235 253.597 94.9786 252.606 95.2263Z" fill="black"/>
<path id="Vector_117" d="M237.783 100.568C238.137 97.8796 239.304 94.9433 240.932 92.4668C242.524 90.0966 244.469 88.0093 246.309 86.0989L247.123 86.8772C245.319 88.7522 243.408 90.8041 241.852 93.1036C240.295 95.4385 239.198 98.198 238.88 100.71L237.783 100.568Z" fill="black"/>
<path id="Vector_118" d="M239.552 94.9079C240.33 93.9881 242.135 93.4574 243.514 93.1744C246.415 92.6084 249.352 92.4315 252.288 92.7499L252.182 93.8466C249.352 93.5636 246.521 93.7051 243.727 94.2711C242.064 94.5895 240.826 95.1202 240.401 95.6154L239.552 94.9079Z" fill="black"/>
<path id="Vector_119" d="M243.691 94.2003L244.045 93.139C246.981 94.165 249.422 95.9338 251.333 98.3749L250.448 99.0471C248.679 96.7829 246.415 95.1555 243.691 94.2003Z" fill="black"/>
<path id="Vector_120" d="M197.121 279.472C197.805 279.472 198.359 278.933 198.359 278.269C198.359 277.605 197.805 277.066 197.121 277.066C196.437 277.066 195.882 277.605 195.882 278.269C195.882 278.933 196.437 279.472 197.121 279.472Z" fill="black"/>
<path id="Vector_121" d="M194.998 265.392L195.847 264.684C198.607 267.903 200.305 271.194 201.72 274.236L201.826 274.448L200.835 274.908L200.729 274.731C199.102 271.229 197.51 268.328 194.998 265.392Z" fill="black"/>
<path id="Vector_122" d="M196.484 275.969C196.484 273.316 196.802 270.698 197.474 268.151L198.536 268.434C197.687 271.689 197.404 275.05 197.687 278.411L196.59 278.481C196.519 277.632 196.484 276.783 196.484 275.969Z" fill="black"/>
<path id="Vector_123" d="M199.739 265.816C201.791 263.587 204.762 261.96 207.486 261.5L207.663 262.597C205.151 262.986 202.427 264.507 200.552 266.559L199.739 265.816Z" fill="black"/>
<path id="Vector_124" d="M201.154 276.076C200.34 276.076 199.703 275.439 199.703 274.66C199.703 273.882 200.34 273.245 201.154 273.245C201.967 273.245 202.604 273.882 202.604 274.66C202.604 275.439 201.967 276.076 201.154 276.076Z" fill="black"/>
<path id="Vector_125" d="M204.974 269.495C204.338 269.495 203.842 269 203.842 268.399C203.842 267.797 204.338 267.302 204.974 267.302C205.611 267.302 206.107 267.797 206.107 268.399C206.107 269 205.611 269.495 204.974 269.495Z" fill="black"/>
<path id="Vector_126" d="M207.592 263.34C206.779 263.34 206.107 262.703 206.107 261.925C206.107 261.146 206.779 260.51 207.592 260.51C208.406 260.51 209.078 261.146 209.078 261.925C209.043 262.703 208.406 263.34 207.592 263.34Z" fill="black"/>
<path id="Vector_127" d="M154.243 338.977C155.057 339.047 155.765 338.446 155.8 337.632C155.871 336.819 155.269 336.111 154.456 336.076C153.642 336.005 152.934 336.606 152.899 337.42C152.864 338.198 153.465 338.906 154.243 338.977Z" fill="black"/>
<path id="Vector_128" d="M156.437 329.708C157.25 329.778 157.958 329.177 157.993 328.363C158.064 327.55 157.463 326.842 156.649 326.807C155.835 326.736 155.128 327.337 155.092 328.151C155.057 328.965 155.658 329.637 156.437 329.708Z" fill="black"/>
<path id="Vector_129" d="M157.781 324.649C158.595 324.72 159.302 324.118 159.338 323.304C159.408 322.491 158.807 321.783 157.993 321.748C157.18 321.677 156.472 322.278 156.437 323.092C156.366 323.87 156.967 324.578 157.781 324.649Z" fill="black"/>
<path id="Vector_130" d="M155.729 335.05C156.543 335.12 157.25 334.519 157.286 333.705C157.356 332.892 156.755 332.184 155.941 332.149C155.128 332.078 154.42 332.679 154.385 333.493C154.314 334.307 154.915 335.014 155.729 335.05Z" fill="black"/>
<path id="Vector_131" d="M156.684 329.212L157.109 328.187C160.328 329.602 162.911 331.264 165.281 333.493L164.538 334.307C162.274 332.184 159.762 330.557 156.684 329.212Z" fill="black"/>
<path id="Vector_132" d="M154.066 337.066C156.118 336.288 158.524 334.908 160.823 333.529L161.39 334.484C159.055 335.899 156.578 337.279 154.456 338.092L154.066 337.066Z" fill="black"/>
<path id="Vector_133" d="M157.675 324.366L158.595 323.764C159.939 325.781 160.859 328.116 161.248 330.557L160.151 330.734C159.798 328.47 158.913 326.276 157.675 324.366Z" fill="black"/>
<path id="Vector_134" d="M177.982 240.38C177.345 240.875 177.239 241.795 177.734 242.432C178.229 243.068 179.149 243.175 179.786 242.679C180.423 242.184 180.529 241.264 180.033 240.627C179.538 239.991 178.618 239.884 177.982 240.38Z" fill="black"/>
<path id="Vector_135" d="M177.982 233.764C177.451 234.189 177.38 234.932 177.805 235.427C178.229 235.958 178.972 236.028 179.467 235.604C179.998 235.179 180.069 234.436 179.644 233.941C179.22 233.446 178.477 233.375 177.982 233.764Z" fill="black"/>
<path id="Vector_136" d="M170.871 227.361C170.34 227.785 170.269 228.528 170.694 229.024C171.118 229.554 171.861 229.625 172.357 229.201C172.887 228.776 172.958 228.033 172.533 227.538C172.144 227.043 171.401 226.972 170.871 227.361Z" fill="black"/>
<path id="Vector_137" d="M174.09 229.767C173.559 230.191 173.489 230.934 173.913 231.429C174.338 231.96 175.081 232.031 175.576 231.606C176.107 231.182 176.177 230.439 175.753 229.943C175.364 229.413 174.585 229.342 174.09 229.767Z" fill="black"/>
<path id="Vector_138" d="M168.267 237.16C169.399 236.594 170.035 235.851 170.884 234.896L171.238 234.507C172.37 233.234 173.396 231.818 174.245 230.333L175.2 230.899C174.316 232.455 173.255 233.906 172.052 235.25L171.698 235.639C170.814 236.63 170.035 237.514 168.726 238.151L168.267 237.16Z" fill="black"/>
<path id="Vector_139" d="M171.72 237.62L172.003 236.559C173.559 236.984 175.116 238.08 176.602 239.177C177.522 239.849 178.406 240.451 179.22 240.875L178.689 241.866C177.805 241.406 176.92 240.769 175.965 240.061C174.55 239.071 173.099 238.009 171.72 237.62Z" fill="black"/>
<path id="Vector_140" d="M170.672 233.693C170.672 231.854 170.849 230.014 171.167 228.21L172.264 228.387C171.875 230.686 171.734 233.021 171.84 235.356L170.743 235.427C170.672 234.826 170.672 234.259 170.672 233.693Z" fill="black"/>
<path id="Vector_141" d="M199.986 169.307C203.595 168.917 207.699 169.943 210.706 171.995L210.104 172.915C207.345 171.04 203.418 170.085 200.128 170.439L199.986 169.307Z" fill="black"/>
<path id="Vector_142" d="M208.937 161.488C208.088 161.488 207.38 160.781 207.38 159.932C207.38 159.083 208.052 158.375 208.937 158.375C209.786 158.375 210.493 159.047 210.493 159.932C210.458 160.781 209.786 161.488 208.937 161.488Z" fill="black"/>
</g>
</g>
</svg>
