<?xml version="1.0" encoding="utf-8"?>
<!-- Generator: Adobe Illustrator 22.0.0, SVG Export Plug-In . SVG Version: 6.00 Build 0)  -->
<svg version="1.1" id="Layer_1" xmlns="http://www.w3.org/2000/svg" xmlns:xlink="http://www.w3.org/1999/xlink" x="0px" y="0px"
	 viewBox="0 0 1133.9 1133.9" style="enable-background:new 0 0 1133.9 1133.9;" xml:space="preserve">
<style type="text/css">
	.st0{fill:#1C1A1A;}
	.st1{fill-rule:evenodd;clip-rule:evenodd;fill:#1C1D1D;}
	.st2{fill:#1C1D1D;}
	.st3{fill:#010101;}
	.st4{fill:#333333;}
</style>
<path d="M742.9,726.6c0.3-4.2-6.1-4.1-6.4,0c-4.8,49.7-21.7,94.8-44,139.1c-8.2,16.4-16.7,32.9-23.6,49.9
	c0.6-54.6-20.5-110-44.6-159.9c0.6-0.2,1.1-0.6,1.6-1.2c58.4-69.4,32.7-160.1,3.2-235.9c-1.6-4.1-7.9-2.6-6.7,1.9
	c12.5,48.2-9.4,92.3-17.6,139.1c-3.6,20.4-4.1,42,2,61.5c-24.8-47.6-54.6-93.7-76.9-142.8c1.3,0,2.5-0.6,2.9-1.9
	c36.4-20.5,58.4-58.7,58.1-100.9c-0.4-58.2-39-119.6-5.9-175c1.7-2.9-2.6-6.4-4.8-3.7c-4.7,5.9-9.1,11.9-13.4,18.1
	c-0.3,0.1-0.5,0.4-0.6,0.8c0,0,0,0.1,0,0.1c-21.5,31.8-36.6,67.4-43.8,105.3c-9.7,51.2,2.2,98.7,4.1,149.6
	c-7-16-13.1-32.3-17.9-49.2c-23.6-82.8-1.5-164.8,57.9-226.2c0.6,0.1,1.2,0.1,2-0.2c45.7-15.5,87.1-27.7,120.4-64.9
	c25.3-28.3,51.2-73.5,44-112.8c-0.6-3.4-5.6-3.7-7.2-0.9c-12,21.5-28.2,40.1-48.7,54c-18,12.1-38.7,19-57.7,29.1
	c-35.7,18.9-50.7,49.2-55.5,88.4c0,0.3,0,0.6,0.1,0.9c0,0,0,0,0,0c-36.8,31.7-61.2,76.8-70.3,124.4c0.8-29.2,0.8-58.5-3.8-87.3
	c-2.7-17-7.2-33.8-14.6-49.4c-9.6-20.3-25.6-37-30-59.5c-0.7-3.9-7.3-3-6.9,0.9c4.6,51.5-12.5,102.5-5.3,153.8
	c4.3,30.8,20.7,70.2,53.8,78.4c0.7,0.9,1.9,1.3,3,1.1c-0.4,43.8,12.3,86.6,30.3,126.7c9.5,21.3,20.4,41.9,31.6,62.4
	c-46.8-51.9-103.3-93.9-166.5-124.4c-3.7-1.8-6.8,3.5-3.2,5.5c44,24.7,46.9,84.2,79.5,119.7c27,29.4,69.6,46,108,31.1
	c12.7,22.6,25.5,45.2,37,68.4c19,38.1,39.2,82,48.3,126.3c-25.3-66.6-107.5-101.1-172.9-123c-3.3-1.1-6.2,3.7-3.5,6
	c58,49.9,86.4,183.4,180.9,175.6c-0.1,1.1-0.1,2.3-0.2,3.4c-3.5,38.5-28.1,80.1-70.8,81.3c-18.5,0.5-36.6-7.7-45.6-24.5
	c-9.2-17.2-6.7-42.8,10.7-54.2c1.4-0.9,0.6-3.5-1.2-2.9c-18.7,6.2-24.9,27.7-21.9,45.7c3.6,21.8,19.4,38,40.7,43.2
	c38,9.3,67.2-12.6,83.5-43c0.7,1.2,2.2,1.9,3.7,1.8c8,6.1,27.4-4.1,33.8-8c20.3-12.4,34.5-33.3,43.9-54.7
	c11.6-26.4,17.4-55.5,17.9-84.3C754.2,794.4,740.5,761,742.9,726.6z M595.8,225.5c15.5-15.9,37-23.9,56.8-33.1
	c30.6-14.2,55.5-34.3,73.7-62.1c0.1,3-0.1,6-0.4,9c-13.3,30.8-42.6,57.4-67.1,78.3c-27.5,23.4-57.7,43.1-87.8,62.9
	C575.7,260.7,581.3,240.4,595.8,225.5z M570.1,283.9c34.3-19.4,67.7-40.8,97.4-66.7c18.8-16.4,42-37.9,55.5-62
	c-7.8,29.5-28.4,58.8-47.5,77.5c-30.8,30.2-67,38.9-105.9,53.1C569.8,285.3,569.9,284.6,570.1,283.9z M486,444.1
	c-68.9-39.9-43-128.5-40.4-198.8c11.7,33.6,18.3,66.1,22.3,101.7c3.6,31.7,6.8,63.6,18.1,93.6C486,441.7,486,442.9,486,444.1z
	 M486.2,431.8c-8-33.2-11.3-67-15.3-101c-3-24.9-6.3-51.4-15.7-75c1.5,2.5,3.1,5,4.7,7.5c10.9,17.9,18,37.4,21.9,58
	C488.4,357.5,487,395,486.2,431.8z M567.3,324.9c0.6-0.9,1.1-1.9,1.7-2.8c-9.2,34,0.3,70.5,7.9,105.1c6.3,28.7,10.8,58.3,0.9,86.7
	c-8.2,23.3-24.3,42.8-44.6,56.5c21.6-30.8,22.5-68.7,22.1-105.1C554.7,417.4,559.9,371.9,567.3,324.9z M527.1,428.9
	c5.5-33.4,17.2-65.2,34.1-94.2c-8.2,36.7-10.4,75.3-10.1,112.5c0.3,39.6,3.3,81.4-18.8,115.7C529.9,517.8,519.6,474.6,527.1,428.9z
	 M446.4,607.7c-12.4-22.4-20.1-47.9-34.9-68c12.9,12.9,25.4,26,36.5,40.4c12.2,15.9,22.1,33.5,34,49.6c13.3,18.1,30.2,34,51.3,39.9
	C496.7,665.5,465.4,642.2,446.4,607.7z M554.1,669.8c0.3-1.6-0.6-3.5-2.7-3.6c-41.7-1.1-62.4-37.1-83.5-67.7
	c-15-21.7-32-42-51.9-59.3C473.8,572.4,524.6,616,566.7,668C562.4,668.9,558.2,669.4,554.1,669.8z M633.6,550
	c21.8,62.1,33.3,133.3-6.3,188.7c10.1-59.4,31.4-127.2,6.3-184.9c0,0-0.1-0.1-0.1-0.1C633.6,552.5,633.6,551.2,633.6,550z
	 M632.8,566.5C646,626.3,629,681.9,622,741.9C590.2,685.6,626.9,626,632.8,566.5z M655.1,905.7c-32.9-60.5-84.2-112.6-145.3-144.8
	C577.7,786.3,651.1,829.1,655.1,905.7z M655.1,919.7c-81.8-2-108.1-105.1-157.1-160.6c66.7,38.3,119.9,90.3,157.2,158
	C655.2,917.9,655.2,918.8,655.1,919.7z M709.3,849.3c13.4-28.4,22.7-57.9,28.5-88.3c-4.3,36.7-9.4,72.2-22.4,107.2
	c-12.5,33.7-30.7,63.2-51.7,91.9C672.4,920.6,692,885.9,709.3,849.3z M718,929c-5.7,9.1-12.3,17.6-20.3,24.8
	c-4.4,4-24.5,19.7-35.2,19c0.6-0.1,1.1-0.4,1.5-0.9c44.5-50,76-123.8,77.7-192.7c0.6,3.2,1.1,6.3,1.6,9.5c4,26.7,3.3,54.2-2.4,80.6
	C736.5,890.1,729.3,910.8,718,929z"/>
</svg>
