<?xml version="1.0" encoding="utf-8"?>
<!-- Generator: Adobe Illustrator 22.0.0, SVG Export Plug-In . SVG Version: 6.00 Build 0)  -->
<svg version="1.1" id="Layer_1" xmlns="http://www.w3.org/2000/svg" xmlns:xlink="http://www.w3.org/1999/xlink" x="0px" y="0px"
	 viewBox="0 0 1133.9 1133.9" style="enable-background:new 0 0 1133.9 1133.9;" xml:space="preserve">
<style type="text/css">
	.st0{fill:#1C1A1A;}
	.st1{fill-rule:evenodd;clip-rule:evenodd;fill:#1C1D1D;}
	.st2{fill:#1C1D1D;}
	.st3{fill:#010101;}
	.st4{fill:#333333;}
</style>
<g>
	<path d="M577.2,431.7c-10.9,0-21.5-4.1-31-12c-15.9-13.2-27.1-35.9-28.1-56.7l0,0c-0.3-7.4,0.5-20.6,10.3-26.1
		c3-1.7,6.4-2.3,9.6-2.9c2.2-0.4,4.4-0.8,6.4-1.5c2.5-0.9,4.8-2.4,7.3-3.9c1.4-0.9,2.9-1.8,4.4-2.6c10.2-5.5,22.2-5.9,32.8-6.2
		c10.5-0.3,25,0.5,30.2,11.5c1.5,3.1,1.8,6.6,2.1,9.6c3.2,31.3,2.5,84.7-37.7,90.3C581.3,431.6,579.3,431.7,577.2,431.7z
		 M521.7,362.9c0.9,19.5,11.9,41.7,26.8,54c10.5,8.7,22.3,12.4,34.3,10.7c37.2-5.2,37.6-56.3,34.6-86.4c-0.3-2.9-0.6-5.9-1.8-8.5
		c-4.2-9.1-17.3-9.7-26.8-9.4c-10.2,0.3-21.7,0.7-31.1,5.8c-1.4,0.8-2.8,1.6-4.1,2.5c-2.5,1.6-5.1,3.2-8,4.3
		c-2.3,0.8-4.7,1.3-6.9,1.7c-3.1,0.6-6,1.1-8.5,2.5C522.1,344.7,521.4,356.4,521.7,362.9L521.7,362.9z"/>
	<path d="M573.3,434.7c-17-2.8-36.3-5.9-51.3-17.2c-7.5-5.6-14-13.5-18.8-22.7c-5.6-10.7-7.4-20.4-5.3-29.1
		c2.3-9.7,11.4-19.1,22.5-18.1l-0.3,3.6c-9.1-0.8-16.7,7.3-18.6,15.4c-1.9,7.7-0.2,16.7,5,26.6c4.6,8.8,10.8,16.2,17.8,21.5
		c14.3,10.7,33.1,13.8,49.7,16.5L573.3,434.7z"/>
	<path d="M601.9,423.6l-1.9-3.1c10.6-6.3,19-12.6,25.5-22.5c6.4-9.8,8.3-22.1,9.5-32.9c0.9-8.2,1.6-16.9-1.3-24.6
		c-2.6-7-9.4-13.7-17.4-13.1l-3.8,0.4l-0.4-3.6l3.8-0.4c9.8-0.8,18,7.2,21.1,15.5c3.1,8.4,2.5,17.6,1.5,26.2
		c-1.2,11.2-3.2,24.1-10,34.5C621.7,410.5,613,417.1,601.9,423.6z"/>
	<path d="M512.3,352.8l-2.4-2.7c3.5-3.2,5.9-7.4,8.1-11.4c3.5-6.2,7.1-12.6,14.9-15.1c2.4-0.8,4.8-1,7.2-1.2
		c0.9-0.1,1.9-0.2,2.8-0.3c6.7-0.9,13.2-3.7,19.5-6.5l2.6-1.1c7-3,15.2-6.3,23.9-5.8c8,0.4,17.4,4.8,20.4,13.8l-3.4,1.1
		c-2.4-7.3-10.5-10.9-17.1-11.3c-7.9-0.3-15.6,2.7-22.2,5.5l-2.5,1.1c-6.5,2.9-13.3,5.8-20.5,6.8c-1,0.1-2,0.2-2.9,0.3
		c-2.3,0.2-4.4,0.4-6.4,1c-6.4,2.1-9.4,7.3-12.8,13.4C518.7,344.8,516.2,349.2,512.3,352.8z"/>
	<path d="M584.5,430.7c-12.7-5.1-24.4-12.3-34.6-21.5l2.4-2.7c9.9,8.9,21.1,15.9,33.5,20.8L584.5,430.7z"/>
	<path d="M588.6,428.6c-1.3-4.8-2.8-10.2-4.3-15.7c-1.6-5.7-3.1-11.3-4.5-16.3l3.5-1c1.4,5,2.9,10.6,4.5,16.3
		c1.5,5.5,3,10.9,4.3,15.7L588.6,428.6z"/>
	<path d="M605,420.3l-3.5-0.9c2.8-11.4,1.6-15.6-1.3-26l-0.9-3.4l3.5-1l0.9,3.4C606.7,403.1,608.1,408,605,420.3z"/>
	<path d="M522.5,454.7c-12.4,0-23.5-4-31.1-11.4c-2.8-2.7-5.1-5.8-7.3-8.9c-2.9-3.9-5.7-8.2-5-13.1l0,0c0.2-1.8,0.4-3,32.5,0.1
		c9.4,0.9,19,2.2,28.3,3.8c1.4,0.2,3,0.5,4.6,0.7c6.8,0.9,14.5,2,19.5,6.5c2.4,2.2,3.4,4.3,3,6.4c-0.7,3.7-5.4,5.5-9.5,7.1
		c-0.7,0.3-1.3,0.5-1.9,0.8c-9.9,4.2-18.2,6.5-25.9,7.5C527.3,454.6,524.9,454.7,522.5,454.7z M482.6,423.2c0.2,3.1,2.2,6.1,4.4,9.1
		c2.1,2.9,4.3,5.9,6.9,8.4c8.2,7.9,21.4,11.7,35.3,10c7.4-0.9,15.3-3.2,25-7.2c0.6-0.3,1.3-0.5,2-0.8c2.8-1.1,6.9-2.7,7.2-4.4
		c0.1-0.7-0.5-1.8-1.9-3.1c-4.1-3.8-11.3-4.7-17.5-5.6c-1.7-0.2-3.2-0.4-4.7-0.7c-9.3-1.6-18.7-2.9-28.1-3.8
		C506.2,424.6,487.8,423.1,482.6,423.2z"/>
	<path d="M564.2,438.9c-0.4-0.3-0.5-0.4-1-0.6c-0.3-0.1-0.5-0.2-0.9-0.3c-8.7-3.5-18.8-3-27.6-2.1c-1.7,0.2-3.5,0.4-5.2,0.6
		c-7.8,0.9-15.9,1.9-23.9,1c-11.4-1.4-20.9-6.9-25.3-14.9l3.2-1.8c3.9,7,12.3,11.9,22.6,13.1c7.6,0.9,15.4,0,23-1
		c1.7-0.2,3.5-0.4,5.2-0.6c9.2-1,19.8-1.5,29.3,2.3l0.7,0.2c0.7,0.2,1.4,0.5,2.3,1.3L564.2,438.9z"/>
	<path d="M587.9,438.1c-6.4,0-12.8-1.8-18.2-5.4l2-3c9.1,6.1,21.9,6.3,31.2,0.8c1.8-1.1,3.2-2.2,4.2-3.4c3.2-3.7,3.8-9.3,4.3-13.8
		l3.6,0.4c-0.6,5-1.3,11.2-5.2,15.7c-1.3,1.5-3,2.9-5.1,4.2C599.7,436.6,593.8,438.1,587.9,438.1z"/>
	<path d="M608.3,434.1c-1.6,0-3.1,0-4.6-0.1l0.1-3.6c14.7,0.6,24.8-1.7,34-7.5c10.2-6.5,16.6-17.8,21.7-28c1.2-2.4,4.7-9.2,10.4-9.5
		c-0.1-0.4-0.3-0.7-0.5-0.8c-0.9-0.7-2.4-0.8-3.7-0.7c-13,0-26.1,4.9-35.9,13.4l-2.4-2.7c10.5-9.1,24.4-14.3,38.3-14.3
		c1.9,0.1,4.1,0.2,5.8,1.4c1.2,0.8,2,2.2,2.1,3.7c0.1,1.2-0.2,2.4-1,3.2l-0.7,0.7l-1-0.2c-2.7-0.4-5.5,2.1-8.3,7.5
		c-5.4,10.6-12,22.4-23,29.4C629.1,432.6,618.1,434.1,608.3,434.1z"/>
	<path d="M606.7,433.1l-1.1-3.5c8.2-2.6,14.7-6.1,19.8-10.6c2.8-2.5,5.1-5.5,7.5-8.7c1.2-1.5,2.3-3.1,3.5-4.5
		c9-10.8,21.6-18.4,35.4-21.2l0.7,3.5c-13,2.7-24.8,9.8-33.3,20c-1.2,1.4-2.3,2.9-3.4,4.4c-2.4,3.2-4.9,6.5-8,9.2
		C622.3,426.6,615.4,430.3,606.7,433.1z"/>
	<path d="M600.8,791.9l-3.1-1.9c20.9-34.8,44-104.3,40.5-185.8c-3.7-87.7-42.1-166.4-42.5-167.2l3.2-1.6
		c0.4,0.8,39.1,80.1,42.9,168.6C645.4,686.3,621.9,756.7,600.8,791.9z"/>
	<g>
		<path d="M636.8,568.7l-4.8-5.2c-3.8-4.2-7.4-8.1-12.3-10.7c-7.6-4-16.7-4.7-25.4-5.3c-2.2-0.2-4.4-0.3-6.5-0.5
			c-15-1.4-25.3-6.3-30.6-14.5c-4.3-6.6-4.9-14.4-5.5-22c-0.3-4-0.7-8.1-1.5-12l-1.9-8.5l5.2,7c7.1,9.7,18.7,14.7,30.1,18.7l4.4,1.5
			c10.3,3.5,21,7.2,29.6,14.3l0,0c7.7,6.3,21.4,22.6,20,33.4L636.8,568.7z M554.6,504.1c0.2,2,0.4,4.1,0.6,6.1
			c0.6,7.5,1.2,14.5,4.9,20.3c4.7,7.2,14.1,11.6,27.9,12.9c2.1,0.2,4.3,0.3,6.4,0.5c9.1,0.6,18.6,1.3,26.9,5.7
			c4.8,2.6,8.5,6.2,11.9,10c-2.4-8.8-12.1-20.2-18.2-25.2l0,0c-8.1-6.7-18.4-10.2-28.4-13.7l-4.4-1.5
			C572.2,515.7,562.1,511.4,554.6,504.1z"/>
		<path d="M635,568.9c-2.9-5-9.6-8.3-14.5-9.7c-8.1-2.3-16.4-4-24.6-5.3l-2.6-0.4c-9.3-1.4-18.9-2.8-26.3-8.9
			c-4.3-3.5-7.3-6.3-9.8-12.1l3.3-1.5c2.1,4.7,4.3,7,8.8,10.7c6.6,5.5,15.7,6.8,24.5,8.1l2.6,0.4c8.4,1.3,16.9,3.1,25.1,5.4
			c5.8,1.6,13.2,5.5,16.7,11.4L635,568.9z"/>
	</g>
	<g>
		<path d="M629.2,524.6c-1.1,0-2-0.3-2.8-0.9c-2-1.7-1.3-4.7-0.3-9.3c0.2-1,0.4-2,0.7-3.1c0.6-3,1-6,1.4-9c0.8-6.1,1.7-12.4,4-18.3
			l0,0c2.9-7.4,8-13.9,14.5-18.5c6.5-4.6,14-7,21.4-9.4c4.2-1.4,8.6-2.8,12.7-4.6c10.6-4.8,20.6-14.5,18.9-25.6l-1.7-11l5.1,9.9
			c13.1,25.3,5.2,59.9-17.4,77.1c-10.8,8.2-23.7,12.4-36.2,16.5c-4.4,1.5-9,3-13.4,4.6C633.3,524,631,524.6,629.2,524.6z
			 M702.9,433.4c-2.4,9.4-11.3,17.2-20.6,21.3c-4.2,1.9-8.7,3.4-13,4.8c-7.4,2.4-14.4,4.7-20.4,9c-5.9,4.1-10.6,10.1-13.2,16.8l0,0
			c-2.2,5.5-3,11.3-3.8,17.5c-0.4,3.1-0.9,6.2-1.5,9.2c-0.2,1.2-0.5,2.2-0.7,3.2c-0.5,2.3-1.1,5.2-0.8,5.8c0,0,0.1,0,0.1,0
			c0.4,0,1.8-0.1,5.8-1.6c4.5-1.7,9.1-3.2,13.6-4.7c12.2-4,24.8-8.1,35.1-16C702.8,484.2,710.7,456.2,702.9,433.4z"/>
		<path d="M628.4,524l-1.7-3.2l31.8-16.5c3.9-2,8-4.2,11.2-7.1c3.4-3.2,6-7.3,8.2-11.4c9.1-16.5,15.2-34.7,21.2-52.3l3.4,1.2
			c-6,17.7-12.2,36.1-21.4,52.9c-2.4,4.3-5.1,8.8-8.9,12.3c-3.6,3.3-7.9,5.5-12,7.7L628.4,524z"/>
		<path d="M629,522.3l-2.5-2.7l22-20.4c8.6-8,18.3-17,22.3-28.7l3.4,1.2c-4.3,12.6-14.4,22-23.3,30.2L629,522.3z"/>
	</g>
	<g>
		<path d="M683.1,701.8c-11,0-22.9-1.3-33.4-5.4l-1.5-0.6l0.4-1.5c0.9-4,6.2-5.6,10.9-7c1.7-0.5,3.3-1,4.4-1.5
			c5.6-2.7,10.8-6.3,15.9-9.9l3.7-2.6c9.5-6.7,19.3-13.6,31-16.2c10.1-2.2,20.7-0.9,30,0.2l28.1,0.3c1.1-0.1,2.2-0.1,3.4-0.1l0,0.1
			l1.5,0l0,3.6l-4.6,0c-6.3,0.7-11.8,5.1-15.5,8.9c-2,2.1-4,4.4-5.8,6.6c-2.9,3.5-6,7.2-9.6,10.2c-7.1,5.9-16.5,9.7-29.6,12.1
			C704.8,700.4,694.4,701.8,683.1,701.8z M653.1,693.8c20.2,7,45,4.1,58.3,1.7c12.5-2.2,21.4-5.8,27.9-11.3c3.4-2.8,6.2-6.2,9.2-9.7
			c1.9-2.3,3.9-4.6,6-6.8c2.1-2.2,4.8-4.6,7.9-6.4L744,661c-9.2-1.1-19.4-2.4-28.9-0.3c-11,2.4-20.5,9.1-29.7,15.6l-3.4,2.4
			c-5.4,3.8-10.8,7.5-16.6,10.3c-1.3,0.6-3.1,1.2-4.9,1.7C657.9,691.5,654.7,692.5,653.1,693.8z"/>
		<path d="M674.1,696.4c-7.8,0-15.5-0.5-22.8-1.1l0.3-3.6c24.8,2.1,53.2,2.4,76.2-11.4c4-2.4,7.8-5.4,11.4-8.3
			c8.2-6.5,16.5-13.3,27.9-13l-0.1,3.6c-9.8-0.3-17.5,5.8-25.5,12.2c-3.7,3-7.6,6.1-11.8,8.6C712.7,693.6,693.1,696.4,674.1,696.4z"
			/>
	</g>
	<path d="M478.5,931.3l0.7-4.5c1.9-12.5,1.2-17.5-4.7-29.7l0,0c-9.4-19.5-12.4-42-8.3-63.3c4.1-21.3,15.1-41.1,31.1-55.8l9.3-8.6
		l-6.6,10.8c-5.8,9.6-5.9,22.6-0.2,32.3c2,3.4,4.6,6.4,7.3,9.5c3.1,3.5,6.2,7.2,8.4,11.5c4,7.7,4.9,17.7,2.6,28.1
		c-2,8.8-5.9,16.9-10.4,25.9c-1.3,2.6-2.6,5.3-3.9,8.2c-5.6,11.8-11.9,25.1-21.6,32.7L478.5,931.3z M493.2,787.3
		c-11.9,13.2-20.1,29.7-23.5,47.2c-3.9,20.5-1.1,42.2,8,61.1l0,0c5.4,11.1,6.8,16.9,5.7,26.9c7.1-7.3,12.3-18.3,17-28.2
		c1.4-2.9,2.7-5.7,4-8.3c4.4-8.7,8.2-16.6,10.1-25c2.2-9.6,1.4-18.7-2.2-25.6c-2-3.9-4.9-7.3-8-10.8c-2.7-3.1-5.5-6.4-7.7-10.1
		C491.9,806.4,490.8,796.3,493.2,787.3z"/>
	<path d="M482.5,929.6l-2.9-2.2c8.1-10.3,6-22,3.6-35.6l-0.6-3.4c-1-5.6-2.3-11.3-3.7-16.8c-2.2-9-4.4-18.2-5-27.6
		c-1.6-27.7,6.3-50.7,22.1-64.7l2.4,2.7c-20.3,17.9-21.8,46.4-20.9,61.8c0.5,9.1,2.7,18.2,4.9,27c1.3,5.5,2.7,11.3,3.7,17l0.6,3.4
		C489.2,905,491.5,918.1,482.5,929.6z"/>
	<path d="M537,876.4l1.7-5.6c0.4-1.4,0.9-2.8,1.4-4.2c1.5-4.2,2.8-8.2,2.2-12.6l0,0c-0.3-2.2-0.8-4.5-1.2-6.7
		c-1.1-5.3-2.3-10.9-1.1-16.4c0.8-4,3.2-6.7,6.9-7.7c1.1-0.3,2-0.3,2.8-0.1c0.8,0.2,2,0.9,2.2,3c0.5,6-0.2,12-0.9,17.8l-1.5,12.8
		c-0.3,2.5-0.6,5.1-1.6,7.8c-1.2,3.1-3.4,5.9-6.3,8.3L537,876.4z M548.3,826.5c-0.1,0-0.3,0-0.4,0.1c-2.4,0.7-3.8,2.3-4.4,5
		c-1,4.8,0,9.8,1.1,15c0.5,2.3,1,4.6,1.3,6.9l0,0c0.1,0.5,0.1,1,0.1,1.5l1.4-11.5C548,837.9,548.7,832.1,548.3,826.5z"/>
	<path d="M414.8,975.1l2-6.6c0.8-2.5,1.6-4.8,2.3-7c2-5.5,3.7-10.3,4-16.7c0.5-9-0.4-18.3-1.4-26.1l-0.1-1.2
		c-0.7-5.6-1.4-11.4-0.9-17.2c0.4-4.5,2.3-7.4,5.3-8.1c1.6-0.3,3.4,0.1,5,1.2c4.1,2.8,5.4,7.9,6.1,12.4c1.9,12.8,1.7,24.7-0.8,35.4
		c-2.6,11.4-8.2,21.1-16.4,29L414.8,975.1z M427,895.9c-0.1,0-0.2,0-0.3,0c-1.5,0.3-2.2,2.7-2.4,4.8c-0.4,5.4,0.3,11,0.9,16.5
		l0.1,1.2c1,8,1.9,17.4,1.4,26.7c-0.3,6.3-1.9,11.2-3.7,16.2c4.6-6,7.8-13,9.6-20.7c2.4-10.2,2.6-21.7,0.8-34c-0.6-3.8-1.6-8-4.5-10
		C428.2,896.1,427.5,895.9,427,895.9z"/>
	<path d="M471.1,962.1c-9.7,0-19.1-0.9-26.7-4.3l-1.8-0.8l0.9-1.7c2.4-4.5,8.1-5.6,12.8-6.5c1.3-0.2,2.5-0.5,3.5-0.7
		c3.8-1,7.6-2.5,11.2-3.9c4.2-1.6,8.5-3.3,13.1-4.4c9.8-2.3,18.7-0.8,24.5,4.1c3.3,2.8,4.9,6.5,4.1,9.7c-0.7,3.2-3.7,7.1-13.7,7.3
		c-3.3,0.1-6.9,0.3-10.7,0.5C482.7,961.7,476.9,962.1,471.1,962.1z M448.1,955.4c11.2,4.1,26.5,3.2,40.1,2.5
		c3.8-0.2,7.5-0.4,10.8-0.5c3.5-0.1,9.4-0.8,10.3-4.5c0.5-2.3-1.2-4.7-2.9-6.2c-4.9-4.1-12.7-5.4-21.3-3.3l0,0
		c-4.3,1-8.5,2.7-12.6,4.2c-3.7,1.5-7.6,3-11.6,4c-1.1,0.3-2.4,0.5-3.8,0.8C453.8,953,450.2,953.6,448.1,955.4z"/>
	<path d="M695.4,590.2c-3.9,0-7.7-1-11.1-3c-16.2-9.3-4.6-39.2-0.2-50.5l0,0c2.9-7.4,7.2-16.7,15.2-22.8c7.3-5.6,19.3-8.4,28.3-3
		c1.1,0.6,2.1,1.4,3.1,2.1c2,1.5,3.9,2.9,6.2,3.3c0.5,0.1,1.1,0.1,1.6,0.1c1,0,2.1,0.1,3.2,0.4c3.4,1,5.3,4.3,5.6,7.1
		c0.3,2.8-0.5,5.5-1.3,7.9c-3.2,10.1-6.5,20.6-11.9,30.2c-5,8.8-17.6,23.4-31.8,27.3C700,589.9,697.6,590.2,695.4,590.2z M687.5,538
		c-3.7,9.5-15,38.3-1.4,46c4.6,2.6,9.7,3.2,15.3,1.7c13.1-3.6,24.9-17.3,29.6-25.6c5.2-9.3,8.5-19.6,11.6-29.5
		c0.7-2.1,1.4-4.3,1.1-6.4c-0.2-1.6-1.2-3.5-3-4c-0.7-0.2-1.4-0.2-2.3-0.2c-0.7,0-1.4,0-2-0.1c-3.2-0.4-5.5-2.2-7.8-3.9
		c-0.9-0.7-1.8-1.4-2.8-2c-7.5-4.6-17.9-2-24.2,2.8C694.3,522.3,690.4,530.6,687.5,538L687.5,538z"/>
	<path d="M691.3,589.7c-5.8-0.3-18.1-6.4-20.5-12c-2.3-5.2-2.3-11.1-2.2-15.8c0-11.6,0.4-22.1,4.4-32c2.5-6.1,6.5-11.9,11.5-16.6
		c3.8-3.6,11-10.4,17.8-9c3.2,0.6,4.4,1.6,5.5,2.4c0.9,0.7,1.7,1.2,4.1,1.6l-0.6,3.6c-3.3-0.5-4.6-1.5-5.7-2.3
		c-0.9-0.7-1.7-1.2-4-1.7c-5-1-11.3,4.9-14.6,8.1c-4.7,4.4-8.3,9.7-10.6,15.4c-3.8,9.3-4.1,19.4-4.2,30.7c0,4.6,0,9.8,1.9,14.4
		c1.7,3.9,12.4,9.6,17.4,9.9L691.3,589.7z"/>
	<path d="M708.2,591.4c-6.2,0-15.2-1.3-19.5-1.9l0.5-3.6c4.7,0.7,17.2,2.5,22.2,1.7c7.8-1.3,13.3-3.3,17.4-6.6
		c4.9-3.9,8-9.7,10.7-14.9c5.9-11.3,10.9-22.3,7.8-32.8c-0.3-1-1-2.8-1.8-4.5c-0.8-1.9-1.6-3.7-1.9-4.8l3.5-1c0.3,1,1,2.7,1.7,4.4
		c0.8,1.9,1.6,3.8,1.9,4.9c3.4,11.8-1.9,23.5-8.1,35.5c-2.9,5.5-6.1,11.7-11.7,16.1c-4.6,3.6-10.6,5.9-19,7.3
		C710.9,591.4,709.6,591.4,708.2,591.4z"/>
	<path d="M636.2,711.4l-2.3-2.8c7.3-6,13.6-12.7,18.7-19.9c16.5-23.1,24-54.6,29.3-82.5l3.6,0.7c-5.3,28.2-13,60.3-29.9,83.9
		C650.2,698.3,643.7,705.2,636.2,711.4z"/>
	<path d="M504.4,643.7c-3.9,0-7.7-0.4-11.5-1.2c-5.5-1.2-9.7-3.2-12.6-6.1c-3.9-3.8-5.6-9.3-4.1-13.9c1.1-3.2,3.4-5.5,5.7-7.8
		c0.9-0.9,1.8-1.7,2.5-2.6c1.7-2,3-4.2,4.4-6.6c1.1-1.8,2.2-3.8,3.5-5.5c6-8.2,16-13,26.1-12.4c12.9,0.6,24.2,9.1,27.4,20.6
		c2.8,9.9-1.1,19.6-10.6,26.1C526.3,640.4,515.3,643.7,504.4,643.7z M517,591.2c-8.4,0-16.8,4.2-21.8,11c-1.2,1.6-2.2,3.4-3.2,5.2
		c-1.4,2.4-2.8,4.9-4.7,7.1c-0.9,1-1.8,1.9-2.7,2.9c-2,2-4,3.9-4.8,6.3c-1.2,3.7,0.7,7.8,3.1,10.1c2.5,2.4,6,4,10.9,5.1
		c13.4,3,28.1,0.1,39.4-7.6c8.2-5.6,11.5-13.7,9.2-22.1c-2.9-10-12.8-17.4-24.1-18l0,0C517.8,591.2,517.4,591.2,517,591.2z"/>
	<path d="M509.4,653.9c-1.5,0-3,0-4.5-0.1c-1.4-0.1-3-0.2-4.4-0.9c-1.7-0.7-3-2-4.1-3.1l-13.5-13.2l2.5-2.6l13.5,13.2
		c0.9,0.9,1.9,1.9,3,2.3c0.9,0.4,2.1,0.5,3.2,0.6c6.8,0.4,13.6-0.2,20.2-1.8c6.6-1.6,11.6-4,15.3-7.3c4.4-3.9,6.8-9.4,6.3-14.4
		c-0.3-3.4-1.9-6.6-3.4-9.7l3.3-1.6c1.6,3.2,3.3,6.9,3.7,10.9c0.6,6.2-2.2,12.7-7.5,17.4c-4.1,3.7-9.6,6.3-16.9,8.1
		C520.6,653.2,515,653.9,509.4,653.9z"/>
	<path d="M479.9,617.2c-1.4-12.8,5.5-26.2,16.9-32.8c11-6.3,25.9-6,37,0.8c3.6,2.2,6.1,4.6,7.7,7.4c2.5,4.2,3.1,9.9,1.6,15.9
		l-3.5-0.8c1.2-5.1,0.8-9.7-1.2-13.2c-1.3-2.2-3.4-4.2-6.5-6.1c-10-6.2-23.4-6.5-33.3-0.8c-10.2,5.8-16.4,17.8-15.1,29.2
		L479.9,617.2z"/>
	<path d="M552.5,642.5c-1.3,0-2.6-0.5-3.6-1.5c-1.3-1.2-2-3.1-2-4.9c0.1-2.7,1.5-5.1,2.8-7c1.7-2.4,3.4-4.8,5.3-7.1
		c-3.4-0.8-6.4-3.4-7.6-6.8c-1.3-3.8-0.1-8.4,2.8-11.2c-3-2.6-5.9-5.4-8.3-8.7c-1.9-2.7-6.2-9.6-3.9-15.7l0.7-1.8l1.8,0.8
		c3.3,1.5,6.1,5.4,8.8,9.2c1.8,2.5,3.7,5.1,5.5,6.7c0.9,0.8,1.9,1.6,2.9,2.3c2.5,2,5.2,4,7.2,6.9c8.5,12.3,2.8,20.7-3.2,29.7
		c-0.9,1.3-1.8,2.7-2.7,4.1c-1.4,2.2-3.2,5-6.4,5.1C552.6,642.5,552.5,642.5,552.5,642.5z M563.4,617.7l-3.3,3.8
		c-2.6,3-5.1,6.3-7.4,9.6c-1.1,1.6-2.2,3.3-2.2,5.1c0,0.8,0.3,1.7,0.9,2.2c0.3,0.3,0.7,0.6,1.1,0.5c1.2,0,2.4-1.8,3.3-3.3
		c1-1.6,1.9-2.9,2.8-4.3c6-8.9,10.3-15.4,3.2-25.6c-1.7-2.4-4-4.2-6.4-6.1c-1-0.8-2.1-1.6-3-2.4c-2.1-1.8-4.2-4.6-6.1-7.3
		c-1.8-2.4-3.5-4.9-5.3-6.5c0,3.2,1.9,7,3.9,9.8v0c2.6,3.6,6,6.6,9.3,9.5l1.9,1.6l-2.1,1.3c-2.7,1.6-4.1,5.4-3.1,8.4
		c1,3,4.5,5.1,7.6,4.6L563.4,617.7z"/>
	<path d="M688.5,608.3c-10.6,0-15.4-7.4-20.4-15.2c-0.9-1.3-1.8-2.7-2.7-4.1c-1.5-2.1-3.4-4.9-2.2-7.8c0.5-1.3,1.5-2.3,2.9-2.8
		c1.6-0.7,3.6-0.6,5.2,0.1c2.5,1.1,4.1,3.4,5.4,5.4c1.6,2.5,3.1,5,4.5,7.6c2.1-2.8,5.6-4.6,9.2-4.3c4,0.3,7.7,3.2,9.2,7
		c3.6-1.7,7.3-3.3,11.2-4.2h0c3.2-0.7,11.3-1.9,15.9,2.5l1.4,1.3l-1.5,1.3c-2.7,2.4-7.4,3.5-11.9,4.5c-3,0.7-6.2,1.4-8.3,2.5
		c-1.1,0.6-2.2,1.2-3.3,1.8c-2.8,1.6-5.7,3.2-9.2,3.9C692,608.1,690.2,608.3,688.5,608.3z M668.5,581.5c-0.4,0-0.8,0.1-1.1,0.2
		c-0.3,0.1-0.7,0.4-0.9,0.8c-0.5,1.2,0.7,2.9,1.7,4.4c1,1.5,1.9,2.9,2.8,4.3c5.9,9,10.1,15.5,22.3,13c2.9-0.6,5.4-2,8.1-3.5
		c1.1-0.6,2.3-1.3,3.5-1.8c2.5-1.3,5.9-2,9.1-2.7c2.9-0.7,5.9-1.3,8.1-2.3c-3-1.2-7.2-1-10.5-0.3l0,0c-4.3,1-8.4,2.9-12.4,4.9
		l-2.2,1.1l-0.3-2.5c-0.4-3.2-3.4-5.9-6.5-6.2c-3.1-0.2-6.4,2.1-7.2,5.2l-1.2,4.9l-2.2-4.5c-1.8-3.6-3.8-7.2-5.9-10.5
		c-1.1-1.6-2.2-3.3-3.8-4C669.4,581.6,669,581.5,668.5,581.5z"/>
	<path d="M615.9,679.6c-11.2,0-28.2-7.1-30.8-8.5c-10.3-5.3-18.3-13.2-22.4-22.5l-2.1-4.7l4.6,2.3c6.9,3.5,15.1,3.9,23,4.3
		c1.6,0.1,3.1,0.2,4.6,0.3l0,0c12.4,0.8,33.4,6.3,33.1,21.8c0,2.4-1.1,4.3-3.1,5.5C621,679.1,618.6,679.6,615.9,679.6z M568.2,651.4
		c4.1,6.7,10.5,12.4,18.5,16.4c6.4,3.3,28.1,10.8,34.2,7.1c0.9-0.5,1.3-1.3,1.3-2.4c0.3-12.8-19.3-17.5-29.7-18.2
		c-1.5-0.1-3.1-0.2-4.6-0.3C581.3,653.8,574.6,653.5,568.2,651.4z"/>
	<path d="M624.9,679.9c-6.4-5.8-14.3-10-22.8-12c-2.6-0.6-5.4-1.1-8-1.5c-4.6-0.7-9.4-1.5-14-3.3c-6.3-2.5-11.8-7-15.5-12.6l3-2
		c3.3,5,8.2,9,13.8,11.2c4.2,1.7,8.5,2.3,13.2,3.1c2.7,0.4,5.5,0.9,8.3,1.5c9,2.2,17.5,6.6,24.4,12.8L624.9,679.9z"/>
	<g>
		<path d="M619.7,655l-2.9-2.1c5.8-8,11.1-15.9,10.8-24.5c-0.1-5-2.2-9.9-4.2-14.6c-4.5-10.7-8.5-21.2-9.5-32.1
			c-6.4,7.2-10.4,16.4-11.2,26c-0.9,11.5,2.7,24.2,9.2,32.4l-2.8,2.3c-7-8.9-10.9-22.6-9.9-34.9c0.9-11.8,6.5-23.2,15.2-31.3l3-2.8
			l0,4.1c0.1,11.7,4.5,23.2,9.3,34.8c2.2,5.2,4.3,10.4,4.5,16.1C631.5,638.8,624.6,648.2,619.7,655z"/>
		<path d="M616.5,651.6l-2.3-2.8c5.5-4.4,6.2-12.9,6.1-20.7c0-4.2-0.2-7.9-1-11.6c-0.5-1.9-1.1-3.8-1.9-5.8c-0.3-1-0.7-1.9-1-2.9
			c-2.9-8.9-3.8-18.3-4.7-27.3l3.6-0.3c0.9,8.9,1.7,18,4.6,26.5c0.3,0.9,0.6,1.9,1,2.8c0.7,2,1.5,4.1,2,6.2c1,4,1.1,8.2,1.1,12.4
			C624.1,636.7,623.3,646.2,616.5,651.6z"/>
	</g>
	<path d="M597.9,797.2c-0.2,0-0.3,0-0.5,0l-2.5,0l0.8-2.4c1.9-5.2,6.6-9.6,11.2-13.9c2-1.8,3.9-3.6,5.3-5.2c1.3-1.4,2.5-2.8,3.7-4.2
		c4.7-5.3,9.5-10.8,14.9-15.7l0,0c2.4-2.1,5-4.2,8.3-5.1c3.9-1.1,7.9-0.1,10.1,2.6c3.1,3.7,2.5,9.4-1.6,15.5
		c-6.6,9.8-16.3,17.7-27.2,22.4C611.1,795.2,603.7,797.2,597.9,797.2z M633.4,758.4c-5.3,4.7-10,10.1-14.6,15.4
		c-1.2,1.4-2.5,2.9-3.8,4.3c-1.6,1.8-3.5,3.6-5.6,5.5c-3.4,3.2-7,6.5-9.1,9.9c4.9-0.5,11.2-2.4,18.8-5.6
		c10.2-4.4,19.3-11.9,25.6-21.1c2.4-3.6,4.2-8.4,1.8-11.1c-1.5-1.8-4.3-2-6.4-1.4C637.7,754.8,635.4,756.6,633.4,758.4L633.4,758.4z
		"/>
	<path d="M618.5,501c-5,0-10.6-3.7-15.5-6.9c-2.5-1.6-4.8-3.1-6.7-4h0c-1.7-0.8-3.4-1.5-5.2-2.2c-7.1-3-14.5-6.2-20-11.9
		c-2.8-2.9-4.4-5.9-4.8-8.9c-0.5-4.1,1.7-8.1,5.2-9.3c6.1-2.3,11.2,4,14,7.4c4.5,5.6,10,10.2,16.1,13.9c1.1,0.7,2.2,1.3,3.3,1.9
		c2.9,1.6,5.9,3.3,8.5,5.5c2.2,1.8,7.3,6.8,7.6,12.7l0.1,1.8l-1.8,0.1C618.9,501,618.7,501,618.5,501z M597.7,486.8
		c2.2,1,4.6,2.6,7.2,4.3c3.9,2.6,8.3,5.4,11.9,6.1c-0.8-2.6-2.9-5.5-5.9-8c-2.4-2-5.1-3.5-7.9-5.1c-1.2-0.6-2.3-1.3-3.4-2
		c-6.5-3.9-12.3-8.8-17.1-14.7c-3.2-4-6.7-7.4-9.9-6.3c-2.1,0.8-3.1,3.4-2.8,5.5c0.3,2.2,1.5,4.5,3.8,6.8c5,5.2,12.1,8.2,18.9,11.1
		C594.2,485.3,596,486,597.7,486.8L597.7,486.8z"/>
	<path d="M613.9,475.9l-1.3-1.3c-6.8-6.8-5.4-21-1.8-28.2v0c2.6-5.1,5.9-7.6,9.6-7c4,0.6,6.2,4.8,6.5,8.6c0,0.5,0.1,1.1,0.1,1.6
		c0,3.5-1.1,7.1-3,10c-0.6,1-1.4,1.9-2.1,2.8c-0.8,0.9-1.5,1.9-2.1,2.9c-0.7,1.1-1.1,2.3-1.6,3.6c-0.7,1.9-1.4,3.9-2.9,5.5
		L613.9,475.9z M614,448c-2.9,5.7-4.1,16.2-0.3,22.2c0.4-0.8,0.7-1.6,1-2.5c0.5-1.4,1-2.8,1.9-4.2c0.7-1.2,1.5-2.2,2.4-3.3
		c0.7-0.8,1.3-1.6,1.9-2.5c1.5-2.4,2.4-5.2,2.4-8.1c0-0.4,0-0.9-0.1-1.3c-0.2-2.4-1.5-5-3.4-5.4C617.1,442.5,614.9,446.3,614,448
		L614,448z"/>
	<path d="M615.2,759.4c-1.6,0-3.1-1.4-5.3-3.4c-7.9-7.5-11.6-32.6-4.2-41.4v0c1.5-1.8,3.3-2.9,5.1-3.3c3.9-0.7,7.5,2,9,5.1
		c1.4,2.9,1.5,6.2,1.5,9.4l0,2.9c0,7.2-0.1,15.3-1.9,22.3c-0.3,1.2-0.5,2.2-0.7,3.1c-0.6,2.8-1,4.6-2.7,5.1
		C615.7,759.3,615.5,759.4,615.2,759.4z M608.5,717c-5.7,6.8-3.2,29.6,4,36.4c1.1,1.1,1.8,1.7,2.3,2c0.1-0.5,0.3-1.3,0.5-2
		c0.2-0.9,0.4-2,0.7-3.2c1.7-6.6,1.7-14.5,1.7-21.4l0-2.9c0-2.8,0-5.5-1.1-7.8c-0.9-1.8-3-3.6-5-3.2
		C610.2,715.2,609.2,716.2,608.5,717L608.5,717z"/>
	<g>
		<path d="M613.9,918.5c-10.9,0-21.9-1.5-32.5-2.9c-2.6-0.4-5.3-0.7-7.9-1c-11.6-1.5-23.5-2.5-35.3-3.1c-2.9-0.1-6.1-0.1-9.6,0
			c-8,0.2-16.3,0.5-22.7-2.2l-1.3-0.5l0.2-1.4c1.7-10.7,23.6-17.2,44.7-22.3l2.4-0.6c21.5-5.2,41.6-4.6,58.3,1.9
			c4.8,1.9,9.6,4.3,14.2,6.7c10.9,5.5,21.1,10.8,32.4,9.6l6.6-0.7l-5.3,3.9c-10.5,7.8-24.9,12.1-41.6,12.5
			C615.7,918.5,614.8,918.5,613.9,918.5z M534.7,907.8c1.3,0,2.5,0,3.7,0.1c11.9,0.6,23.8,1.7,35.5,3.1c2.6,0.3,5.3,0.7,7.9,1
			c11.3,1.5,23.1,3.1,34.6,2.8c13.3-0.3,25.1-3.2,34.4-8.4c-9.9-0.8-19.1-5.5-28-10.1c-4.5-2.3-9.2-4.7-13.9-6.5
			c-15.9-6.2-35.3-6.8-56.1-1.8l-2.4,0.6c-9.5,2.3-37.5,8.9-41.5,17.9c5.5,1.7,12.7,1.6,19.7,1.4
			C530.7,907.9,532.7,907.8,534.7,907.8z"/>
		<path d="M633.2,912c-9.4,0-19-1.6-26.9-3.2c-31.5-6.4-64.9-6.2-99,0.3l-0.7-3.6c34.6-6.6,68.4-6.7,100.4-0.3
			c8.3,1.7,33.5,6.7,47.3-1.5l1.8,3.1C649.8,910.7,641.6,912,633.2,912z"/>
	</g>
	<g>
		<path d="M592.6,844.3c-7.2,0-14.6-0.4-22.2-1.2l-6.9,0l2.7-3c16.7-18.4,35.6-29.6,54.7-32.5c6.9-1,14-1,20.9-1
			c10,0,19.5,0,28.6-2.9c5.3-1.7,10.4-4.5,15.4-7.1c7.2-3.9,14.6-7.9,22.9-9l12.2-1.6l-11.2,5.1c-9.8,4.4-17.7,11.6-26.1,19.2
			c-4.7,4.3-9.6,8.7-14.9,12.6C649.3,837,623.3,844.3,592.6,844.3z M571.6,839.6c39.2,3.9,72-2.9,94.9-19.7
			c5.1-3.7,9.9-8.1,14.6-12.4c4.3-3.9,8.7-7.9,13.5-11.5c-2.3,1.2-4.7,2.4-7.1,3.7c-5.1,2.7-10.4,5.6-16,7.4
			c-9.7,3.1-19.9,3.1-29.7,3.1c-6.7,0-13.7,0-20.4,1C604.1,813.7,587,823.5,571.6,839.6z"/>
		<path d="M568.2,842.6l-0.3-3.6c18.4-1.6,35.9-7.1,53.7-13.1l1.7-0.6c18-6,35-11.7,51.4-20.7l3.1-1.7c6.5-3.5,13.2-7.2,19.3-11.4
			l2.1,3c-6.3,4.3-13.1,8-19.6,11.6l-3.1,1.7c-16.7,9.2-33.9,14.9-52,21l-1.7,0.6C604.7,835.4,587,841,568.2,842.6z"/>
	</g>
	<g>
		<path d="M507.8,1019.4c-1.6,0-3.1,0-4.6-0.1c-6.5-0.4-12.9-1.4-19.2-2.3c-6.8-1-13.7-2.1-20.6-2.4c-6.5-0.2-13.4,0.2-20,0.7
			c-14.8,1-30.1,2.1-43.6-4.6c-0.2-0.1-21.6-11.2-20.2-19c1-5.7,12.4-8.4,24.6-10.5l1.9-0.3c19.2-3.6,39.2-2.8,57.7,2.4h0
			c8.6,2.4,17.2,5.8,25.4,9.1c17.3,6.9,33.7,13.4,51.3,12.2l4.9-0.3l-3.5,3.4C532.4,1017.1,518.9,1019.4,507.8,1019.4z
			 M459.8,1010.9c1.3,0,2.5,0,3.7,0.1c7.1,0.3,14.2,1.4,21.1,2.4c6.2,1,12.6,1.9,18.8,2.3c9.6,0.5,22.4-0.4,32.1-7.3
			c-16.5-0.2-32.3-6.5-47.6-12.5c-8.2-3.2-16.6-6.6-25.1-9c-18-5.1-37.4-5.9-56.1-2.4l-1.9,0.3c-17.3,3-21.3,5.7-21.7,7.5
			c-0.6,3.2,11.5,11.7,18.3,15.1c12.6,6.3,26.8,5.3,41.7,4.3C448.7,1011.3,454.3,1010.9,459.8,1010.9z"/>
		<path d="M523.6,1012.8c-4.5,0-9.6-0.5-15.4-1.6c-7.6-1.4-15-4.2-22-7c-2.1-0.8-4.3-1.7-6.4-2.4c-30.9-11.3-64.4-14.9-96.9-10.1
			l-0.5-3.6c33.1-4.8,67.3-1.2,98.7,10.3c2.2,0.8,4.3,1.6,6.5,2.5c6.9,2.7,14.1,5.4,21.4,6.8c14.4,2.6,24.3,1.9,30-2.2l2.1,2.9
			C536.8,1011.3,531.1,1012.8,523.6,1012.8z"/>
	</g>
	<g>
		<path d="M524.6,309.8c-2.3,0-4.6-0.2-7-0.5c-6.3-1-12.3-3.3-18.2-5.5c-4.4-1.7-9-3.4-13.6-4.6l-0.6-0.1
			c-10.2-1.9-20.2,2.1-20.3,2.1l-10.3,4.1l16.8-14.4c23.8-15.9,54.6-19.9,80.5-10.7c0.4,0.2,1.1,0.4,2,0.7
			c11.9,3.8,16.1,6.1,16.7,8.8c1.1,5.4-7.6,8.9-12.7,11c-0.8,0.3-1.5,0.6-2,0.8C548.1,305.3,536.8,309.8,524.6,309.8z M479.5,294.9
			c2.1,0,4.3,0.2,6.5,0.6l0.7,0.2c4.8,1.2,9.5,3,14.1,4.7c5.9,2.3,11.5,4.4,17.4,5.3c10.5,1.6,22.1-0.7,36.3-7.4
			c0.5-0.2,1.3-0.5,2.1-0.9c2.7-1.1,11-4.5,10.5-7c-0.4-0.7-3.3-2.5-14.2-6c-0.9-0.3-1.7-0.5-2.1-0.7c-24.8-8.9-54.4-5-77.1,10.2
			l-2.1,1.8C473.9,295.3,476.6,294.9,479.5,294.9z"/>
		<path d="M469,299.4l-2.3-2.8c12.4-10,23.7-8,36.8-5.7c3.5,0.6,7.1,1.2,11.1,1.7l0.8,0.1c18.8,2.3,36.6,4.4,52.2-5.1l1.9,3.1
			c-16.6,10.1-35.9,7.8-54.5,5.6l-0.7-0.1c-4-0.5-7.7-1.1-11.3-1.7C489.6,292.1,480.1,290.4,469,299.4z"/>
	</g>
	<g>
		<path d="M566.2,279.4c-2.1,0-4-0.6-5.8-1.7c-16.8-10.5-12.6-45.5-6.7-61.1c8.1-21.5,24.1-38.3,37.8-50.7c0.6-0.6,1.3-1.2,1.9-1.8
			l2.3,2.8c-0.6,0.6-1.2,1.1-1.9,1.7c-9.3,9.6-5.9,26.5-4.6,31.7c0.9,3.4,1.9,6.7,3,10.1c2.8,8.8,5.7,17.9,5,27.4
			c-0.7,9.4-12.7,33.8-25,40C570.2,278.8,568.2,279.4,566.2,279.4z M585.3,176.7c-11,11-22,24.7-28.2,41.1l0,0
			c-4.8,12.7-10.1,47.2,5.2,56.8c2.5,1.6,5.3,1.6,8.4,0c11.1-5.6,22.4-28.6,23-37c0.6-8.8-2-17.1-4.9-26c-1.1-3.4-2.2-6.9-3.1-10.3
			C583.4,192,583.3,183.6,585.3,176.7z"/>
		<path d="M561.7,277.9c-3.5-11.8,1.9-22.7,7.1-33.3c2.4-4.8,4.8-9.7,6.4-14.7c3.3-10.3,4.8-21.1,4.5-31.9l-0.1-1.4
			c-0.1-3.2-0.3-6.5,0.6-9.7c0.3-1.2,0.6-2.4,0.8-3.5c1.1-4.8,2-8.9,6.9-12.7l2.2,2.9c-3.8,2.9-4.5,5.9-5.6,10.6
			c-0.3,1.2-0.5,2.4-0.9,3.7c-0.7,2.7-0.6,5.6-0.5,8.7l0.1,1.5c0.4,11.3-1.2,22.4-4.7,33.2c-1.7,5.2-4.2,10.3-6.6,15.2
			c-5.1,10.4-10,20.3-6.9,30.7L561.7,277.9z"/>
	</g>
	<g>
		<path d="M357.9,1000.4l-1.3-3.4c179.6-67.6,300.3-242,300.3-434c0-16-0.8-32.2-2.5-48l3.6-0.4c1.6,16,2.5,32.2,2.5,48.4
			c0,96.9-29.4,189.9-85,268.8C521.2,909,445.9,967.3,357.9,1000.4z"/>
		<path d="M646.9,466.4c-2.9-13.6-6.4-27.2-10.5-40.4l3.5-1.1c4.1,13.4,7.7,27.1,10.6,40.7L646.9,466.4z"/>
		<path d="M582.6,311.1c-23-35.4-50.7-67.6-82.5-95.6l2.4-2.7c32,28.2,59.9,60.7,83.1,96.4L582.6,311.1z"/>
		<path d="M474,223.8c-1.7,0-3.4-0.4-4.7-1.8c-0.9-1-1.4-2.4-1.3-3.8c0.1-1.8,1-3.5,2.4-4.7c2.1-1.8,4.8-2.2,7.2-2.5
			c2.9-0.3,5.9-0.6,8.8-0.7c-1.6-3.1-1.6-7.1,0.2-10.2c2-3.5,6.3-5.6,10.3-5.2c0-3.9,0.2-8,1.2-11.9c0.8-3.2,3.2-11,9.2-13.2
			l1.8-0.7l0.5,1.9c1,3.5-0.1,8.1-1.2,12.6c-0.7,3-1.4,6.2-1.4,8.6c0,1.2,0.1,2.5,0.1,3.7c0.2,3.2,0.4,6.5-0.5,9.9
			c-3.7,14.5-13.8,15.7-24.5,17c-1.6,0.2-3.2,0.4-4.8,0.6C476.3,223.6,475.2,223.8,474,223.8z M496.1,198.5c-2.5,0-5.1,1.3-6.4,3.5
			c-1.6,2.7-0.9,6.7,1.5,8.7l3.9,3.2l-5,0c-4,0-8.1,0.2-12.1,0.7c-1.9,0.2-3.9,0.5-5.3,1.7c-0.6,0.5-1,1.3-1.1,2.1
			c0,0.5,0.1,0.9,0.3,1.1c0.8,0.9,2.9,0.6,4.7,0.3c1.8-0.3,3.5-0.5,5.1-0.7c10.7-1.3,18.4-2.3,21.5-14.3c0.7-2.9,0.6-5.8,0.4-8.8
			c-0.1-1.3-0.1-2.6-0.1-3.9c0-2.8,0.8-6.2,1.5-9.4c0.7-2.9,1.4-5.9,1.5-8.3c-2.4,2.1-4,6-4.9,9.4l0,0c-1,4.3-1.1,8.9-1.1,13.3
			l0,2.5l-2.4-0.8C497.5,198.6,496.8,198.5,496.1,198.5z"/>
		<path d="M478,203.2c-9.5,0-23.3-3.9-41.3-11.8h0c-8.8-3.9-23.8-12.6-25-27.4c-0.4-4.5,0.9-8.5,3.4-11.1c1-1,2.2-1.8,3.3-2.5l1-0.7
			c2.2-1.5,4.1-3.3,6.2-5.3c0.7-0.6,1.4-1.3,2-1.9c6.2-5.7,15.9-12.2,26.7-11.1c7.7,0.8,15.4,5.7,20.9,13.4
			c5.6,7.7,24.3,41.9,15.8,53.2C488.7,201.5,484.3,203.2,478,203.2z M438.2,188.1c26.8,11.7,45.1,14.6,50.2,7.8
			c6.5-8.6-9.2-39.7-15.8-48.9c-5-6.9-11.7-11.2-18.4-11.9c-9.5-1-18.2,5-23.9,10.2c-0.7,0.6-1.3,1.2-2,1.9c-2.1,2-4.2,4-6.7,5.6
			l-1.1,0.7c-1,0.6-2,1.2-2.7,2c-1.8,1.8-2.7,4.8-2.4,8.2C416.4,176.7,430.1,184.6,438.2,188.1L438.2,188.1z"/>
		<path d="M449,208.7c-11.5,0-23.5-1.2-34.5-6.2c-3-1.3-7.2-3.6-9.9-7.4c-2.4-3.4-3.2-7.6-2.4-11.7c2.5-7.3,5.9-14.1,9.9-20.4l3,2
			c-3.9,6.1-7.1,12.6-9.5,19.4c-0.5,2.8,0.2,6.1,1.9,8.6c1.7,2.4,4.3,4.3,8.4,6.2c14.4,6.5,31.2,6.2,45.8,5.4
			c10.6-0.6,22.2-2.3,27.8-10.4l3,2.1c-6.5,9.5-19.1,11.4-30.6,12C457.9,208.5,453.5,208.7,449,208.7z"/>
		<path d="M488.6,200.8l-2-3c5.4-3.5,8-16,8.5-23.5c0.8-12.2-0.5-24.4-3.8-36.1c-2.3-8.2-5.7-13-10.3-14.4c-0.6-0.2-1.2-0.3-1.9-0.5
			c-1.1-0.2-2.2-0.5-3.4-1c-1.2-0.5-2.2-1.3-3.1-2c-0.7-0.6-1.4-1.1-2.3-1.5c-3.5-1.7-8,0.4-10.4,3.2c-2.8,3.4-4,8-5.1,12.2
			l-3.5-0.9c1.2-4.5,2.5-9.6,5.8-13.6c3.4-4,9.5-6.7,14.7-4.1c1.1,0.5,2,1.2,2.9,1.9c0.8,0.6,1.6,1.2,2.4,1.6
			c0.8,0.4,1.7,0.5,2.6,0.8c0.7,0.2,1.5,0.3,2.2,0.5c5.9,1.8,10,7.4,12.7,16.9c3.4,12.2,4.7,24.7,3.9,37.3
			C498.3,182.1,495.6,196.3,488.6,200.8z"/>
	</g>
	<path d="M630.2,717.1l-3.6-0.2c4.6-92.4-60.7-105.1-61.4-105.2l0.6-3.6C566.5,608.3,635,621.6,630.2,717.1z"/>
</g>
</svg>
