<?xml version="1.0" encoding="utf-8"?>
<!-- Generator: Adobe Illustrator 22.0.0, SVG Export Plug-In . SVG Version: 6.00 Build 0)  -->
<svg version="1.1" id="Layer_1" xmlns="http://www.w3.org/2000/svg" xmlns:xlink="http://www.w3.org/1999/xlink" x="0px" y="0px"
	 viewBox="0 0 1133.9 1133.9" style="enable-background:new 0 0 1133.9 1133.9;" xml:space="preserve">
<style type="text/css">
	.st0{fill:#1C1A1A;}
	.st1{fill-rule:evenodd;clip-rule:evenodd;fill:#1C1D1D;}
	.st2{fill:#1C1D1D;}
	.st3{fill:#010101;}
	.st4{fill:#333333;}
</style>
<g>
	<path class="st4" d="M553.2,552.2c6.2,2.2,12.6,4.1,19.1,5.3c16.3,3,32.8,0.2,47.4-7.2c8.9-5.9,18.7-12.8,20.6-23.8
		c-8.5,1.7-14.8,8.3-21.9,12.9c-7.4,4.8-15.9,8-24.4,10.4C580.2,553.8,566.7,554.9,553.2,552.2z"/>
	<path class="st4" d="M511.2,490.1c-10.4,14.3-1.1,40.2,12.2,49.2c2.7,1.9,5.7,3.4,8.8,4.8c-15.6-10.5-16.9-30-10.2-47.1
		c0.6-3.5,2.1-6.9,5-9.8c2.7-2.7,6.1-4.3,9.6-4.9C528,479.2,517,482.2,511.2,490.1z"/>
	<path class="st4" d="M524.5,523.4c3,14.8,17.6,20.4,30.9,23.3c15.3,3.3,32.1,0.2,46.8-5.8c-13.1,5-27.7,7.3-41.4,5.5
		c-16.3-2.1-32-11.4-36.8-26.1C524.2,521.3,524.3,522.4,524.5,523.4z"/>
	<path class="st4" d="M576.2,531.9c-11.3,1.6-23,1.1-33.3-3.1c-4.7-1.9-9.5-5.6-13.3-10.2c5,15.6,25.8,22.6,41.8,22.2
		c5.3-0.1,10.7-0.8,16-2C582.9,537.9,578.6,535.9,576.2,531.9z"/>
	<path class="st4" d="M581.6,429.2c-7,1.8-13.6,6.3-18.7,11.6c4.3,6.6,7.8,13.9,11.1,20.7c5,10,9.3,20.3,13.2,30.8
		c4.6,3.5,13.9-1.5,17.1-4.4c3.7-3.3,6.1-7.9,7.1-12.8c1.6-7.4,0.2-14.8-2.7-21.6c-0.1-0.2-0.2-0.4-0.2-0.6
		c-1.3-2.9-2.8-5.7-4.5-8.3C599.1,436.6,592.4,426.4,581.6,429.2z"/>
	<path class="st4" d="M541.3,429.8c-21.4-7.1-45.6,7.9-59.1,23.6c-14.3,16.7-21.8,39-19.3,60.9c2.7,23.7,14.7,46.2,30.1,64.1
		c1.3,0.1,2.3,1,2.6,2.2c0.3,0.2,0.6,0.5,1,0.7c-8.5-12-17.2-25.1-21.3-38.8c-6.3-20.8-7.6-47.8,5.7-66.2c6.3-8.7,15.1-13.9,25.6-16
		c10.4-2.1,22.2-3.8,32.5-0.5c10.3,3.3,17,11.9,22.3,20.8c4.9,8.3,10.4,15.2,8.9,24.9c2.7,5.2-2.2,11.1-8.2,10
		c-6-1-10.6-6.8-11.2-12.6c-0.2-0.7-0.2-1.5,0.2-2.3c6.4-13.1-15.7-16.4-21.3-6.8c-0.3,0.5-0.6,1.1-0.8,1.7c0,0.5,0,1-0.3,1.5
		c-0.1,0.2-0.2,0.5-0.3,0.8c-0.4,2.2-0.2,4.4,0.3,6.7c0.2,0.4,0.4,0.8,0.4,1.3c0.1,0.3,0.2,0.6,0.3,0.9c0.3,0.4,0.5,0.9,0.6,1.4
		c2,4.5,5.3,8.7,8.5,11.3c7.6,6.3,18.5,7.4,27.9,7.2c24.7-0.5,51.7-11.4,66.5-31.8c0.1-1.7,0-3.3-0.2-5c-1-9.8-7.1-18-14.6-24.3
		c0.7,8.3-1,16.6-6.3,23.4c-5.1,6.5-19.5,14.7-27.6,8.8c-0.8-0.3-1.5-0.8-1.9-1.8c-0.1-0.1-0.1-0.2-0.2-0.2c-0.5-0.6-0.7-1.3-0.7-2
		c-4.7-12.6-10.2-24.9-16.4-36.8C559.4,446.2,553.5,433.8,541.3,429.8z"/>
	<path class="st4" d="M626.6,579c-25.9,6.9-52.4,16.2-79.3,18c-9.9,2.4-19.6,5.9-27.1,11.4c-6.3,4.6-11,10.7-15.6,17
		C548.9,640,605.5,622.1,626.6,579z"/>
	<path class="st4" d="M676,422.1c3.8,4.9,7.2,10,9.6,15.6c0.8,0.2,1.5,0.9,1.8,2.1c1.7,9.7,5.4,18.6,11.5,26.4
		c4.2,5.5,9,10.3,10.3,17.4c1.4,8.1-1.5,16.4-3.6,24.1c-0.6,2.4-1.3,4.8-1.9,7.1c0.7,0.7,1.4,1.6,1.9,2.7c2.5,5.3,3.6,12.7,4.8,18.3
		c3.4,14.9,4.5,30.8-0.4,45.5c-3.7,11-10,19.4-18.1,25.3c11.4,0.2,22.7,0.4,34.1,0.5c6.4,0.1,13.2,0.2,19.2-2.1
		c8.1-3.1,11.5-10.3,13.1-18.3c2.9-13.8,4-28.1,6.3-42c-0.1-0.7,0-1.3,0.3-1.9c0-0.2,0.1-0.5,0.1-0.7c2.7-15.7,6-31.3,9.8-46.8
		c3.2-13.2,9.6-27.7,9.3-41.4c-0.2-9.4-5.5-14.1-14.9-14.7c-3.4-0.2-6.8-0.2-10.2-0.3c-1,0.5-2.2,0.5-3,0c-2.9,0-5.7-0.1-8.6-0.3
		C722.8,436.9,698.8,431.2,676,422.1z"/>
	<path class="st4" d="M438.8,428.1c-1.3,0.7-2.6,1.5-3.9,2.4c-0.3,1.2-1.4,1.8-2.6,1.8c-17.1,12-31.4,32-33.8,52.4
		c-1.1,9.7,0.9,19.8,4.8,29.4c1.8,0.4,3.4,2.8,2.1,4.9c5.8,12.6,14.4,24.4,22.6,33.7c14.6,16.9,35.6,29.4,58.2,26.8
		c-14-17.2-24.7-37.6-28.4-59.5c-5.6-33,9.8-68.2,37.8-86.4C479.2,421.7,456.8,418,438.8,428.1z"/>
	<path class="st4" d="M500.9,649.6c-0.1,10.8,13.8,9.2,21.2,9.4c15.1,0.4,29.6-1.5,41.7-11.2c9.2-7.3,16.4-16.7,25.7-23.9
		c0.6-0.5,1.3-0.9,1.9-1.4c-23.9,13-53.1,17.3-79.7,11.1C506.8,637.7,500.9,642.7,500.9,649.6z"/>
	<path class="st4" d="M701.9,497.8c2.3-9.5,1.6-16.2-4.6-24c-5.6-7-10.1-14.2-13-22.3c-0.9-0.4-1.6-1.3-1.7-2.5
		c-1.2-12.4-10.6-22.7-18.3-31.9c-0.1-0.1-0.3-0.1-0.5-0.2c-1.1-0.5-1.5-1.3-1.6-2.2c-6.6-7.8-13.5-15.5-21.5-22
		c-15.7-12.8-36.8-19.5-56.5-13.9c5.5,3.6,10.5,8.2,14.6,14.3c11.3,16.8,14.8,38.2,15.5,58.1c0.7,1.8,1.4,3.7,1.9,5.6
		c7.4,5.2,14.3,11.8,18.3,19.8c9.3-10.4,29.5-7,37.6,3.4c11.8,15.3,10.4,42.3,3.5,59.4c-4.3,10.6-11.7,16.5-20.1,23.7
		c-2.3,1.9-4.4,3.9-6.6,5.8c4.9,3.3,10.2,6.3,15.8,8c10.4,3.2,15.5-1.4,18.6-10.9c4.9-14.7,8.1-30.1,12.1-45.1
		c0.3-1.1,0.6-2.2,0.9-3.2c-0.1-0.9,0.1-1.8,0.7-2.6C698.9,509.3,700.5,503.6,701.9,497.8z"/>
	<path class="st4" d="M552.9,478.4c-6.7-9.6-15.4-14.5-27.3-14.3c-10.1,0.2-22.2,1.4-30.9,7.1c-8.2,5.4-13.5,14.6-15.9,23.9
		c-8.8,33.7,9.4,64.1,28.1,90.3c0.3,0.5,0.5,0.9,0.5,1.3c2,0.8,4.1,1.4,6.2,2c5.3,0.7,10.6,2.2,16,2.4c0.4,0,0.8,0.1,1.2,0.3
		c5.3,0.3,10.6,0.2,15.9-0.3c9.4-2.3,19.1-3.7,28.1-4.8c0.2,0,0.4,0,0.6,0c7.6-1.8,15.2-3.9,22.8-6c10.6-2.8,21.8-4.9,32.3-8.4
		c0.4-0.2,0.8-0.3,1.2-0.4c1.5-0.5,3-1.1,4.5-1.7c2.2-0.9,4.1-2,5.9-3.3c0.3-0.3,0.7-0.6,1.1-0.7c3.2-2.4,6.2-5.2,9.3-7.9
		c5.1-4.3,10.4-7.9,14.1-13.6c6.7-10.2,8.1-23.3,7.9-35.2c-0.2-10.6-2.3-25.2-12.9-30.6c-7.5-3.9-19.9-3.2-24.2,4.9
		c0.5,1.7,0.8,3.4,1,5.2c0.3,2.4,0.3,4.8,0.2,7.1c0,0.3,0,0.5,0,0.8c-0.8,11.3-6,21.8-14.3,29.9c-3.3,3.2-6.6,6-10.1,8.3
		c0,0.1-0.1,0.2-0.2,0.3c9.5-6,17.5-14.2,29.3-14.8c1.1-0.1,1.9,0.4,2.4,1.1c0.6,0.5,1,1.2,0.9,2.2c-0.3,12.7-8.6,21.2-18.1,28.1
		c-0.2,0.6-0.6,1.2-1.3,1.6c-1.5,0.9-3,1.7-4.5,2.5c-0.1,0.1-0.3,0.2-0.4,0.2c-0.3,0.2-0.7,0.4-1,0.4c-18.4,8.9-38.7,10.5-58.7,5.3
		c-10.9-2.9-21.4-7.2-31.8-11.6c-10.3-4.4-18.4-10-23.5-20.1c-7.2-14.3-10.8-36.5,3.6-47.8c11.4-8.9,28.4-10,38.2,1.7c0,0,0,0,0,0
		c0.2,0.2,0.3,0.4,0.4,0.6c6.3,3.3,10.4,9.8,7.1,17.9c0.2,2.4,1.3,3.8,3,5.4c1,0.9,2.4,2.1,3.8,1.9c0.2,0,1.6-0.6,1.5-1.1
		c-0.9-0.6-1.4-1.7-1.1-3.1C566.2,496.2,558,485.7,552.9,478.4z"/>
	<path class="st4" d="M600.2,533.8c8.7-0.6,16-7.4,21.8-13.5c3.7-4,6.6-8.6,8.5-13.6c-10.5,10.4-23.9,17.6-38.2,21.8
		c-3,0.9-6.1,1.7-9.3,2.3C587.2,534.3,595.6,534.1,600.2,533.8z"/>
	<path class="st4" d="M561.3,717.4c14.1-1.6,28-1.1,42.1-1.2c14.2,0,32-2.1,40.2-15.5c7.9-12.8,2.2-28.6-2.5-41.5
		c-5-13.8-10.2-27.6-15.3-41.4c-1.7,0.1-3.3,0.2-5,0.4c-14.9,1.5-26.1,8.1-36.6,18.4c-8.9,8.7-17.3,18.2-28.9,23.3
		c-12.1,5.4-25.7,5.4-38.7,4.8c-9.4-0.5-19.8-1.2-21.5-12.4c-1.4-8.6,3.8-15.2,9.8-20.6c-1.4-0.4-2.7-0.9-4.1-1.4
		c-3.6,4.6-7.3,9.1-11.9,12.7c-10.6,8.4-28.7,9.6-40,1.5c-5.8-4.1-7.6-11.8-5.8-18.5c-3.3,0.5-6.7,0.5-9.9-0.1
		c-7.5-1.4-14.3-5.2-20.1-10.3c-10.2,8.3-21.7,15-31.1,24.1c-16.6,16.1,5.9,33.8,19,42.9c23.5,16.4,50,29.2,75,43.1
		c8.9,5,15.7,9.2,26.2,5.7c6.4-2.1,12.6-4.5,19-6.4C534.2,721.5,547.7,718.9,561.3,717.4z"/>
	<path class="st4" d="M375.9,668.3c-7.3-9.9-9-21.4-0.1-30.9c4.8-5,10.3-9.3,15.9-13.4c-3.4,1.1-6.9,2.1-10.4,3
		c-8.9,2.1-20.8,5.3-29.8,2.6c-18.6-5.6-9.8-32.1-8.6-45.2c2.1-23-0.7-46.4-8.1-68.2c-4.3,11.7-8.7,23.5-13,35.2
		c-4.8,13-11.1,26.4-13.2,40.2c-4.3,28,21.9,38.7,35.8,58.3c15.4,21.8,24.9,47.8,38.3,70.9c15.4,26.7,41.7,1.6,61.9-5.3
		c-11.1-6.1-22.2-12.3-33.1-18.7C398.6,689.1,384.9,680.4,375.9,668.3z"/>
	<path class="st4" d="M391.2,530.7c0.1,0.1,0.1,0.2,0.2,0.2c1-2.5,2.3-4.9,3.6-7.3c-0.2-1.4,0.5-2.9,2-3.3c0.5-0.8,1-1.6,1.6-2.4
		c-1.3-3.1-2.5-6.3-3.5-9.5c-6.7-21.1-0.6-42.1,12.2-59.6c5.7-7.8,13-15.7,21.4-21.8c-1.7-23.9,18.7-40.4,37.9-50.8
		c3.9-2.1,7.9-4.1,11.9-5.9c-24.6-4.7-50.2-9.4-75.2-5.3c-10.3,1.7-20.8,5.2-28.8,12.1c-9.8,8.5-9,18.2-9.6,30.2
		c-0.5,10.8-4.7,20.7-7.9,30.8c-3.7,11.6-4.7,23.1-1.7,35C360.8,495.5,376.1,514.1,391.2,530.7z"/>
	<path class="st4" d="M349.5,562.9c0.4,10-0.1,20-1.5,29.9c-1.1,7.8-4.7,19.1-0.2,26.5c5.8,9.7,24.7,3.8,33.4,1.6
		c9.3-2.3,18.2-5.7,26.8-10c-3.2-3.4-6.1-7.1-8.6-10.9c-13-19.2-16.7-43.1-9.6-64.2c-0.9,0.2-1.8,0-2.6-0.9
		c-16.2-17.9-33-38.3-38.1-62.5c-2.5-11.7-1.5-23.1,1.9-34.5c0.8-2.6,1.7-5.2,2.6-7.8c-7.6,0.7-15.2,1.4-22.8,2.2
		c-4.6,0.4-8.1-0.8-8.5,4.9c-0.3,3.9,1.5,7.1,4.4,9.6c1.4,1.2,1.1,3.9-0.6,4.7c-4.5,2.2-8.7,2.8-13.1,1.8
		c1.5,9.8,6.7,18.3,11.8,26.9c4.7,7.9,8.9,15.9,12.4,24.4C344.4,523.1,348.7,543,349.5,562.9z"/>
	<path class="st4" d="M719.2,698.3c-11.3,5.9-22.4,12.1-33.3,18.8c-11.8,7.3-22.5,16.7-34.9,22.9c-20.4,10.1-42.3,2.5-52.2-17.7
		c-16.6,0-32.9,0-49.5,2.8c-8.5,1.4-16.9,3.3-25.2,5.7c-5.8,1.7-11.5,4-17.2,5.9c0.2,0.4,0.3,0.8,0.3,1.3c0,8,0.1,15.9,0.1,23.9
		c0,3,0,6,0,9c0,3.6-1,9.1,0.3,12.5c2.6,7,15.6,6.3,21.3,5.7c6.9-0.7,13.8-2.7,20.5-4.7c25.8-7.5,50.5-18.5,76.2-26.5
		c24.8-7.7,51.3-9,75.6-17.8c21.3-7.8,47.5-28.4,41.2-53.7C734.6,690.3,726.9,694.2,719.2,698.3z"/>
	<path class="st4" d="M769.6,551.1c-1.8,11.6-3.1,23.4-5.1,35c-1.6,8.9-4.9,17.8-13.1,22.6c-8.9,5.2-20,4.5-30,4.4
		c-13.1-0.2-26.1-0.4-39.2-0.6c-0.2,0-0.4,0-0.6-0.1c-6.7,2.9-14.2,4.6-22.3,5.1c-9.1,0.6-18.2,0.1-27.2,0.2
		c6.8,18,15,36.1,19.5,54.8c3.4,14,2.2,28.9-9.4,38.8c-10.2,8.7-23.7,10.7-36.6,11c6.3,10.4,17.3,18.1,30,16.4
		c13.9-1.8,24.8-11.9,36-19.5c36-24.4,76.9-40.4,113.4-64c9.6-6.2,18.8-13,27.4-20.6c3.8-3.4,8.3-6.9,11.4-10.9
		c6-7.9-2.7-14.6-7.7-20.2C800.6,586,785.1,568.6,769.6,551.1z"/>
	<path class="st4" d="M400.5,590.6c3.5,6.4,7.9,12.7,13.3,17.9c0.6,0.1,1.1,0.5,1.5,0.9c0.5,0.4,0.8,0.9,1,1.4
		c2.6,2.3,5.5,4.3,8.5,5.9c11.3,6.1,26.7,5.1,32.5-7.9c1.1-2.4,3.8-1.7,5,0c6.6-5.6,12.9-11.6,20.6-15.5c4.8-2.4,10.1-3.5,15.4-4.2
		c-2.4-1.3-4.8-2.8-7.2-4.5c-22.8,4.3-45.2-5.5-61.5-21.4c-11.1-10.8-21.1-24.6-28.2-39.1C388.7,544.2,389.1,569.8,400.5,590.6z"/>
	<path class="st4" d="M680.6,606.9c0.2-0.1,0.4-0.2,0.7-0.3c3.9-1.8,7.6-4.3,11-7.6c10-9.7,14.6-23.8,15-37.5c0.2-8.6-1-17.2-3-25.5
		c-0.1-0.5-2-6.9-3.2-11.5c-1.1,4.2-2.3,8.4-3.4,12.7c-2.6,9.8-4.8,19.7-7.9,29.4c-1.6,5.2-3.8,10.7-8.1,14.2
		c-10.7,9-27.7-1.1-37.6-8.2c-0.9,0.6-1.9,1.1-2.9,1.6c-2.3,1.1-4.7,2-7.2,2.7c-7.5,17.5-20.2,31.5-35.7,41.6c6.2-3.1,13-5,20.1-5.9
		C638.3,610.1,662,615.3,680.6,606.9z"/>
	<path class="st4" d="M458.2,642.4c7.5,2.2,16.6,2.5,23.5-1.5c11.3-6.5,17.5-19.5,26-29c5.8-6.5,13.1-11.2,21-14.8
		c-5.6-0.4-11.1-1.2-16.5-2.6c-2.1-0.2-4.3-0.3-6.4-0.1c-8.2,0.8-16.3,1.9-23.4,6.3c-11.4,7.2-20,18.2-32.4,23.9
		C444.9,632.1,450.7,640.2,458.2,642.4z"/>
	<path class="st4" d="M434.7,423.2c6.1-3.6,12.7-6.2,19.6-7c16.1-2,34,4.3,46.8,14.2c1.8-1,3.6-1.9,5.5-2.7
		c16.2-7.1,37.2-8.9,50.3,5.2c0.9,0.9,1.7,1.9,2.5,2.9c7.3-7.4,18.4-14.4,28.7-13.3c7.8,0.8,14.5,7.9,19.4,15.5
		c-1.5-13.4-4.8-26.8-11.5-38.4c-11.1-19-30.3-23.5-50.5-27.9c-12.6-2.7-25.4-4.9-38.3-3.4c-11.5,1.3-22.5,5.4-32.7,10.6
		C456.6,388,435.6,401.7,434.7,423.2z"/>
	<path class="st4" d="M541.3,364.7c6.7,1.3,13.5,2.7,20.1,4.5c-0.5-0.6-1.1-1.2-1.7-1.8c-5.9-6.8-11.7-18.3-20.3-21.9
		c-8.5-3.5-13.2,3.4-19,8.2c-3.4,2.8-7,5.4-10.7,7.8c-0.4,0.3-0.9,0.5-1.3,0.8C519.4,361.2,530.4,362.6,541.3,364.7z"/>
	<path class="st4" d="M643.1,386.9c9.4,7.3,17.4,16.2,25,25.3c27.1,12.3,56.3,19.4,86,20.7c-3.6-13.1-12.5-23.4-20.8-34
		c-9.5-12.2-19.1-24.4-28.6-36.6c-4.7-6-10-17.9-19.3-14.8c-2.5,0.8-4.8,2.6-7.3,3.6c-6.3,2.3-13.1,3.6-19.7,4.8
		c-18.2,3.3-36.8,5.3-55.3,6.8c-12.3,1-24.8,2.2-37.3,2.1c3.7,3.8,7.6,7.1,12.3,9.8C600,366.1,625,372.8,643.1,386.9z"/>
</g>
</svg>
