<?xml version="1.0" encoding="utf-8"?>
<!-- Generator: Adobe Illustrator 22.0.0, SVG Export Plug-In . SVG Version: 6.00 Build 0)  -->
<svg version="1.1" id="Layer_1" xmlns="http://www.w3.org/2000/svg" xmlns:xlink="http://www.w3.org/1999/xlink" x="0px" y="0px"
	 viewBox="0 0 1133.9 1133.9" style="enable-background:new 0 0 1133.9 1133.9;" xml:space="preserve">
<style type="text/css">
	.st0{fill:#1C1A1A;}
	.st1{fill-rule:evenodd;clip-rule:evenodd;fill:#1C1D1D;}
	.st2{fill:#1C1D1D;}
	.st3{fill:#010101;}
	.st4{fill:#333333;}
</style>
<g id="OBJECTS_8_">
	<g>
		<path d="M424.9,474.5c-22.5-22.8-62.1,50.8-62.1,50.8S447.2,497.3,424.9,474.5z"/>
		<path d="M452.2,638.4c29.8-11.5-21.5-77.1-21.5-77.1S422.1,649.7,452.2,638.4z"/>
		<path d="M497.2,511.5c-22.5-22.8-62.1,50.8-62.1,50.8S519.5,534.1,497.2,511.5z"/>
		<path d="M1066.4,514.8c-9.5-22.8-50.3,3.8-68.1,17c7-21.5,10.5-44,9.5-65.8c6.5-20.5,21.8-75.3-4-72.6
			c-20.8,2.3-13.8,35.8-6.5,58.6c2.8,25.3-0.8,50.8-9,75.3c-7.8-19-31.5-73.3-49.8-54.3c-19,19.8,33.3,50.3,48.3,58.6
			c-7.8,21.5-19.3,42-33.5,60.6c1-23.8,0.8-73.8-22-65.3c-24.5,9.3,5.5,55.3,17,71.6c-14,17-30.3,32.3-47.8,44.3
			c5.5-22,16-74.8-9-70.3c-26,4.5-4.5,56.3,3.5,73.8c-8.3,5.3-16.5,10-25,13.8c-12.5,5.8-25.5,9.5-39,12.3c5-10.3,37-78.1,7.5-78.3
			c-29.8-0.3-11.3,68.8-8.5,78.6c-20.8,4-42.3,5-63.8,4c11-14.3,49.1-66.3,22.3-72.3c-27-6.3-26,56.1-25.3,72.3
			c-19.5-1.3-39-4-57.8-7.3c14-12.5,59.8-55.6,35-66.6c-25.3-11-36,49.3-38.3,65.8c-6.8-1.3-13.3-2.5-19.8-4
			c-15.5-3.5-30.8-7.5-45.8-12c15.5-8.5,71.6-41.3,49.3-57.8c-22.8-16.8-46.8,42.8-52.3,56.8c-21.8-6.8-43.3-14.3-64.3-23
			c11.5-5.5,77.1-38,54.3-56.6c-23-18.5-51.3,46.1-55.6,56.1c-21.8-9-43.3-19-64.6-29.3c7-2.5,82.8-28.8,61.6-50.6
			c-21.5-21.8-58.8,45-61.8,50.3c-14-7-27.8-14-41.3-21.3c-57.1-30.8-112.1-64.3-171.7-76.6c8-5.3,72.8-47.8,47.3-63.6
			c-25.8-15.8-46.1,56.1-47.8,63.3c-20.5-4.3-41.5-6-63.3-4.3c14-15.8,51.3-60.3,26.3-68.3c-25.8-8.3-30.3,50.8-31.3,68.6
			c-13.3,1.3-26.8,4-40.8,8c-6.3,1.8-12.3,4-18.5,6.5c11-20,34.3-68.1,9-70.1c-26.5-2.3-18.8,53.8-15.3,72.6
			c-19,8.3-37.3,19.5-53.6,32.8c5.8-22.8,15.5-73.3-8.8-69.1c-26,4.5-4.8,56.3,3.3,74.1c-11.5,10-21.5,21.3-30,33
			c-1.5,2,8,8.5,9.5,6.3c6.8-9.8,14.8-18.8,23.5-27.3c14.3,11.5,65.1,50.1,71.8,23.5c6.3-25.3-47.8-27-68.1-26.8
			c15.5-14,33.3-25.8,52.1-35c10.3,13.8,50.8,65.8,64.1,41.5c12.8-23.3-41.8-38.8-60.3-43.3c11.8-5.5,24-10.3,36-13.8
			c7.5-2.3,14.8-3.8,22-5.3c4.8,11.3,34.8,78.8,54.3,56.8c18.8-21.3-39-50.8-52.3-57.1c22.3-3.8,44.3-3.5,65.8-0.3
			c2.5,14.8,15.3,83.3,38.8,67.1c22.3-15.5-21.5-54.8-35.3-66.6c23.5,3.8,46.8,11,69.6,20.5c-0.8,8-6.8,87.3,21.5,76.6
			c27.5-10.5-14.3-67.8-20.5-76.1c47.8,19.5,93.9,48.1,139.2,73.1c-0.5,6.8-7,87.6,21.5,76.8c27.8-10.5-14.8-68.6-20.8-76.3
			c19.5,10.8,39,20.8,58.3,29c1.8,0.8,3.8,1.5,5.5,2.3c0.3,11,3.5,86.6,29.8,73.1c25-13-17.5-61.1-27.8-72.1
			c19.8,8.3,41,16.8,63.1,24.3c0.8,10,7.3,86.6,33.3,71.8c25-14.3-22-61.8-31.5-71.3c22,7.5,44.5,14,67.6,19
			c3.3,10.8,26.3,82.3,48.1,62.3c20.5-18.8-31.5-53.3-45.3-61.8c20,4.3,40,7.3,60.1,8.5c6.5,12.3,41.3,74.8,58.6,51.6
			c15.8-21.3-35.5-44-53.6-51.3c22,1.3,44,0.3,65.3-3.5c13,14.8,54.8,59.6,65.8,35c9.5-21.3-32.3-32.5-55.3-37.3
			c19.5-4.3,38.5-11.3,56.6-21c12.5,10,66.3,51.6,73.1,24.3c6.3-25.5-49.1-26.8-68.8-26.5c19-11.3,37-26.8,52.6-45
			c16.3,8.5,73.6,36.8,75.1,9.3c1.3-25.8-51.6-17.5-71.6-13.3c16.3-20,29.8-43.3,38.5-67.6C1015.8,539.3,1076.6,539.6,1066.4,514.8z
			"/>
	</g>
</g>
</svg>
