<?xml version="1.0" encoding="utf-8"?>
<!-- Generator: Adobe Illustrator 22.0.0, SVG Export Plug-In . SVG Version: 6.00 Build 0)  -->
<svg version="1.1" id="Layer_1" xmlns="http://www.w3.org/2000/svg" xmlns:xlink="http://www.w3.org/1999/xlink" x="0px" y="0px"
	 viewBox="0 0 1133.9 1133.9" style="enable-background:new 0 0 1133.9 1133.9;" xml:space="preserve">
<style type="text/css">
	.st0{fill:#1C1A1A;}
	.st1{fill-rule:evenodd;clip-rule:evenodd;fill:#1C1D1D;}
	.st2{fill:#1C1D1D;}
	.st3{fill:#010101;}
	.st4{fill:#333333;}
</style>
<path class="st4" d="M855.1,615.8c-5-8.5-14.4-16.4-20.9-23.8c-15-16.9-30-33.7-44.9-50.6c3.2-18,6.9-35.9,11.2-53.6
	c4.5-18.2,22.9-59.7-7-66.4c-5.1-1.1-10.6-1.1-16-1c-3.1-12.8-10.2-23-18.2-33.4c-10.9-14.1-22-28.2-33-42.2c-6-7.6-15-26.9-26.8-26
	c-7.2,0.5-14.9,6.5-22.2,8.3c-20.8,5.3-42.5,7.4-63.8,9.3c-17.8,1.6-36,3.5-53.9,2.8c-0.2,0-0.4,0-0.6,0c-0.7-0.9-1.4-1.7-2.1-2.6
	c-6.2-7.8-12.4-17.7-23-19.5c-8.3-1.4-13.3,3.2-19.2,8.3c-11.8,10.4-24.7,17.6-39.8,21.9c-0.4-0.6-1-1.1-2-1.3
	c-30.6-5.8-63-12.2-93.9-4.9c-18.6,4.4-38.2,16.3-40.3,37c-0.9,8.9,0,17.3-2.1,26.1c-0.5,2.1-1.1,4.2-1.8,6.3c-0.2,0-0.5,0-0.7,0
	c-9.1,0.9-18.2,1.7-27.3,2.6c-4,0.4-8.8-0.2-11.9,2.5c-5.4,4.7-3.7,13.2-0.3,19.4c-2.8,0-5.7,0-8.5,0c-2.1-1-5.1,0.1-5,2.8
	c1.2,23.5,18.2,43.1,27.6,64.4c-0.1,0.2-0.2,0.3-0.2,0.5c-6.2,16.8-12.5,33.6-18.7,50.5c-5.3,14.4-12.4,29.4-13.4,45
	c-2,30.7,27.4,43.2,42.4,65.5c9.2,13.6,15.8,29.2,23.4,43.8c6.8,13.1,13.1,31.9,24.6,41.6c22,18.5,49.1-8.3,69.9-14.2
	c1.1-0.3,1.8-1,2.1-1.8c1.4,0.8,2.8,1.6,4.3,2.4c12.6,7.1,29.1,21.3,44.5,20.3c2.2-0.1,4.4-0.5,6.5-1.1c0,9.7,0.1,19.4,0.1,29.1
	c0,7-1.9,17.2,1.4,23.8c5,9.9,21,9.8,30.3,8.7c36.1-4.3,70.4-23,104.8-33.8c32.5-10.2,69.7-10,99.8-27
	c21.5-12.1,40.7-35.4,33.6-61.1c3.7-1.9,7.4-3.9,11-5.9c15.9-8.6,31.5-17.7,46.2-28.4c11.1-8.1,29.5-19.8,35.5-32.6
	C858.7,623.1,857.6,620.1,855.1,615.8z M803.6,442.4c0.9,14.3-6.1,30-9.5,43.7c-4.4,17.9-7.8,35.8-10.9,53.9c-0.9,1-1.2,2.4-0.6,3.7
	c-2.2,13.1-4.2,26.2-6.2,39.3c-1.7,10.9-4.4,21.9-16.1,26.1c-6.4,2.3-13.6,2.1-20.3,2c-12.3-0.1-24.6-0.3-36.9-0.6
	c6.5-4.6,12.1-11.1,16.4-20.2c7.6-15.9,7.9-33.9,4.8-51c-1.4-7.8-2.8-18.7-6.5-25.9c-0.7-1.4-1.4-2.5-2.2-3.2
	c0.5-1.8,0.9-3.6,1.4-5.3c2.3-8.7,5.9-18.2,4.9-27.4c-0.7-6.1-3.6-10.6-7.2-15.4c-8.1-10.9-14.2-20.6-16.8-34.1
	c-0.3-1.3-1.1-2.1-2.1-2.3c-2.6-6.1-6.3-11.7-10.5-17.1c22.4,8.9,45.9,14.9,70,17.4c4.5,0.5,10.6,0.3,16.9,0.3
	c1.1,1.6,3.5,1.5,4.9,0.1C790.2,427,802.8,429.7,803.6,442.4z M690.8,610.6c-20.5,9.4-46.6,3.6-68.5,6.4
	c-25.2,3.2-37.7,19.4-55.7,35.1c-13.6,12-28.8,15.9-46.8,15.7c-6.5-0.1-17.3,1.1-22.5-3.1c-9.7-8,1.5-18.9,8.5-24.7
	c51.9,11.8,112-11.9,133.6-62.1c3.8-1.2,7.6-2.7,11-4.7c10.7,7.7,28.6,18.6,40.7,9.3c11.7-9,13.2-30.8,16.7-43.8
	c1.7-6.5,3.5-13,5.2-19.4c2.3,9.8,6.4,36.2,6.5,38.3c0.2,16.4-4.7,33.7-17.1,45.2c-3.6,3.3-7.5,5.8-11.6,7.7
	C690.9,610.6,690.9,610.6,690.8,610.6z M383.3,591.6c-11.7-22.6-11.6-49.5,1.7-70.9c6.6,13.1,15.6,25.3,24.3,35.4
	c18.6,21.4,45.3,35.6,73.9,30.4c2.5,1.8,5.2,3.4,7.9,4.8c-5.3,0.5-10.6,1.8-16.1,4.4c-8.8,4.2-15.9,10.9-23.3,17.2
	c-1.3-1.8-4.2-2.5-5.4,0.1c-1.8,3.7-3.8,6.5-6,8.6c-1.4,0.9-2.9,1.7-4.4,2.5c-0.7,0.1-1.4,0.4-1.9,1c-0.5,0.2-0.8,0.5-1.1,0.9
	C414.9,631,390.8,606.2,383.3,591.6z M541.1,353.2c22.6,4.7,44.4,9.7,56.8,30.9c7.4,12.7,11,27.3,12.6,42
	c-5.4-8.2-12.7-15.8-21-16.9c-11.5-1.5-23.7,6.4-31.7,14.6c-4-5-8.8-9.3-15-11.9c-15.8-6.6-33.7-2.6-48.9,5.9
	c-18.1-13.9-43.7-20.8-65.1-11.3c-2.5,1.1-4.9,2.4-7.3,3.7c1.1-23.6,23.2-38.4,43-48.4C489.6,349,513.6,347.4,541.1,353.2z
	 M670.4,400.6c0,1,0.5,1.9,1.7,2.4c0.2,0.1,0.4,0.2,0.5,0.2c8.7,10.2,18.3,21.2,19.9,34.9c0.2,1.3,0.9,2.2,1.9,2.7
	c2.5,7.4,6.1,14.2,11.1,20.6c7.1,9.2,11.2,16.3,8.6,28.4c-1.4,6.8-3.4,13.5-5.3,20.2c-1,0.8-1.2,2.1-0.9,3.3
	c-0.1,0.4-0.2,0.8-0.3,1.2c-4,15.1-7.9,30.1-12,45.2c-2.8,10.4-5.6,20.8-20.3,18.9c-6.2-0.8-13.3-5.1-19-9.2
	c5-3.9,9.7-8.5,14.4-12.5c20.6-17.6,26.8-55.7,14.1-79.8c-7.9-14.9-32.8-22.4-44.4-8.9c-4.5-8.8-11.9-15.9-20.1-21.7
	c-0.6-2.1-1.3-4.2-2.1-6.1c-0.9-21.9-4.6-45.3-17.2-63.8c-4.3-6.4-9.7-11.3-15.7-15.2c22-6,45.1,1.4,62.6,15.9
	c8.3,6.9,15.6,14.9,22.5,23.1C670.4,400.5,670.4,400.5,670.4,400.6z M633.4,572.9c-18.8,5.3-38,11.1-57.4,15.4
	c-0.4-0.1-0.9-0.2-1.4-0.1c-9.8,1.3-20.5,2.8-31,5.3c-5.8,0.5-11.6,0.6-17.3,0.3c-0.3-0.1-0.7-0.2-1.1-0.2c-2.6-0.1-5.1-0.4-7.6-0.6
	c-5.7-0.8-11.3-2.2-16.6-4.3c-0.1-0.4-0.2-0.9-0.6-1.4c-19.4-27.2-36.1-55-32.2-90c3-27.5,21.1-40.4,47.4-42.5
	c13.9-1.1,25,2.2,33.7,13.6c6.2,8.1,15.8,20.8,13.6,31.3c-0.3,1.4,0.3,2.6,1.2,3.3c0.2,0.5-1.4,1.2-1.7,1.2
	c-1.5,0.2-3.1-1.2-4.2-2.1c-2-1.7-3.2-3.4-3.3-6.1c2.9-8.6-1.2-15.8-7.7-19.5c0,0,0-0.1-0.1-0.1c-0.1-0.2-0.2-0.4-0.4-0.6
	c0,0,0,0,0,0c-11-12.6-29.3-11.8-41.9-1.8c-15.3,12.2-11.9,35.9-4.2,51.4c10.2,20.9,37,28.7,57.8,34.7c22.9,6.6,46,5.3,67.1-4.8
	c0.4-0.1,0.9-0.2,1.3-0.5c0.2-0.1,0.4-0.3,0.6-0.4c1.6-0.8,3.2-1.7,4.8-2.6c0.8-0.4,1.2-1.1,1.4-1.7c10.4-7.6,19.5-16.9,19.8-30.8
	c0-1-0.3-1.8-0.9-2.3c-0.5-0.8-1.4-1.4-2.7-1.3c-12.8,0.9-20.6,9.1-31,15.6c-0.4,0.2-0.8,0.5-1.1,0.7c0.1-0.1,0.2-0.2,0.2-0.4
	c4-2.6,7.8-5.8,11.5-9.5c8.8-8.8,14.5-20.3,15.3-32.6c0-0.2,0-0.3,0-0.5c0.1-2.6,0.1-5.3-0.3-8c-0.2-1.9-0.6-3.7-1.1-5.5
	c5.6-10,22-9.8,30.1-2.9c9.8,8.3,10.7,23.9,10.4,35.6c-0.4,15-3.6,30-14.5,40.9C659.2,559.5,647.3,569.1,633.4,572.9z M488.1,582
	c-0.4-1.2-1.4-2.2-2.8-2.3c-32.8-38.7-47.8-94.7-12-136.7c14.7-17.2,40.4-33.1,63.9-26.2c14.9,4.3,22,20.4,28.5,33.1
	c6.1,11.9,11.4,24.1,16.1,36.5c-0.1,0.9,0.1,1.8,0.9,2.6c0.1,0.1,0.1,0.1,0.2,0.1c0,0,0,0,0,0c0.5,1.5,1.8,2.2,3,2.2
	c9.1,5,22.3-1.6,28.5-8.8c6.3-7.4,8.4-16.9,7.7-26.3c9.8,8.9,15.7,20.3,15.7,32.2c-15.4,20.7-41.8,32.2-67.1,34.1
	c-10.1,0.8-21.4,0.4-30.6-4.2c-6.1-3.1-11.1-8.6-14-14.8c-3-6.3-3.5-13.9,1.9-19.1c3.1-2.9,10.4-4.4,15.7-2.9c0,0,0.1,0,0.1,0
	c4.9,1.4,8,5.3,4.8,12.8c-0.2,0.6-0.3,1.1-0.3,1.6c0,0,0,0,0,0c0,0,0,0,0,0c0,0.2,0,0.3,0.1,0.5c0.5,6.5,5.6,13,12.3,14.1
	c6.6,1.1,12-5.3,8.9-11c1.4-9.8-3.2-16.3-8.4-24.9c-5.8-9.7-12.2-19.4-23.1-24c-20-8.4-51.8-1.4-65.1,15.8
	c-27.8,36-5.9,83,16.4,116.3C489,582.6,488.6,582.3,488.1,582z M615.4,463.1c-0.6,5.7-2.3,10.6-6.1,15.1
	c-3.8,4.5-14.5,11.8-20.9,7.1c-5.7-15.2-12.3-30.1-20.1-44.5c-2.1-3.9-4.2-7.8-6.6-11.5c4.3-4.5,9.3-8.2,15-10.8
	c14.6-6.6,22.7,3,30.3,15C612.7,442.4,616.5,452.3,615.4,463.1z M624.3,548.6c-25.4,12.7-53.8,10.4-79.9,0.7
	c16.2,4.9,32.7,4.2,49.5-0.4c9.8-2.7,19.7-6.3,28.3-11.8c8.1-5.1,14.8-12.2,24.3-14.2C644.5,534.8,634,542.3,624.3,548.6z
	 M577,529.7c2.8,3.7,7,5.7,11.6,6.7c-5.1,1.1-10.3,1.8-15.5,2.1c-18.2,0.9-41.8-6.4-47.6-23.9c3.3,4.1,7.3,7.4,11.3,9.5
	C548.7,530.3,562.8,531.7,577,529.7z M524.4,478.3c-4.2,3.3-6.4,7.5-7.1,11.9c-7.6,19.1-6.3,40.9,11.5,52.3
	c-2.2-1.1-4.4-2.2-6.5-3.4c-16.4-9.1-28.3-36-18.5-53.8c5.6-10.1,18.4-14.1,28.8-10.8C529.7,475,526.9,476.3,524.4,478.3z
	 M564,546.3c-16.6-1-39.5-7.3-44-25.7c-0.4-1.7-0.6-3.3-0.8-5c4.9,15.8,20.9,26,38.6,28.8c17.2,2.7,35.8-0.8,51.9-7.9
	C595.7,543.2,578.6,547.2,564,546.3z M603.4,530.8c-4.9,0.6-13.5,0.7-18.6-2.5c19.3-4.4,38-14.7,51-27.6c-1.7,4.8-4.4,9.5-8.3,14
	C621.3,521.8,612.8,529.6,603.4,530.8z M418.7,419.7c1.3,0,2.6-0.6,2.9-2c1.2-0.7,2.3-1.5,3.5-2.1c20.1-11.5,44.5-7.5,62.8,5.7
	c-5.4,3.6-10.3,7.6-14.5,11.8c-42.7,43-30.4,104.3,4.2,147.6c-24.1,2.6-46.3-9.9-62.3-27.7c-9.4-10.5-19.4-24-26.1-38.5
	c1.3-2.2-0.3-4.9-2.3-5.3c-4.2-10.5-6.4-21.4-5.2-31.9C384.3,454.9,399.9,432.8,418.7,419.7z M438.1,630.7c2.1-0.9,4.1-2.1,6-3.8
	c10.1-6.4,18.2-15.4,28.3-22c13.9-9.1,28.1-7.1,42.9-5.6c2.7,0.4,5.3,0.7,8,1c-7.1,3.2-13.6,7.3-19,12.7c-8.6,8.5-14.6,19.2-23,27.9
	c-7.1,7.3-14.8,10.8-25,10.3c-3.8-0.2-11.8-0.8-15-3.8C436.9,643,435.5,636.1,438.1,630.7z M509.1,617.6c9.3-9,22.3-14.2,35.7-17.5
	c8.9-0.8,17.7-2.2,26.1-4.1c19.5-4.3,38.7-9.9,57.9-15c0.9-0.2,1.7-0.5,2.6-0.7c-23.3,47.1-84.7,66.4-133.4,50.7
	C501.4,626.3,505,621.6,509.1,617.6z M664.2,336.5c7.4-1.3,14.9-2.7,22-5.2c2-0.7,4.1-2,6.1-2.5c2.1-1.4,4.5-1.5,7.1-0.2
	c4.4-1.3,7.4,0.1,9,4.1c2.8,2.4,5,6.4,7.3,9.3c10.2,13,20.3,26,30.5,39c9.7,12.4,20.2,24.2,24.5,39.5c-0.7,0-1.3,0-2-0.1
	c-10.9-0.6-21.7-1.8-32.4-3.8c-20.6-3.8-40.5-10.2-59.6-18.8c-8.3-10-17-19.7-27.3-27.7c-19.9-15.6-46.8-22.5-71-13.4
	c-5.2-3-9.5-6.7-13.5-10.8C597.7,346.5,632,342.3,664.2,336.5z M533.9,323.9c10.6,3.6,17.4,17.1,24.5,25.1c0.4,0.5,0.9,1,1.3,1.5
	c-8.7-2.4-17.7-4-26.5-5.5c-11.3-2-22.1-2.3-32.6-1c1.1-0.6,2.3-1.3,3.4-2C511.4,337.2,524.9,320.8,533.9,323.9z M344.8,394.8
	c1.1-12.8-0.8-24,9.4-33.9c8-7.7,19-11.8,29.7-14c28.4-5.7,57.8,0,85.7,5.3c-5.3,2.2-10.7,4.8-16,7.8c-20.4,11.6-40.2,29-38.7,54.2
	C395,428,379.1,450.9,375.6,474c-2,13.4,0.8,27,6.3,39.9c-0.5,0.7-1,1.4-1.5,2.2c-1.8,0.4-2.6,2.2-2.3,3.8c-1.5,2.6-2.8,5.2-3.9,7.9
	c-0.1-0.1-0.2-0.2-0.3-0.4c-16.1-17.8-32.5-37.5-38.9-61.1C327.7,440,342.6,420.1,344.8,394.8z M302.3,440.9
	c1.9-0.9,2.1-3.8,0.7-5.2c-3.8-3.7-6.1-11.5-0.8-15.4c2.1-1.6,8.9-0.8,11.4-1.1c6.3-0.6,12.6-1.2,18.9-1.8c-0.9,2.5-1.8,5-2.5,7.5
	c-3.8,12.4-5.1,24.7-2.6,37.5c5.3,27.1,23.9,49.7,41.9,69.6c0.9,1,2,1.2,2.9,0.9c-7.9,23.8-3.6,50.4,11.6,71.9
	c2.3,3.3,5.3,6.7,8.8,10c-17.9,8.8-65.8,28.3-68.1,1.8c-0.7-8.1,1.6-16.3,2.6-24.4c1.4-11.2,1.8-22.4,1.1-33.6
	c-1.2-19.9-5.5-39.7-13-58.2c-7.6-19.1-23.9-37.3-27-57.8C292.8,443.8,297.2,443.2,302.3,440.9z M403.4,743.7
	c-7.3,3.4-15.9,6.3-24.1,4.6c-9.7-2.1-14.1-11.2-18.4-19.2c-13.5-24.8-24.1-53.4-41.7-75.6c-6.3-8-14.3-14.2-21.5-21.3
	c-12.7-12.5-17.2-25.6-13.3-43.3c5.8-26.2,17.8-52.1,27.6-77.3c9.1,27,11.9,56,7.8,84.2c-2,13.4-6.5,35.2,11.2,40.1
	c9.8,2.7,22.8-0.7,32.4-3.1c3.3-0.8,6.6-1.7,9.9-2.8c-16.5,12.1-30.9,26.6-17.2,46.6c8.6,12.6,22.4,21.8,35.2,29.6
	c13.3,8.2,27.2,15.8,40.9,23.3C421.9,733,413.2,739,403.4,743.7z M473.9,745.3c-8.8-3.8-17.1-9.6-25.5-14.3
	c-17.4-9.7-35.1-19-52.1-29.4c-14.4-8.8-51.2-30.7-35.7-51.7c9.1-12.3,25.5-20.2,37.7-29.9c9.5,7.4,21,12.9,31.4,12.5
	c-7,21.1,29.1,30.7,45.6,21.7c7.6-4.2,13.2-10.7,18.4-17.6c1.5,0.5,3.1,1,4.6,1.5c-8.4,8-16.5,20-7.3,30.4
	c8.6,9.8,32.3,6.6,43.6,5.3c17.1-2,29.9-10.2,42-22c16.4-16,30-27.5,54-29c7,18.7,14.9,37.4,20.6,56.6c7,23.8-0.9,44.1-26.6,49.4
	c-6.5,1.3-13.2,1.9-20,2c-0.7-0.3-1.4-0.2-2.1,0c-13.3,0.2-26.9-0.9-40,0.4c-17.7,1.8-35.2,5.3-52.1,10.7
	C497,746.3,488.3,751.4,473.9,745.3z M710.7,757.1c-25.8,8.9-53.6,10.5-79.7,18.5c-26.4,8.1-51.7,19.2-78.1,27.4
	c-14.6,4.5-43.6,16-52.1-3.1c-2.3-5.1-0.1-17.1-0.1-22.9c0-7.6-0.1-15.3-0.1-22.9c0-0.5-0.1-0.9-0.3-1.3c4.7-1.7,9.3-3.7,13.9-5
	c10.2-3.1,20.5-5.6,31-7.4c18.7-3.2,37-3.1,55.8-3.3c6.2,12.2,17.8,23,32,24.6c16.4,1.8,30.3-7.8,43.1-16.7
	c25.9-18.3,54-32.5,81.9-47.2C764.6,726.4,734.9,748.7,710.7,757.1z M846.2,630c-8.8,12.1-24.2,21.9-36.3,30.1
	c-12.3,8.3-25.2,15.8-38.3,22.9c-26.4,14.3-53.6,27.1-79.2,43c-12.7,7.9-24.4,18.4-37.9,24.8c-18.3,8.8-36.2,2.3-46.1-13.8
	c13.6-0.3,27.8-2.3,38.8-11c12.7-10,15.2-25.2,12.1-40.3c-4.3-21.5-14.3-42.5-22-63c18.6-0.6,37.8,0.1,53.8-5.9
	c0.3,0.1,0.7,0.2,1.1,0.2c18.2,0.3,36.7,1.5,54.9,0.7c12.1-0.5,23.8-3.5,30.2-14.6c8.3-14.3,7.5-35.4,10-51.2
	c0.1-0.7,0.2-1.4,0.4-2.1c10.3,11.7,20.7,23.3,31,34.9c5.6,6.3,11.2,12.6,16.8,19C842.5,611.3,853.7,619.7,846.2,630z"/>
</svg>
